<?xml version="1.0" encoding="UTF-8" standalone="no"?><svg xmlns="http://www.w3.org/2000/svg" xmlns:xlink="http://www.w3.org/1999/xlink" contentScriptType="application/ecmascript" contentStyleType="text/css" height="640px" preserveAspectRatio="none" style="width:1303px;height:640px;" version="1.1" viewBox="0 0 1303 640" width="1303px" zoomAndPan="magnify"><defs><filter height="300%" id="f571rxxb6jcox" width="300%" x="-1" y="-1"><feGaussianBlur result="blurOut" stdDeviation="2.0"/><feColorMatrix in="blurOut" result="blurOut2" type="matrix" values="0 0 0 0 0 0 0 0 0 0 0 0 0 0 0 0 0 0 .4 0"/><feOffset dx="4.0" dy="4.0" in="blurOut2" result="blurOut3"/><feBlend in="SourceGraphic" in2="blurOut3" mode="normal"/></filter></defs><g><!--class Axiom--><a target="_top" xlink:actuate="onRequest" xlink:href="#oml-Axiom" xlink:show="new" xlink:title="#oml-Axiom" xlink:type="simple"><rect fill="#FFFFFF" filter="url(#f571rxxb6jcox)" height="40" id="Axiom" style="stroke: #000000; stroke-width: 1.5;" width="68" x="885" y="101"/><rect fill="#FFFFFF" height="32" style="stroke: #000000; stroke-width: 1.5;" width="68" x="885" y="101"/><ellipse cx="900" cy="117" fill="#A9DCDF" rx="11" ry="11" style="stroke: #000000; stroke-width: 1.0;"/><path d="M900.1133,112.3481 L898.9595,117.4199 L901.2754,117.4199 Z M898.6191,110.1069 L901.6157,110.1069 L904.9609,122.5 L902.5122,122.5 L901.7485,119.437 L898.4697,119.437 L897.7227,122.5 L895.2739,122.5 Z "/><text fill="#000000" font-family="sans-serif" font-size="12" font-style="italic" lengthAdjust="spacingAndGlyphs" textLength="36" x="914" y="121.5352">Axiom</text><line style="stroke: #000000; stroke-width: 1.5;" x1="886" x2="952" y1="133" y2="133"/></a><!--class AnnotatedElement--><a target="_top" xlink:actuate="onRequest" xlink:href="#oml-AnnotatedElement" xlink:show="new" xlink:title="#oml-AnnotatedElement" xlink:type="simple"><rect fill="#D3D3D3" filter="url(#f571rxxb6jcox)" height="32" id="AnnotatedElement" style="stroke: #000000; stroke-width: 1.5;" width="137" x="850.5" y="8"/><ellipse cx="865.5" cy="24" fill="#A9DCDF" rx="11" ry="11" style="stroke: #000000; stroke-width: 1.0;"/><path d="M865.6133,19.3481 L864.4595,24.4199 L866.7754,24.4199 Z M864.1191,17.1069 L867.1157,17.1069 L870.4609,29.5 L868.0122,29.5 L867.2485,26.437 L863.9697,26.437 L863.2227,29.5 L860.7739,29.5 Z "/><text fill="#000000" font-family="sans-serif" font-size="12" font-style="italic" lengthAdjust="spacingAndGlyphs" textLength="105" x="879.5" y="28.5352">AnnotatedElement</text></a><!--class EntityRestrictionAxiom--><a target="_top" xlink:actuate="onRequest" xlink:href="#oml-EntityRestrictionAxiom" xlink:show="new" xlink:title="#oml-EntityRestrictionAxiom" xlink:type="simple"><rect fill="#FFFFFF" filter="url(#f571rxxb6jcox)" height="40" id="EntityRestrictionAxiom" style="stroke: #000000; stroke-width: 1.5;" width="159" x="738.5" y="208.5"/><rect fill="#FFFFFF" height="32" style="stroke: #000000; stroke-width: 1.5;" width="159" x="738.5" y="208.5"/><ellipse cx="753.5" cy="224.5" fill="#A9DCDF" rx="11" ry="11" style="stroke: #000000; stroke-width: 1.0;"/><path d="M753.6133,219.8481 L752.4595,224.9199 L754.7754,224.9199 Z M752.1191,217.6069 L755.1157,217.6069 L758.4609,230 L756.0122,230 L755.2485,226.937 L751.9697,226.937 L751.2227,230 L748.7739,230 Z "/><text fill="#000000" font-family="sans-serif" font-size="12" font-style="italic" lengthAdjust="spacingAndGlyphs" textLength="127" x="767.5" y="229.0352">EntityRestrictionAxiom</text><line style="stroke: #000000; stroke-width: 1.5;" x1="739.5" x2="896.5" y1="240.5" y2="240.5"/></a><!--class ExistentialRelationshipRestrictionAxiom--><a target="_top" xlink:actuate="onRequest" xlink:href="#oml-ExistentialRelationshipRestrictionAxiom" xlink:show="new" xlink:title="#oml-ExistentialRelationshipRestrictionAxiom" xlink:type="simple"><rect fill="#FFFFFF" filter="url(#f571rxxb6jcox)" height="40" id="ExistentialRelationshipRestrictionAxiom" style="stroke: #000000; stroke-width: 1.5;" width="256" x="6" y="465.5"/><rect fill="#FFFFFF" height="32" style="stroke: #000000; stroke-width: 1.5;" width="256" x="6" y="465.5"/><ellipse cx="21" cy="481.5" fill="#ADD1B2" rx="11" ry="11" style="stroke: #000000; stroke-width: 1.0;"/><path d="M23.9731,487.1431 Q23.3921,487.4419 22.7529,487.5913 Q22.1138,487.7407 21.4082,487.7407 Q18.9014,487.7407 17.5815,486.0889 Q16.2617,484.437 16.2617,481.3159 Q16.2617,478.1865 17.5815,476.5347 Q18.9014,474.8828 21.4082,474.8828 Q22.1138,474.8828 22.7612,475.0322 Q23.4087,475.1816 23.9731,475.4805 L23.9731,478.2031 Q23.3423,477.6221 22.7488,477.3523 Q22.1553,477.0825 21.5244,477.0825 Q20.1797,477.0825 19.4949,478.1492 Q18.8101,479.2158 18.8101,481.3159 Q18.8101,483.4077 19.4949,484.4744 Q20.1797,485.541 21.5244,485.541 Q22.1553,485.541 22.7488,485.2712 Q23.3423,485.0015 23.9731,484.4204 Z "/><text fill="#000000" font-family="sans-serif" font-size="12" lengthAdjust="spacingAndGlyphs" textLength="224" x="35" y="486.0352">ExistentialRelationshipRestrictionAxiom</text><line style="stroke: #000000; stroke-width: 1.5;" x1="7" x2="261" y1="497.5" y2="497.5"/></a><!--class RelationshipRestrictionAxiom--><a target="_top" xlink:actuate="onRequest" xlink:href="#oml-RelationshipRestrictionAxiom" xlink:show="new" xlink:title="#oml-RelationshipRestrictionAxiom" xlink:type="simple"><rect fill="#FFFFFF" filter="url(#f571rxxb6jcox)" height="65.9102" id="RelationshipRestrictionAxiom" style="stroke: #000000; stroke-width: 1.5;" width="267" x="288.5" y="316"/><rect fill="#FFFFFF" height="32" style="stroke: #000000; stroke-width: 1.5;" width="267" x="288.5" y="316"/><ellipse cx="334.75" cy="332" fill="#A9DCDF" rx="11" ry="11" style="stroke: #000000; stroke-width: 1.0;"/><path d="M334.8633,327.3481 L333.7095,332.4199 L336.0254,332.4199 Z M333.3691,325.1069 L336.3657,325.1069 L339.7109,337.5 L337.2622,337.5 L336.4985,334.437 L333.2197,334.437 L332.4727,337.5 L330.0239,337.5 Z "/><text fill="#000000" font-family="sans-serif" font-size="12" font-style="italic" lengthAdjust="spacingAndGlyphs" textLength="166" x="355.25" y="336.5352">RelationshipRestrictionAxiom</text><line style="stroke: #000000; stroke-width: 1.5;" x1="289.5" x2="554.5" y1="348" y2="348"/><text fill="#000000" font-family="sans-serif" font-size="11" lengthAdjust="spacingAndGlyphs" textLength="255" x="294.5" y="362.6348">relationshipDirection : RelationshipDirection [1]</text><text fill="#000000" font-family="sans-serif" font-size="11" lengthAdjust="spacingAndGlyphs" textLength="123" x="294.5" y="375.5898">restrictedTo : Entity [1]</text></a><!--class ExistentialScalarPropertyRestrictionAxiom--><a target="_top" xlink:actuate="onRequest" xlink:href="#oml-ExistentialScalarPropertyRestrictionAxiom" xlink:show="new" xlink:title="#oml-ExistentialScalarPropertyRestrictionAxiom" xlink:type="simple"><rect fill="#FFFFFF" filter="url(#f571rxxb6jcox)" height="40" id="ExistentialScalarPropertyRestrictionAxiom" style="stroke: #000000; stroke-width: 1.5;" width="269" x="305.5" y="589"/><rect fill="#FFFFFF" height="32" style="stroke: #000000; stroke-width: 1.5;" width="269" x="305.5" y="589"/><ellipse cx="320.5" cy="605" fill="#ADD1B2" rx="11" ry="11" style="stroke: #000000; stroke-width: 1.0;"/><path d="M323.4731,610.6431 Q322.8921,610.9419 322.2529,611.0913 Q321.6138,611.2407 320.9082,611.2407 Q318.4014,611.2407 317.0815,609.5889 Q315.7617,607.937 315.7617,604.8159 Q315.7617,601.6865 317.0815,600.0347 Q318.4014,598.3828 320.9082,598.3828 Q321.6138,598.3828 322.2612,598.5322 Q322.9087,598.6816 323.4731,598.9805 L323.4731,601.7031 Q322.8423,601.1221 322.2488,600.8523 Q321.6553,600.5825 321.0244,600.5825 Q319.6797,600.5825 318.9949,601.6492 Q318.3101,602.7158 318.3101,604.8159 Q318.3101,606.9077 318.9949,607.9744 Q319.6797,609.041 321.0244,609.041 Q321.6553,609.041 322.2488,608.7712 Q322.8423,608.5015 323.4731,607.9204 Z "/><text fill="#000000" font-family="sans-serif" font-size="12" lengthAdjust="spacingAndGlyphs" textLength="237" x="334.5" y="609.5352">ExistentialScalarPropertyRestrictionAxiom</text><line style="stroke: #000000; stroke-width: 1.5;" x1="306.5" x2="573.5" y1="621" y2="621"/></a><!--class TypedScalarPropertyRestrictionAxion--><a target="_top" xlink:actuate="onRequest" xlink:href="#oml-TypedScalarPropertyRestrictionAxion" xlink:show="new" xlink:title="#oml-TypedScalarPropertyRestrictionAxion" xlink:type="simple"><rect fill="#FFFFFF" filter="url(#f571rxxb6jcox)" height="52.9551" id="TypedScalarPropertyRestrictionAxion" style="stroke: #000000; stroke-width: 1.5;" width="244" x="582" y="459"/><rect fill="#FFFFFF" height="32" style="stroke: #000000; stroke-width: 1.5;" width="244" x="582" y="459"/><ellipse cx="597" cy="475" fill="#A9DCDF" rx="11" ry="11" style="stroke: #000000; stroke-width: 1.0;"/><path d="M597.1133,470.3481 L595.9595,475.4199 L598.2754,475.4199 Z M595.6191,468.1069 L598.6157,468.1069 L601.9609,480.5 L599.5122,480.5 L598.7485,477.437 L595.4697,477.437 L594.7227,480.5 L592.2739,480.5 Z "/><text fill="#000000" font-family="sans-serif" font-size="12" font-style="italic" lengthAdjust="spacingAndGlyphs" textLength="212" x="611" y="479.5352">TypedScalarPropertyRestrictionAxion</text><line style="stroke: #000000; stroke-width: 1.5;" x1="583" x2="825" y1="491" y2="491"/><text fill="#000000" font-family="sans-serif" font-size="11" lengthAdjust="spacingAndGlyphs" textLength="158" x="588" y="505.6348">restrictedTo : ScalarRange [1]</text></a><!--class ParticularScalarPropertyRestrictionAxiom--><a target="_top" xlink:actuate="onRequest" xlink:href="#oml-ParticularScalarPropertyRestrictionAxiom" xlink:show="new" xlink:title="#oml-ParticularScalarPropertyRestrictionAxiom" xlink:type="simple"><rect fill="#FFFFFF" filter="url(#f571rxxb6jcox)" height="40" id="ParticularScalarPropertyRestrictionAxiom" style="stroke: #000000; stroke-width: 1.5;" width="265" x="861.5" y="465.5"/><rect fill="#FFFFFF" height="32" style="stroke: #000000; stroke-width: 1.5;" width="265" x="861.5" y="465.5"/><ellipse cx="876.5" cy="481.5" fill="#ADD1B2" rx="11" ry="11" style="stroke: #000000; stroke-width: 1.0;"/><path d="M879.4731,487.1431 Q878.8921,487.4419 878.2529,487.5913 Q877.6138,487.7407 876.9082,487.7407 Q874.4014,487.7407 873.0815,486.0889 Q871.7617,484.437 871.7617,481.3159 Q871.7617,478.1865 873.0815,476.5347 Q874.4014,474.8828 876.9082,474.8828 Q877.6138,474.8828 878.2612,475.0322 Q878.9087,475.1816 879.4731,475.4805 L879.4731,478.2031 Q878.8423,477.6221 878.2488,477.3523 Q877.6553,477.0825 877.0244,477.0825 Q875.6797,477.0825 874.9949,478.1492 Q874.3101,479.2158 874.3101,481.3159 Q874.3101,483.4077 874.9949,484.4744 Q875.6797,485.541 877.0244,485.541 Q877.6553,485.541 878.2488,485.2712 Q878.8423,485.0015 879.4731,484.4204 Z "/><text fill="#000000" font-family="sans-serif" font-size="12" lengthAdjust="spacingAndGlyphs" textLength="233" x="890.5" y="486.0352">ParticularScalarPropertyRestrictionAxiom</text><line style="stroke: #000000; stroke-width: 1.5;" x1="862.5" x2="1125.5" y1="497.5" y2="497.5"/></a><!--class LiteralValue--><a target="_top" xlink:actuate="onRequest" xlink:href="#oml-LiteralValue" xlink:show="new" xlink:title="#oml-LiteralValue" xlink:type="simple"><rect fill="#D3D3D3" filter="url(#f571rxxb6jcox)" height="32" id="LiteralValue" style="stroke: #000000; stroke-width: 1.5;" width="99" x="944.5" y="593"/><ellipse cx="959.5" cy="609" fill="#A9DCDF" rx="11" ry="11" style="stroke: #000000; stroke-width: 1.0;"/><path d="M959.6133,604.3481 L958.4595,609.4199 L960.7754,609.4199 Z M958.1191,602.1069 L961.1157,602.1069 L964.4609,614.5 L962.0122,614.5 L961.2485,611.437 L957.9697,611.437 L957.2227,614.5 L954.7739,614.5 Z "/><text fill="#000000" font-family="sans-serif" font-size="12" font-style="italic" lengthAdjust="spacingAndGlyphs" textLength="67" x="973.5" y="613.5352">LiteralValue</text></a><!--class ScalarPropertyRestrictionAxiom--><a target="_top" xlink:actuate="onRequest" xlink:href="#oml-ScalarPropertyRestrictionAxiom" xlink:show="new" xlink:title="#oml-ScalarPropertyRestrictionAxiom" xlink:type="simple"><rect fill="#FFFFFF" filter="url(#f571rxxb6jcox)" height="52.9551" id="ScalarPropertyRestrictionAxiom" style="stroke: #000000; stroke-width: 1.5;" width="211" x="712.5" y="322.5"/><rect fill="#FFFFFF" height="32" style="stroke: #000000; stroke-width: 1.5;" width="211" x="712.5" y="322.5"/><ellipse cx="727.5" cy="338.5" fill="#A9DCDF" rx="11" ry="11" style="stroke: #000000; stroke-width: 1.0;"/><path d="M727.6133,333.8481 L726.4595,338.9199 L728.7754,338.9199 Z M726.1191,331.6069 L729.1157,331.6069 L732.4609,344 L730.0122,344 L729.2485,340.937 L725.9697,340.937 L725.2227,344 L722.7739,344 Z "/><text fill="#000000" font-family="sans-serif" font-size="12" font-style="italic" lengthAdjust="spacingAndGlyphs" textLength="179" x="741.5" y="343.0352">ScalarPropertyRestrictionAxiom</text><line style="stroke: #000000; stroke-width: 1.5;" x1="713.5" x2="922.5" y1="354.5" y2="354.5"/><text fill="#000000" font-family="sans-serif" font-size="11" lengthAdjust="spacingAndGlyphs" textLength="152" x="718.5" y="369.1348">property : ScalarProperty [1]</text></a><!--class StructuredPropertyRestrictionAxiom--><a target="_top" xlink:actuate="onRequest" xlink:href="#oml-StructuredPropertyRestrictionAxiom" xlink:show="new" xlink:title="#oml-StructuredPropertyRestrictionAxiom" xlink:type="simple"><rect fill="#FFFFFF" filter="url(#f571rxxb6jcox)" height="52.9551" id="StructuredPropertyRestrictionAxiom" style="stroke: #000000; stroke-width: 1.5;" width="236" x="1046" y="322.5"/><rect fill="#FFFFFF" height="32" style="stroke: #000000; stroke-width: 1.5;" width="236" x="1046" y="322.5"/><ellipse cx="1061" cy="338.5" fill="#ADD1B2" rx="11" ry="11" style="stroke: #000000; stroke-width: 1.0;"/><path d="M1063.9731,344.1431 Q1063.3921,344.4419 1062.7529,344.5913 Q1062.1138,344.7407 1061.4082,344.7407 Q1058.9014,344.7407 1057.5815,343.0889 Q1056.2617,341.437 1056.2617,338.3159 Q1056.2617,335.1865 1057.5815,333.5347 Q1058.9014,331.8828 1061.4082,331.8828 Q1062.1138,331.8828 1062.7612,332.0322 Q1063.4087,332.1816 1063.9731,332.4805 L1063.9731,335.2031 Q1063.3423,334.6221 1062.7488,334.3523 Q1062.1553,334.0825 1061.5244,334.0825 Q1060.1797,334.0825 1059.4949,335.1492 Q1058.8101,336.2158 1058.8101,338.3159 Q1058.8101,340.4077 1059.4949,341.4744 Q1060.1797,342.541 1061.5244,342.541 Q1062.1553,342.541 1062.7488,342.2712 Q1063.3423,342.0015 1063.9731,341.4204 Z "/><text fill="#000000" font-family="sans-serif" font-size="12" lengthAdjust="spacingAndGlyphs" textLength="204" x="1075" y="343.0352">StructuredPropertyRestrictionAxiom</text><line style="stroke: #000000; stroke-width: 1.5;" x1="1047" x2="1281" y1="354.5" y2="354.5"/><text fill="#000000" font-family="sans-serif" font-size="11" lengthAdjust="spacingAndGlyphs" textLength="177" x="1052" y="369.1348">property : StructuredProperty [1]</text></a><!--class StructureInstance--><a target="_top" xlink:actuate="onRequest" xlink:href="#oml-StructureInstance" xlink:show="new" xlink:title="#oml-StructureInstance" xlink:type="simple"><rect fill="#D3D3D3" filter="url(#f571rxxb6jcox)" height="32" id="StructureInstance" style="stroke: #000000; stroke-width: 1.5;" width="130" x="1162" y="469.5"/><ellipse cx="1177" cy="485.5" fill="#ADD1B2" rx="11" ry="11" style="stroke: #000000; stroke-width: 1.0;"/><path d="M1179.9731,491.1431 Q1179.3921,491.4419 1178.7529,491.5913 Q1178.1138,491.7407 1177.4082,491.7407 Q1174.9014,491.7407 1173.5815,490.0889 Q1172.2617,488.437 1172.2617,485.3159 Q1172.2617,482.1865 1173.5815,480.5347 Q1174.9014,478.8828 1177.4082,478.8828 Q1178.1138,478.8828 1178.7612,479.0322 Q1179.4087,479.1816 1179.9731,479.4805 L1179.9731,482.2031 Q1179.3423,481.6221 1178.7488,481.3523 Q1178.1553,481.0825 1177.5244,481.0825 Q1176.1797,481.0825 1175.4949,482.1492 Q1174.8101,483.2158 1174.8101,485.3159 Q1174.8101,487.4077 1175.4949,488.4744 Q1176.1797,489.541 1177.5244,489.541 Q1178.1553,489.541 1178.7488,489.2712 Q1179.3423,489.0015 1179.9731,488.4204 Z "/><text fill="#000000" font-family="sans-serif" font-size="12" lengthAdjust="spacingAndGlyphs" textLength="98" x="1191" y="490.0352">StructureInstance</text></a><!--class TermSpecializationAxiom--><a target="_top" xlink:actuate="onRequest" xlink:href="#oml-TermSpecializationAxiom" xlink:show="new" xlink:title="#oml-TermSpecializationAxiom" xlink:type="simple"><rect fill="#FFFFFF" filter="url(#f571rxxb6jcox)" height="52.9551" id="TermSpecializationAxiom" style="stroke: #000000; stroke-width: 1.5;" width="177" x="932.5" y="202"/><rect fill="#FFFFFF" height="32" style="stroke: #000000; stroke-width: 1.5;" width="177" x="932.5" y="202"/><ellipse cx="947.5" cy="218" fill="#ADD1B2" rx="11" ry="11" style="stroke: #000000; stroke-width: 1.0;"/><path d="M950.4731,223.6431 Q949.8921,223.9419 949.2529,224.0913 Q948.6138,224.2407 947.9082,224.2407 Q945.4014,224.2407 944.0815,222.5889 Q942.7617,220.937 942.7617,217.8159 Q942.7617,214.6865 944.0815,213.0347 Q945.4014,211.3828 947.9082,211.3828 Q948.6138,211.3828 949.2612,211.5322 Q949.9087,211.6816 950.4731,211.9805 L950.4731,214.7031 Q949.8423,214.1221 949.2488,213.8523 Q948.6553,213.5825 948.0244,213.5825 Q946.6797,213.5825 945.9949,214.6492 Q945.3101,215.7158 945.3101,217.8159 Q945.3101,219.9077 945.9949,220.9744 Q946.6797,222.041 948.0244,222.041 Q948.6553,222.041 949.2488,221.7712 Q949.8423,221.5015 950.4731,220.9204 Z "/><text fill="#000000" font-family="sans-serif" font-size="12" lengthAdjust="spacingAndGlyphs" textLength="145" x="961.5" y="222.5352">TermSpecializationAxiom</text><line style="stroke: #000000; stroke-width: 1.5;" x1="933.5" x2="1108.5" y1="234" y2="234"/><text fill="#000000" font-family="sans-serif" font-size="11" lengthAdjust="spacingAndGlyphs" textLength="142" x="938.5" y="248.6348">specializedTerm : Term [1]</text></a><!--class UniversalRelationshipRestrictionAxiom--><a target="_top" xlink:actuate="onRequest" xlink:href="#oml-UniversalRelationshipRestrictionAxiom" xlink:show="new" xlink:title="#oml-UniversalRelationshipRestrictionAxiom" xlink:type="simple"><rect fill="#FFFFFF" filter="url(#f571rxxb6jcox)" height="40" id="UniversalRelationshipRestrictionAxiom" style="stroke: #000000; stroke-width: 1.5;" width="250" x="297" y="465.5"/><rect fill="#FFFFFF" height="32" style="stroke: #000000; stroke-width: 1.5;" width="250" x="297" y="465.5"/><ellipse cx="312" cy="481.5" fill="#ADD1B2" rx="11" ry="11" style="stroke: #000000; stroke-width: 1.0;"/><path d="M314.9731,487.1431 Q314.3921,487.4419 313.7529,487.5913 Q313.1138,487.7407 312.4082,487.7407 Q309.9014,487.7407 308.5815,486.0889 Q307.2617,484.437 307.2617,481.3159 Q307.2617,478.1865 308.5815,476.5347 Q309.9014,474.8828 312.4082,474.8828 Q313.1138,474.8828 313.7612,475.0322 Q314.4087,475.1816 314.9731,475.4805 L314.9731,478.2031 Q314.3423,477.6221 313.7488,477.3523 Q313.1553,477.0825 312.5244,477.0825 Q311.1797,477.0825 310.4949,478.1492 Q309.8101,479.2158 309.8101,481.3159 Q309.8101,483.4077 310.4949,484.4744 Q311.1797,485.541 312.5244,485.541 Q313.1553,485.541 313.7488,485.2712 Q314.3423,485.0015 314.9731,484.4204 Z "/><text fill="#000000" font-family="sans-serif" font-size="12" lengthAdjust="spacingAndGlyphs" textLength="218" x="326" y="486.0352">UniversalRelationshipRestrictionAxiom</text><line style="stroke: #000000; stroke-width: 1.5;" x1="298" x2="546" y1="497.5" y2="497.5"/></a><!--class UniversalScalarPropertyRestrictionAxiom--><a target="_top" xlink:actuate="onRequest" xlink:href="#oml-UniversalScalarPropertyRestrictionAxiom" xlink:show="new" xlink:title="#oml-UniversalScalarPropertyRestrictionAxiom" xlink:type="simple"><rect fill="#FFFFFF" filter="url(#f571rxxb6jcox)" height="40" id="UniversalScalarPropertyRestrictionAxiom" style="stroke: #000000; stroke-width: 1.5;" width="263" x="609.5" y="589"/><rect fill="#FFFFFF" height="32" style="stroke: #000000; stroke-width: 1.5;" width="263" x="609.5" y="589"/><ellipse cx="624.5" cy="605" fill="#ADD1B2" rx="11" ry="11" style="stroke: #000000; stroke-width: 1.0;"/><path d="M627.4731,610.6431 Q626.8921,610.9419 626.2529,611.0913 Q625.6138,611.2407 624.9082,611.2407 Q622.4014,611.2407 621.0815,609.5889 Q619.7617,607.937 619.7617,604.8159 Q619.7617,601.6865 621.0815,600.0347 Q622.4014,598.3828 624.9082,598.3828 Q625.6138,598.3828 626.2612,598.5322 Q626.9087,598.6816 627.4731,598.9805 L627.4731,601.7031 Q626.8423,601.1221 626.2488,600.8523 Q625.6553,600.5825 625.0244,600.5825 Q623.6797,600.5825 622.9949,601.6492 Q622.3101,602.7158 622.3101,604.8159 Q622.3101,606.9077 622.9949,607.9744 Q623.6797,609.041 625.0244,609.041 Q625.6553,609.041 626.2488,608.7712 Q626.8423,608.5015 627.4731,607.9204 Z "/><text fill="#000000" font-family="sans-serif" font-size="12" lengthAdjust="spacingAndGlyphs" textLength="231" x="638.5" y="609.5352">UniversalScalarPropertyRestrictionAxiom</text><line style="stroke: #000000; stroke-width: 1.5;" x1="610.5" x2="871.5" y1="621" y2="621"/></a><!--link AnnotatedElement to Axiom--><a target="_top" xlink:actuate="onRequest" xlink:href="#oml-AnnotatedElement" xlink:show="new" xlink:title="#oml-AnnotatedElement" xlink:type="simple"><path d="M919,60.3639 C919,74.0955 919,89.2141 919,100.9199 " fill="none" id="AnnotatedElement-Axiom" style="stroke: #000000; stroke-width: 1.0;"/><polygon fill="none" points="912.0001,60.0176,919,40.0176,926.0001,60.0175,912.0001,60.0176" style="stroke: #000000; stroke-width: 1.0;"/></a><!--link Axiom to EntityRestrictionAxiom--><a target="_top" xlink:actuate="onRequest" xlink:href="#oml-Axiom" xlink:show="new" xlink:title="#oml-Axiom" xlink:type="simple"><path d="M886.0625,156.0572 C869.7802,173.3874 850.7156,193.6789 836.9121,208.3707 " fill="none" id="Axiom-EntityRestrictionAxiom" style="stroke: #000000; stroke-width: 1.0;"/><polygon fill="none" points="881.2065,151.0028,900.0027,141.2199,891.4096,160.589,881.2065,151.0028" style="stroke: #000000; stroke-width: 1.0;"/></a><!--link RelationshipRestrictionAxiom to ExistentialRelationshipRestrictionAxiom--><a target="_top" xlink:actuate="onRequest" xlink:href="#oml-RelationshipRestrictionAxiom" xlink:show="new" xlink:title="#oml-RelationshipRestrictionAxiom" xlink:type="simple"><path d="M333.9516,390.7313 C281.6064,415.5407 217.5809,445.8861 176.3117,465.446 " fill="none" id="RelationshipRestrictionAxiom-ExistentialRelationshipRestrictionAxiom" style="stroke: #000000; stroke-width: 1.0;"/><polygon fill="none" points="331.2123,384.2832,352.2832,382.0428,337.2084,396.9342,331.2123,384.2832" style="stroke: #000000; stroke-width: 1.0;"/></a><!--link TypedScalarPropertyRestrictionAxion to ExistentialScalarPropertyRestrictionAxiom--><a target="_top" xlink:actuate="onRequest" xlink:href="#oml-TypedScalarPropertyRestrictionAxion" xlink:show="new" xlink:title="#oml-TypedScalarPropertyRestrictionAxion" xlink:type="simple"><path d="M628.6224,520.7619 C581.4251,542.8409 522.3115,570.4944 482.9663,588.9002 " fill="none" id="TypedScalarPropertyRestrictionAxion-ExistentialScalarPropertyRestrictionAxiom" style="stroke: #000000; stroke-width: 1.0;"/><polygon fill="none" points="625.959,514.2798,647.041,512.1456,631.8913,526.9608,625.959,514.2798" style="stroke: #000000; stroke-width: 1.0;"/></a><!--link ScalarPropertyRestrictionAxiom to ParticularScalarPropertyRestrictionAxiom--><a target="_top" xlink:actuate="onRequest" xlink:href="#oml-ScalarPropertyRestrictionAxiom" xlink:show="new" xlink:title="#oml-ScalarPropertyRestrictionAxiom" xlink:type="simple"><path d="M868.4673,388.1408 C900.9855,413.3609 941.918,445.1069 968.0284,465.3572 " fill="none" id="ScalarPropertyRestrictionAxiom-ParticularScalarPropertyRestrictionAxiom" style="stroke: #000000; stroke-width: 1.0;"/><polygon fill="none" points="863.8664,393.4311,852.3524,375.6426,872.4463,382.3683,863.8664,393.4311" style="stroke: #000000; stroke-width: 1.0;"/></a><!--link ParticularScalarPropertyRestrictionAxiom to LiteralValue--><path d="M994,518.746 C994,537.7763 994,561.4338 994,579.7531 " fill="none" id="ParticularScalarPropertyRestrictionAxiom-LiteralValue" style="stroke: #000000; stroke-width: 1.0;"/><polygon fill="#000000" points="994,592.8327,998,583.8327,994,587.8327,990,583.8327,994,592.8327" style="stroke: #000000; stroke-width: 1.0;"/><line style="stroke: #000000; stroke-width: 1.0;" x1="994" x2="994.0001" y1="587.8327" y2="579.8328"/><polygon fill="#000000" points="994,505.6173,990,511.6173,994,517.6173,998,511.6173,994,505.6173" style="stroke: #000000; stroke-width: 1.0;"/><text fill="#000000" font-family="sans-serif" font-size="13" lengthAdjust="spacingAndGlyphs" textLength="33" x="995" y="555.5684">value</text><text fill="#000000" font-family="sans-serif" font-size="13" lengthAdjust="spacingAndGlyphs" textLength="8" x="984.625" y="582.3188">1</text><!--link EntityRestrictionAxiom to RelationshipRestrictionAxiom--><a target="_top" xlink:actuate="onRequest" xlink:href="#oml-EntityRestrictionAxiom" xlink:show="new" xlink:title="#oml-EntityRestrictionAxiom" xlink:type="simple"><path d="M732.925,254.3877 C673.757,272.3921 594.3783,296.5465 530.6363,315.9427 " fill="none" id="EntityRestrictionAxiom-RelationshipRestrictionAxiom" style="stroke: #000000; stroke-width: 1.0;"/><polygon fill="none" points="730.9925,247.6589,752.1641,248.5334,735.0682,261.0526,730.9925,247.6589" style="stroke: #000000; stroke-width: 1.0;"/></a><!--link EntityRestrictionAxiom to ScalarPropertyRestrictionAxiom--><a target="_top" xlink:actuate="onRequest" xlink:href="#oml-EntityRestrictionAxiom" xlink:show="new" xlink:title="#oml-EntityRestrictionAxiom" xlink:type="simple"><path d="M818,268.7901 C818,286.451 818,306.6916 818,322.4218 " fill="none" id="EntityRestrictionAxiom-ScalarPropertyRestrictionAxiom" style="stroke: #000000; stroke-width: 1.0;"/><polygon fill="none" points="811.0001,268.669,818,248.669,825.0001,268.669,811.0001,268.669" style="stroke: #000000; stroke-width: 1.0;"/></a><!--link EntityRestrictionAxiom to StructuredPropertyRestrictionAxiom--><a target="_top" xlink:actuate="onRequest" xlink:href="#oml-EntityRestrictionAxiom" xlink:show="new" xlink:title="#oml-EntityRestrictionAxiom" xlink:type="simple"><path d="M894.5395,255.1561 C952.034,275.1795 1030.4202,302.4787 1087.8259,322.4712 " fill="none" id="EntityRestrictionAxiom-StructuredPropertyRestrictionAxiom" style="stroke: #000000; stroke-width: 1.0;"/><polygon fill="none" points="892.1084,261.7219,875.5233,248.5334,896.7129,248.5007,892.1084,261.7219" style="stroke: #000000; stroke-width: 1.0;"/></a><!--link StructuredPropertyRestrictionAxiom to StructureInstance--><path d="M1181.8989,387.7809 C1192.0959,409.8745 1204.6465,437.0674 1213.9169,457.1532 " fill="none" id="StructuredPropertyRestrictionAxiom-StructureInstance" style="stroke: #000000; stroke-width: 1.0;"/><polygon fill="#000000" points="1219.4775,469.2011,1219.3378,459.3532,1217.3822,464.6613,1212.0741,462.7057,1219.4775,469.2011" style="stroke: #000000; stroke-width: 1.0;"/><line style="stroke: #000000; stroke-width: 1.0;" x1="1217.3822" x2="1214.0297" y1="464.6613" y2="457.3977"/><polygon fill="#000000" points="1176.2966,375.6426,1175.1791,382.7666,1181.3253,386.5381,1182.4428,379.4141,1176.2966,375.6426" style="stroke: #000000; stroke-width: 1.0;"/><text fill="#000000" font-family="sans-serif" font-size="13" lengthAdjust="spacingAndGlyphs" textLength="33" x="1200" y="425.5684">value</text><text fill="#000000" font-family="sans-serif" font-size="13" lengthAdjust="spacingAndGlyphs" textLength="8" x="1207.5166" y="458.642">1</text><!--link Axiom to TermSpecializationAxiom--><a target="_top" xlink:actuate="onRequest" xlink:href="#oml-Axiom" xlink:show="new" xlink:title="#oml-Axiom" xlink:type="simple"><path d="M951.9867,155.7654 C966.1842,170.7285 982.5187,187.9438 995.7312,201.8687 " fill="none" id="Axiom-TermSpecializationAxiom" style="stroke: #000000; stroke-width: 1.0;"/><polygon fill="none" points="946.8736,160.5465,938.1854,141.2199,957.0295,150.9102,946.8736,160.5465" style="stroke: #000000; stroke-width: 1.0;"/></a><!--link ScalarPropertyRestrictionAxiom to TypedScalarPropertyRestrictionAxion--><a target="_top" xlink:actuate="onRequest" xlink:href="#oml-ScalarPropertyRestrictionAxiom" xlink:show="new" xlink:title="#oml-ScalarPropertyRestrictionAxiom" xlink:type="simple"><path d="M782.7827,391.1681 C764.3191,413.2758 742.2663,439.6811 726.1949,458.9246 " fill="none" id="ScalarPropertyRestrictionAxiom-TypedScalarPropertyRestrictionAxion" style="stroke: #000000; stroke-width: 1.0;"/><polygon fill="none" points="777.556,386.5061,795.749,375.6426,788.3014,395.4803,777.556,386.5061" style="stroke: #000000; stroke-width: 1.0;"/></a><!--link RelationshipRestrictionAxiom to UniversalRelationshipRestrictionAxiom--><a target="_top" xlink:actuate="onRequest" xlink:href="#oml-RelationshipRestrictionAxiom" xlink:show="new" xlink:title="#oml-RelationshipRestrictionAxiom" xlink:type="simple"><path d="M422,402.2912 C422,424.4582 422,448.8394 422,465.446 " fill="none" id="RelationshipRestrictionAxiom-UniversalRelationshipRestrictionAxiom" style="stroke: #000000; stroke-width: 1.0;"/><polygon fill="none" points="415.0001,402.0429,422,382.0428,429.0001,402.0428,415.0001,402.0429" style="stroke: #000000; stroke-width: 1.0;"/></a><!--link TypedScalarPropertyRestrictionAxion to UniversalScalarPropertyRestrictionAxiom--><a target="_top" xlink:actuate="onRequest" xlink:href="#oml-TypedScalarPropertyRestrictionAxion" xlink:show="new" xlink:title="#oml-TypedScalarPropertyRestrictionAxion" xlink:type="simple"><path d="M717.8202,531.6297 C723.7194,551.3203 730.2981,573.2789 734.9355,588.7577 " fill="none" id="TypedScalarPropertyRestrictionAxion-UniversalScalarPropertyRestrictionAxiom" style="stroke: #000000; stroke-width: 1.0;"/><polygon fill="none" points="711.0628,533.4653,712.0284,512.2977,724.4739,529.4474,711.0628,533.4653" style="stroke: #000000; stroke-width: 1.0;"/></a><!--
@startuml
skinparam classBackgroundColor LightGray
skinparam classBorderColor Black
skinparam enumBorderColor Black
skinparam ArrowColor Black
hide methods
abstract class Axiom [[#oml-Axiom]] #white {
}
abstract class AnnotatedElement [[#oml-AnnotatedElement]]
hide AnnotatedElement members
Axiom -up-|> AnnotatedElement [[#oml-AnnotatedElement]]
abstract class EntityRestrictionAxiom [[#oml-EntityRestrictionAxiom]] #white {
}
EntityRestrictionAxiom -up-|> Axiom [[#oml-Axiom]]
class ExistentialRelationshipRestrictionAxiom [[#oml-ExistentialRelationshipRestrictionAxiom]] #white {
}
ExistentialRelationshipRestrictionAxiom -up-|> RelationshipRestrictionAxiom [[#oml-RelationshipRestrictionAxiom]]
class ExistentialScalarPropertyRestrictionAxiom [[#oml-ExistentialScalarPropertyRestrictionAxiom]] #white {
}
ExistentialScalarPropertyRestrictionAxiom -up-|> TypedScalarPropertyRestrictionAxion [[#oml-TypedScalarPropertyRestrictionAxion]]
class ParticularScalarPropertyRestrictionAxiom [[#oml-ParticularScalarPropertyRestrictionAxiom]] #white {
}
abstract class LiteralValue [[#oml-LiteralValue]]
hide LiteralValue members
ParticularScalarPropertyRestrictionAxiom -up-|> ScalarPropertyRestrictionAxiom [[#oml-ScalarPropertyRestrictionAxiom]]
ParticularScalarPropertyRestrictionAxiom *- -> "1" LiteralValue : value
abstract class RelationshipRestrictionAxiom [[#oml-RelationshipRestrictionAxiom]] #white {
	relationshipDirection : RelationshipDirection [1]
	restrictedTo : Entity [1]
}
RelationshipRestrictionAxiom -up-|> EntityRestrictionAxiom [[#oml-EntityRestrictionAxiom]]
abstract class ScalarPropertyRestrictionAxiom [[#oml-ScalarPropertyRestrictionAxiom]] #white {
	property : ScalarProperty [1]
}
ScalarPropertyRestrictionAxiom -up-|> EntityRestrictionAxiom [[#oml-EntityRestrictionAxiom]]
class StructuredPropertyRestrictionAxiom [[#oml-StructuredPropertyRestrictionAxiom]] #white {
	property : StructuredProperty [1]
}
class StructureInstance [[#oml-StructureInstance]]
hide StructureInstance members
StructuredPropertyRestrictionAxiom -up-|> EntityRestrictionAxiom [[#oml-EntityRestrictionAxiom]]
StructuredPropertyRestrictionAxiom *- -> "1" StructureInstance : value
class TermSpecializationAxiom [[#oml-TermSpecializationAxiom]] #white {
	specializedTerm : Term [1]
}
TermSpecializationAxiom -up-|> Axiom [[#oml-Axiom]]
abstract class TypedScalarPropertyRestrictionAxion [[#oml-TypedScalarPropertyRestrictionAxion]] #white {
	restrictedTo : ScalarRange [1]
}
TypedScalarPropertyRestrictionAxion -up-|> ScalarPropertyRestrictionAxiom [[#oml-ScalarPropertyRestrictionAxiom]]
class UniversalRelationshipRestrictionAxiom [[#oml-UniversalRelationshipRestrictionAxiom]] #white {
}
UniversalRelationshipRestrictionAxiom -up-|> RelationshipRestrictionAxiom [[#oml-RelationshipRestrictionAxiom]]
class UniversalScalarPropertyRestrictionAxiom [[#oml-UniversalScalarPropertyRestrictionAxiom]] #white {
}
UniversalScalarPropertyRestrictionAxiom -up-|> TypedScalarPropertyRestrictionAxion [[#oml-TypedScalarPropertyRestrictionAxion]]
@enduml

PlantUML version 1.2019.00(Sun Jan 13 07:46:42 PST 2019)
(GPL source distribution)
Java Runtime: Java(TM) SE Runtime Environment
JVM: Java HotSpot(TM) 64-Bit Server VM
Java Version: 1.8.0_181-b13
Operating System: Mac OS X
OS Version: 10.13.6
Default Encoding: UTF-8
Language: en
Country: US
--></g></svg>