<?xml version="1.0" encoding="UTF-8" standalone="no"?><svg xmlns="http://www.w3.org/2000/svg" xmlns:xlink="http://www.w3.org/1999/xlink" contentScriptType="application/ecmascript" contentStyleType="text/css" height="525px" preserveAspectRatio="none" style="width:1680px;height:525px;" version="1.1" viewBox="0 0 1680 525" width="1680px" zoomAndPan="magnify"><defs><filter height="300%" id="fvtamxa721f09" width="300%" x="-1" y="-1"><feGaussianBlur result="blurOut" stdDeviation="2.0"/><feColorMatrix in="blurOut" result="blurOut2" type="matrix" values="0 0 0 0 0 0 0 0 0 0 0 0 0 0 0 0 0 0 .4 0"/><feOffset dx="4.0" dy="4.0" in="blurOut2" result="blurOut3"/><feBlend in="SourceGraphic" in2="blurOut3" mode="normal"/></filter></defs><g><!--class AspectReference--><a target="_top" xlink:actuate="onRequest" xlink:href="#oml-AspectReference" xlink:show="new" xlink:title="#oml-AspectReference" xlink:type="simple"><rect fill="#FFFFFF" filter="url(#fvtamxa721f09)" height="52.9551" id="AspectReference" style="stroke: #000000; stroke-width: 1.5;" width="129" x="6" y="462"/><rect fill="#FFFFFF" height="32" style="stroke: #000000; stroke-width: 1.5;" width="129" x="6" y="462"/><ellipse cx="21" cy="478" fill="#ADD1B2" rx="11" ry="11" style="stroke: #000000; stroke-width: 1.0;"/><path d="M23.9731,483.6431 Q23.3921,483.9419 22.7529,484.0913 Q22.1138,484.2407 21.4082,484.2407 Q18.9014,484.2407 17.5815,482.5889 Q16.2617,480.937 16.2617,477.8159 Q16.2617,474.6865 17.5815,473.0347 Q18.9014,471.3828 21.4082,471.3828 Q22.1138,471.3828 22.7612,471.5322 Q23.4087,471.6816 23.9731,471.9805 L23.9731,474.7031 Q23.3423,474.1221 22.7488,473.8523 Q22.1553,473.5825 21.5244,473.5825 Q20.1797,473.5825 19.4949,474.6492 Q18.8101,475.7158 18.8101,477.8159 Q18.8101,479.9077 19.4949,480.9744 Q20.1797,482.041 21.5244,482.041 Q22.1553,482.041 22.7488,481.7712 Q23.3423,481.5015 23.9731,480.9204 Z "/><text fill="#000000" font-family="sans-serif" font-size="12" lengthAdjust="spacingAndGlyphs" textLength="97" x="35" y="482.5352">AspectReference</text><line style="stroke: #000000; stroke-width: 1.5;" x1="7" x2="134" y1="494" y2="494"/><text fill="#000000" font-family="sans-serif" font-size="11" lengthAdjust="spacingAndGlyphs" textLength="99" x="12" y="508.6348">aspect : Aspect [1]</text></a><!--class EntityReference--><a target="_top" xlink:actuate="onRequest" xlink:href="#oml-EntityReference" xlink:show="new" xlink:title="#oml-EntityReference" xlink:type="simple"><rect fill="#FFFFFF" filter="url(#fvtamxa721f09)" height="40" id="EntityReference" style="stroke: #000000; stroke-width: 1.5;" width="121" x="269" y="338.5"/><rect fill="#FFFFFF" height="32" style="stroke: #000000; stroke-width: 1.5;" width="121" x="269" y="338.5"/><ellipse cx="284" cy="354.5" fill="#A9DCDF" rx="11" ry="11" style="stroke: #000000; stroke-width: 1.0;"/><path d="M284.1133,349.8481 L282.9595,354.9199 L285.2754,354.9199 Z M282.6191,347.6069 L285.6157,347.6069 L288.9609,360 L286.5122,360 L285.7485,356.937 L282.4697,356.937 L281.7227,360 L279.2739,360 Z "/><text fill="#000000" font-family="sans-serif" font-size="12" font-style="italic" lengthAdjust="spacingAndGlyphs" textLength="89" x="298" y="359.0352">EntityReference</text><line style="stroke: #000000; stroke-width: 1.5;" x1="270" x2="389" y1="370.5" y2="370.5"/></a><!--class ConceptReference--><a target="_top" xlink:actuate="onRequest" xlink:href="#oml-ConceptReference" xlink:show="new" xlink:title="#oml-ConceptReference" xlink:type="simple"><rect fill="#FFFFFF" filter="url(#fvtamxa721f09)" height="52.9551" id="ConceptReference" style="stroke: #000000; stroke-width: 1.5;" width="137" x="170" y="462"/><rect fill="#FFFFFF" height="32" style="stroke: #000000; stroke-width: 1.5;" width="137" x="170" y="462"/><ellipse cx="185" cy="478" fill="#ADD1B2" rx="11" ry="11" style="stroke: #000000; stroke-width: 1.0;"/><path d="M187.9731,483.6431 Q187.3921,483.9419 186.7529,484.0913 Q186.1138,484.2407 185.4082,484.2407 Q182.9014,484.2407 181.5815,482.5889 Q180.2617,480.937 180.2617,477.8159 Q180.2617,474.6865 181.5815,473.0347 Q182.9014,471.3828 185.4082,471.3828 Q186.1138,471.3828 186.7612,471.5322 Q187.4087,471.6816 187.9731,471.9805 L187.9731,474.7031 Q187.3423,474.1221 186.7488,473.8523 Q186.1553,473.5825 185.5244,473.5825 Q184.1797,473.5825 183.4949,474.6492 Q182.8101,475.7158 182.8101,477.8159 Q182.8101,479.9077 183.4949,480.9744 Q184.1797,482.041 185.5244,482.041 Q186.1553,482.041 186.7488,481.7712 Q187.3423,481.5015 187.9731,480.9204 Z "/><text fill="#000000" font-family="sans-serif" font-size="12" lengthAdjust="spacingAndGlyphs" textLength="105" x="199" y="482.5352">ConceptReference</text><line style="stroke: #000000; stroke-width: 1.5;" x1="171" x2="306" y1="494" y2="494"/><text fill="#000000" font-family="sans-serif" font-size="11" lengthAdjust="spacingAndGlyphs" textLength="115" x="176" y="508.6348">concept : Concept [1]</text></a><!--class EntityRestrictionAxiom--><a target="_top" xlink:actuate="onRequest" xlink:href="#oml-EntityRestrictionAxiom" xlink:show="new" xlink:title="#oml-EntityRestrictionAxiom" xlink:type="simple"><rect fill="#D3D3D3" filter="url(#fvtamxa721f09)" height="32" id="EntityRestrictionAxiom" style="stroke: #000000; stroke-width: 1.5;" width="159" x="342" y="472.5"/><ellipse cx="357" cy="488.5" fill="#A9DCDF" rx="11" ry="11" style="stroke: #000000; stroke-width: 1.0;"/><path d="M357.1133,483.8481 L355.9595,488.9199 L358.2754,488.9199 Z M355.6191,481.6069 L358.6157,481.6069 L361.9609,494 L359.5122,494 L358.7485,490.937 L355.4697,490.937 L354.7227,494 L352.2739,494 Z "/><text fill="#000000" font-family="sans-serif" font-size="12" font-style="italic" lengthAdjust="spacingAndGlyphs" textLength="127" x="371" y="493.0352">EntityRestrictionAxiom</text></a><!--class TermReference--><a target="_top" xlink:actuate="onRequest" xlink:href="#oml-TermReference" xlink:show="new" xlink:title="#oml-TermReference" xlink:type="simple"><rect fill="#FFFFFF" filter="url(#fvtamxa721f09)" height="40" id="TermReference" style="stroke: #000000; stroke-width: 1.5;" width="121" x="839" y="208.5"/><rect fill="#FFFFFF" height="32" style="stroke: #000000; stroke-width: 1.5;" width="121" x="839" y="208.5"/><ellipse cx="854" cy="224.5" fill="#A9DCDF" rx="11" ry="11" style="stroke: #000000; stroke-width: 1.0;"/><path d="M854.1133,219.8481 L852.9595,224.9199 L855.2754,224.9199 Z M852.6191,217.6069 L855.6157,217.6069 L858.9609,230 L856.5122,230 L855.7485,226.937 L852.4697,226.937 L851.7227,230 L849.2739,230 Z "/><text fill="#000000" font-family="sans-serif" font-size="12" font-style="italic" lengthAdjust="spacingAndGlyphs" textLength="89" x="868" y="229.0352">TermReference</text><line style="stroke: #000000; stroke-width: 1.5;" x1="840" x2="959" y1="240.5" y2="240.5"/></a><!--class ReifiedRelationshipReference--><a target="_top" xlink:actuate="onRequest" xlink:href="#oml-ReifiedRelationshipReference" xlink:show="new" xlink:title="#oml-ReifiedRelationshipReference" xlink:type="simple"><rect fill="#FFFFFF" filter="url(#fvtamxa721f09)" height="52.9551" id="ReifiedRelationshipReference" style="stroke: #000000; stroke-width: 1.5;" width="205" x="536" y="462"/><rect fill="#FFFFFF" height="32" style="stroke: #000000; stroke-width: 1.5;" width="205" x="536" y="462"/><ellipse cx="553.25" cy="478" fill="#ADD1B2" rx="11" ry="11" style="stroke: #000000; stroke-width: 1.0;"/><path d="M556.2231,483.6431 Q555.6421,483.9419 555.0029,484.0913 Q554.3638,484.2407 553.6582,484.2407 Q551.1514,484.2407 549.8315,482.5889 Q548.5117,480.937 548.5117,477.8159 Q548.5117,474.6865 549.8315,473.0347 Q551.1514,471.3828 553.6582,471.3828 Q554.3638,471.3828 555.0112,471.5322 Q555.6587,471.6816 556.2231,471.9805 L556.2231,474.7031 Q555.5923,474.1221 554.9988,473.8523 Q554.4053,473.5825 553.7744,473.5825 Q552.4297,473.5825 551.7449,474.6492 Q551.0601,475.7158 551.0601,477.8159 Q551.0601,479.9077 551.7449,480.9744 Q552.4297,482.041 553.7744,482.041 Q554.4053,482.041 554.9988,481.7712 Q555.5923,481.5015 556.2231,480.9204 Z "/><text fill="#000000" font-family="sans-serif" font-size="12" lengthAdjust="spacingAndGlyphs" textLength="168" x="567.75" y="482.5352">ReifiedRelationshipReference</text><line style="stroke: #000000; stroke-width: 1.5;" x1="537" x2="740" y1="494" y2="494"/><text fill="#000000" font-family="sans-serif" font-size="11" lengthAdjust="spacingAndGlyphs" textLength="193" x="542" y="508.6348">relationship : ReifiedRelationship [1]</text></a><!--class RelationshipDirectionReference--><a target="_top" xlink:actuate="onRequest" xlink:href="#oml-RelationshipDirectionReference" xlink:show="new" xlink:title="#oml-RelationshipDirectionReference" xlink:type="simple"><rect fill="#FFFFFF" filter="url(#fvtamxa721f09)" height="52.9551" id="RelationshipDirectionReference" style="stroke: #000000; stroke-width: 1.5;" width="211" x="995" y="202"/><rect fill="#FFFFFF" height="32" style="stroke: #000000; stroke-width: 1.5;" width="211" x="995" y="202"/><ellipse cx="1010" cy="218" fill="#ADD1B2" rx="11" ry="11" style="stroke: #000000; stroke-width: 1.0;"/><path d="M1012.9731,223.6431 Q1012.3921,223.9419 1011.7529,224.0913 Q1011.1138,224.2407 1010.4082,224.2407 Q1007.9014,224.2407 1006.5815,222.5889 Q1005.2617,220.937 1005.2617,217.8159 Q1005.2617,214.6865 1006.5815,213.0347 Q1007.9014,211.3828 1010.4082,211.3828 Q1011.1138,211.3828 1011.7612,211.5322 Q1012.4087,211.6816 1012.9731,211.9805 L1012.9731,214.7031 Q1012.3423,214.1221 1011.7488,213.8523 Q1011.1553,213.5825 1010.5244,213.5825 Q1009.1797,213.5825 1008.4949,214.6492 Q1007.8101,215.7158 1007.8101,217.8159 Q1007.8101,219.9077 1008.4949,220.9744 Q1009.1797,222.041 1010.5244,222.041 Q1011.1553,222.041 1011.7488,221.7712 Q1012.3423,221.5015 1012.9731,220.9204 Z "/><text fill="#000000" font-family="sans-serif" font-size="12" lengthAdjust="spacingAndGlyphs" textLength="179" x="1024" y="222.5352">RelationshipDirectionReference</text><line style="stroke: #000000; stroke-width: 1.5;" x1="996" x2="1205" y1="234" y2="234"/><text fill="#000000" font-family="sans-serif" font-size="11" lengthAdjust="spacingAndGlyphs" textLength="190" x="1001" y="248.6348">direction : RelationshipDirection [1]</text></a><!--class TerminologyMemberReference--><a target="_top" xlink:actuate="onRequest" xlink:href="#oml-TerminologyMemberReference" xlink:show="new" xlink:title="#oml-TerminologyMemberReference" xlink:type="simple"><rect fill="#FFFFFF" filter="url(#fvtamxa721f09)" height="40" id="TerminologyMemberReference" style="stroke: #000000; stroke-width: 1.5;" width="209" x="996" y="101"/><rect fill="#FFFFFF" height="32" style="stroke: #000000; stroke-width: 1.5;" width="209" x="996" y="101"/><ellipse cx="1011" cy="117" fill="#A9DCDF" rx="11" ry="11" style="stroke: #000000; stroke-width: 1.0;"/><path d="M1011.1133,112.3481 L1009.9595,117.4199 L1012.2754,117.4199 Z M1009.6191,110.1069 L1012.6157,110.1069 L1015.9609,122.5 L1013.5122,122.5 L1012.7485,119.437 L1009.4697,119.437 L1008.7227,122.5 L1006.2739,122.5 Z "/><text fill="#000000" font-family="sans-serif" font-size="12" font-style="italic" lengthAdjust="spacingAndGlyphs" textLength="177" x="1025" y="121.5352">TerminologyMemberReference</text><line style="stroke: #000000; stroke-width: 1.5;" x1="997" x2="1204" y1="133" y2="133"/></a><!--class RuleReference--><a target="_top" xlink:actuate="onRequest" xlink:href="#oml-RuleReference" xlink:show="new" xlink:title="#oml-RuleReference" xlink:type="simple"><rect fill="#FFFFFF" filter="url(#fvtamxa721f09)" height="52.9551" id="RuleReference" style="stroke: #000000; stroke-width: 1.5;" width="115" x="1241" y="202"/><rect fill="#FFFFFF" height="32" style="stroke: #000000; stroke-width: 1.5;" width="115" x="1241" y="202"/><ellipse cx="1256" cy="218" fill="#ADD1B2" rx="11" ry="11" style="stroke: #000000; stroke-width: 1.0;"/><path d="M1258.9731,223.6431 Q1258.3921,223.9419 1257.7529,224.0913 Q1257.1138,224.2407 1256.4082,224.2407 Q1253.9014,224.2407 1252.5815,222.5889 Q1251.2617,220.937 1251.2617,217.8159 Q1251.2617,214.6865 1252.5815,213.0347 Q1253.9014,211.3828 1256.4082,211.3828 Q1257.1138,211.3828 1257.7612,211.5322 Q1258.4087,211.6816 1258.9731,211.9805 L1258.9731,214.7031 Q1258.3423,214.1221 1257.7488,213.8523 Q1257.1553,213.5825 1256.5244,213.5825 Q1255.1797,213.5825 1254.4949,214.6492 Q1253.8101,215.7158 1253.8101,217.8159 Q1253.8101,219.9077 1254.4949,220.9744 Q1255.1797,222.041 1256.5244,222.041 Q1257.1553,222.041 1257.7488,221.7712 Q1258.3423,221.5015 1258.9731,220.9204 Z "/><text fill="#000000" font-family="sans-serif" font-size="12" lengthAdjust="spacingAndGlyphs" textLength="83" x="1270" y="222.5352">RuleReference</text><line style="stroke: #000000; stroke-width: 1.5;" x1="1242" x2="1355" y1="234" y2="234"/><text fill="#000000" font-family="sans-serif" font-size="11" lengthAdjust="spacingAndGlyphs" textLength="71" x="1247" y="248.6348">rule : Rule [1]</text></a><!--class ScalarPropertyReference--><a target="_top" xlink:actuate="onRequest" xlink:href="#oml-ScalarPropertyReference" xlink:show="new" xlink:title="#oml-ScalarPropertyReference" xlink:type="simple"><rect fill="#FFFFFF" filter="url(#fvtamxa721f09)" height="52.9551" id="ScalarPropertyReference" style="stroke: #000000; stroke-width: 1.5;" width="173" x="425" y="332"/><rect fill="#FFFFFF" height="32" style="stroke: #000000; stroke-width: 1.5;" width="173" x="425" y="332"/><ellipse cx="440" cy="348" fill="#ADD1B2" rx="11" ry="11" style="stroke: #000000; stroke-width: 1.0;"/><path d="M442.9731,353.6431 Q442.3921,353.9419 441.7529,354.0913 Q441.1138,354.2407 440.4082,354.2407 Q437.9014,354.2407 436.5815,352.5889 Q435.2617,350.937 435.2617,347.8159 Q435.2617,344.6865 436.5815,343.0347 Q437.9014,341.3828 440.4082,341.3828 Q441.1138,341.3828 441.7612,341.5322 Q442.4087,341.6816 442.9731,341.9805 L442.9731,344.7031 Q442.3423,344.1221 441.7488,343.8523 Q441.1553,343.5825 440.5244,343.5825 Q439.1797,343.5825 438.4949,344.6492 Q437.8101,345.7158 437.8101,347.8159 Q437.8101,349.9077 438.4949,350.9744 Q439.1797,352.041 440.5244,352.041 Q441.1553,352.041 441.7488,351.7712 Q442.3423,351.5015 442.9731,350.9204 Z "/><text fill="#000000" font-family="sans-serif" font-size="12" lengthAdjust="spacingAndGlyphs" textLength="141" x="454" y="352.5352">ScalarPropertyReference</text><line style="stroke: #000000; stroke-width: 1.5;" x1="426" x2="597" y1="364" y2="364"/><text fill="#000000" font-family="sans-serif" font-size="11" lengthAdjust="spacingAndGlyphs" textLength="152" x="431" y="378.6348">property : ScalarProperty [1]</text></a><!--class ScalarRangeReference--><a target="_top" xlink:actuate="onRequest" xlink:href="#oml-ScalarRangeReference" xlink:show="new" xlink:title="#oml-ScalarRangeReference" xlink:type="simple"><rect fill="#FFFFFF" filter="url(#fvtamxa721f09)" height="52.9551" id="ScalarRangeReference" style="stroke: #000000; stroke-width: 1.5;" width="160" x="633.5" y="332"/><rect fill="#FFFFFF" height="32" style="stroke: #000000; stroke-width: 1.5;" width="160" x="633.5" y="332"/><ellipse cx="648.5" cy="348" fill="#ADD1B2" rx="11" ry="11" style="stroke: #000000; stroke-width: 1.0;"/><path d="M651.4731,353.6431 Q650.8921,353.9419 650.2529,354.0913 Q649.6138,354.2407 648.9082,354.2407 Q646.4014,354.2407 645.0815,352.5889 Q643.7617,350.937 643.7617,347.8159 Q643.7617,344.6865 645.0815,343.0347 Q646.4014,341.3828 648.9082,341.3828 Q649.6138,341.3828 650.2612,341.5322 Q650.9087,341.6816 651.4731,341.9805 L651.4731,344.7031 Q650.8423,344.1221 650.2488,343.8523 Q649.6553,343.5825 649.0244,343.5825 Q647.6797,343.5825 646.9949,344.6492 Q646.3101,345.7158 646.3101,347.8159 Q646.3101,349.9077 646.9949,350.9744 Q647.6797,352.041 649.0244,352.041 Q649.6553,352.041 650.2488,351.7712 Q650.8423,351.5015 651.4731,350.9204 Z "/><text fill="#000000" font-family="sans-serif" font-size="12" lengthAdjust="spacingAndGlyphs" textLength="128" x="662.5" y="352.5352">ScalarRangeReference</text><line style="stroke: #000000; stroke-width: 1.5;" x1="634.5" x2="792.5" y1="364" y2="364"/><text fill="#000000" font-family="sans-serif" font-size="11" lengthAdjust="spacingAndGlyphs" textLength="124" x="639.5" y="378.6348">scalar : ScalarRange [1]</text></a><!--class StructureReference--><a target="_top" xlink:actuate="onRequest" xlink:href="#oml-StructureReference" xlink:show="new" xlink:title="#oml-StructureReference" xlink:type="simple"><rect fill="#FFFFFF" filter="url(#fvtamxa721f09)" height="52.9551" id="StructureReference" style="stroke: #000000; stroke-width: 1.5;" width="141" x="829" y="332"/><rect fill="#FFFFFF" height="32" style="stroke: #000000; stroke-width: 1.5;" width="141" x="829" y="332"/><ellipse cx="844" cy="348" fill="#ADD1B2" rx="11" ry="11" style="stroke: #000000; stroke-width: 1.0;"/><path d="M846.9731,353.6431 Q846.3921,353.9419 845.7529,354.0913 Q845.1138,354.2407 844.4082,354.2407 Q841.9014,354.2407 840.5815,352.5889 Q839.2617,350.937 839.2617,347.8159 Q839.2617,344.6865 840.5815,343.0347 Q841.9014,341.3828 844.4082,341.3828 Q845.1138,341.3828 845.7612,341.5322 Q846.4087,341.6816 846.9731,341.9805 L846.9731,344.7031 Q846.3423,344.1221 845.7488,343.8523 Q845.1553,343.5825 844.5244,343.5825 Q843.1797,343.5825 842.4949,344.6492 Q841.8101,345.7158 841.8101,347.8159 Q841.8101,349.9077 842.4949,350.9744 Q843.1797,352.041 844.5244,352.041 Q845.1553,352.041 845.7488,351.7712 Q846.3423,351.5015 846.9731,350.9204 Z "/><text fill="#000000" font-family="sans-serif" font-size="12" lengthAdjust="spacingAndGlyphs" textLength="109" x="858" y="352.5352">StructureReference</text><line style="stroke: #000000; stroke-width: 1.5;" x1="830" x2="969" y1="364" y2="364"/><text fill="#000000" font-family="sans-serif" font-size="11" lengthAdjust="spacingAndGlyphs" textLength="127" x="835" y="378.6348">structure : Structure [1]</text></a><!--class StructuredPropertyReference--><a target="_top" xlink:actuate="onRequest" xlink:href="#oml-StructuredPropertyReference" xlink:show="new" xlink:title="#oml-StructuredPropertyReference" xlink:type="simple"><rect fill="#FFFFFF" filter="url(#fvtamxa721f09)" height="52.9551" id="StructuredPropertyReference" style="stroke: #000000; stroke-width: 1.5;" width="198" x="1005.5" y="332"/><rect fill="#FFFFFF" height="32" style="stroke: #000000; stroke-width: 1.5;" width="198" x="1005.5" y="332"/><ellipse cx="1020.5" cy="348" fill="#ADD1B2" rx="11" ry="11" style="stroke: #000000; stroke-width: 1.0;"/><path d="M1023.4731,353.6431 Q1022.8921,353.9419 1022.2529,354.0913 Q1021.6138,354.2407 1020.9082,354.2407 Q1018.4014,354.2407 1017.0815,352.5889 Q1015.7617,350.937 1015.7617,347.8159 Q1015.7617,344.6865 1017.0815,343.0347 Q1018.4014,341.3828 1020.9082,341.3828 Q1021.6138,341.3828 1022.2612,341.5322 Q1022.9087,341.6816 1023.4731,341.9805 L1023.4731,344.7031 Q1022.8423,344.1221 1022.2488,343.8523 Q1021.6553,343.5825 1021.0244,343.5825 Q1019.6797,343.5825 1018.9949,344.6492 Q1018.3101,345.7158 1018.3101,347.8159 Q1018.3101,349.9077 1018.9949,350.9744 Q1019.6797,352.041 1021.0244,352.041 Q1021.6553,352.041 1022.2488,351.7712 Q1022.8423,351.5015 1023.4731,350.9204 Z "/><text fill="#000000" font-family="sans-serif" font-size="12" lengthAdjust="spacingAndGlyphs" textLength="166" x="1034.5" y="352.5352">StructuredPropertyReference</text><line style="stroke: #000000; stroke-width: 1.5;" x1="1006.5" x2="1202.5" y1="364" y2="364"/><text fill="#000000" font-family="sans-serif" font-size="11" lengthAdjust="spacingAndGlyphs" textLength="177" x="1011.5" y="378.6348">property : StructuredProperty [1]</text></a><!--class TermSpecializationAxiom--><a target="_top" xlink:actuate="onRequest" xlink:href="#oml-TermSpecializationAxiom" xlink:show="new" xlink:title="#oml-TermSpecializationAxiom" xlink:type="simple"><rect fill="#D3D3D3" filter="url(#fvtamxa721f09)" height="32" id="TermSpecializationAxiom" style="stroke: #000000; stroke-width: 1.5;" width="177" x="1239" y="342.5"/><ellipse cx="1254" cy="358.5" fill="#ADD1B2" rx="11" ry="11" style="stroke: #000000; stroke-width: 1.0;"/><path d="M1256.9731,364.1431 Q1256.3921,364.4419 1255.7529,364.5913 Q1255.1138,364.7407 1254.4082,364.7407 Q1251.9014,364.7407 1250.5815,363.0889 Q1249.2617,361.437 1249.2617,358.3159 Q1249.2617,355.1865 1250.5815,353.5347 Q1251.9014,351.8828 1254.4082,351.8828 Q1255.1138,351.8828 1255.7612,352.0322 Q1256.4087,352.1816 1256.9731,352.4805 L1256.9731,355.2031 Q1256.3423,354.6221 1255.7488,354.3523 Q1255.1553,354.0825 1254.5244,354.0825 Q1253.1797,354.0825 1252.4949,355.1492 Q1251.8101,356.2158 1251.8101,358.3159 Q1251.8101,360.4077 1252.4949,361.4744 Q1253.1797,362.541 1254.5244,362.541 Q1255.1553,362.541 1255.7488,362.2712 Q1256.3423,362.0015 1256.9731,361.4204 Z "/><text fill="#000000" font-family="sans-serif" font-size="12" lengthAdjust="spacingAndGlyphs" textLength="145" x="1268" y="363.0352">TermSpecializationAxiom</text></a><!--class GraphMemberReference--><a target="_top" xlink:actuate="onRequest" xlink:href="#oml-GraphMemberReference" xlink:show="new" xlink:title="#oml-GraphMemberReference" xlink:type="simple"><rect fill="#D3D3D3" filter="url(#fvtamxa721f09)" height="32" id="GraphMemberReference" style="stroke: #000000; stroke-width: 1.5;" width="174" x="1114.5" y="8"/><ellipse cx="1129.5" cy="24" fill="#A9DCDF" rx="11" ry="11" style="stroke: #000000; stroke-width: 1.0;"/><path d="M1129.6133,19.3481 L1128.4595,24.4199 L1130.7754,24.4199 Z M1128.1191,17.1069 L1131.1157,17.1069 L1134.4609,29.5 L1132.0122,29.5 L1131.2485,26.437 L1127.9697,26.437 L1127.2227,29.5 L1124.7739,29.5 Z "/><text fill="#000000" font-family="sans-serif" font-size="12" font-style="italic" lengthAdjust="spacingAndGlyphs" textLength="142" x="1143.5" y="28.5352">GraphMemberReference</text></a><!--class TerminologyStatement--><a target="_top" xlink:actuate="onRequest" xlink:href="#oml-TerminologyStatement" xlink:show="new" xlink:title="#oml-TerminologyStatement" xlink:type="simple"><rect fill="#D3D3D3" filter="url(#fvtamxa721f09)" height="32" id="TerminologyStatement" style="stroke: #000000; stroke-width: 1.5;" width="160" x="919.5" y="8"/><ellipse cx="934.5" cy="24" fill="#A9DCDF" rx="11" ry="11" style="stroke: #000000; stroke-width: 1.0;"/><path d="M934.6133,19.3481 L933.4595,24.4199 L935.7754,24.4199 Z M933.1191,17.1069 L936.1157,17.1069 L939.4609,29.5 L937.0122,29.5 L936.2485,26.437 L932.9697,26.437 L932.2227,29.5 L929.7739,29.5 Z "/><text fill="#000000" font-family="sans-serif" font-size="12" font-style="italic" lengthAdjust="spacingAndGlyphs" textLength="128" x="948.5" y="28.5352">TerminologyStatement</text></a><!--class UnreifiedRelationshipReference--><a target="_top" xlink:actuate="onRequest" xlink:href="#oml-UnreifiedRelationshipReference" xlink:show="new" xlink:title="#oml-UnreifiedRelationshipReference" xlink:type="simple"><rect fill="#FFFFFF" filter="url(#fvtamxa721f09)" height="52.9551" id="UnreifiedRelationshipReference" style="stroke: #000000; stroke-width: 1.5;" width="218" x="1451.5" y="332"/><rect fill="#FFFFFF" height="32" style="stroke: #000000; stroke-width: 1.5;" width="218" x="1451.5" y="332"/><ellipse cx="1469.2" cy="348" fill="#ADD1B2" rx="11" ry="11" style="stroke: #000000; stroke-width: 1.0;"/><path d="M1472.1731,353.6431 Q1471.5921,353.9419 1470.9529,354.0913 Q1470.3138,354.2407 1469.6082,354.2407 Q1467.1014,354.2407 1465.7815,352.5889 Q1464.4617,350.937 1464.4617,347.8159 Q1464.4617,344.6865 1465.7815,343.0347 Q1467.1014,341.3828 1469.6082,341.3828 Q1470.3138,341.3828 1470.9612,341.5322 Q1471.6087,341.6816 1472.1731,341.9805 L1472.1731,344.7031 Q1471.5423,344.1221 1470.9488,343.8523 Q1470.3553,343.5825 1469.7244,343.5825 Q1468.3797,343.5825 1467.6949,344.6492 Q1467.0101,345.7158 1467.0101,347.8159 Q1467.0101,349.9077 1467.6949,350.9744 Q1468.3797,352.041 1469.7244,352.041 Q1470.3553,352.041 1470.9488,351.7712 Q1471.5423,351.5015 1472.1731,350.9204 Z "/><text fill="#000000" font-family="sans-serif" font-size="12" lengthAdjust="spacingAndGlyphs" textLength="180" x="1483.8" y="352.5352">UnreifiedRelationshipReference</text><line style="stroke: #000000; stroke-width: 1.5;" x1="1452.5" x2="1668.5" y1="364" y2="364"/><text fill="#000000" font-family="sans-serif" font-size="11" lengthAdjust="spacingAndGlyphs" textLength="206" x="1457.5" y="378.6348">relationship : UnreifiedRelationship [1]</text></a><!--link EntityReference to AspectReference--><a target="_top" xlink:actuate="onRequest" xlink:href="#oml-EntityReference" xlink:show="new" xlink:title="#oml-EntityReference" xlink:type="simple"><path d="M271.6886,387.5173 C227.3252,409.7846 166.5734,440.2778 123.4666,461.9145 " fill="none" id="EntityReference-AspectReference" style="stroke: #000000; stroke-width: 1.0;"/><polygon fill="none" points="268.584,381.2434,289.5989,378.5276,274.8643,393.7557,268.584,381.2434" style="stroke: #000000; stroke-width: 1.0;"/></a><!--link EntityReference to ConceptReference--><a target="_top" xlink:actuate="onRequest" xlink:href="#oml-EntityReference" xlink:show="new" xlink:title="#oml-EntityReference" xlink:type="simple"><path d="M303.9941,394.9369 C289.098,416.2172 270.6328,442.596 257.1099,461.9145 " fill="none" id="EntityReference-ConceptReference" style="stroke: #000000; stroke-width: 1.0;"/><polygon fill="none" points="298.2768,390.898,315.4807,378.5276,309.746,398.9265,298.2768,390.898" style="stroke: #000000; stroke-width: 1.0;"/></a><!--link TermReference to EntityReference--><a target="_top" xlink:actuate="onRequest" xlink:href="#oml-TermReference" xlink:show="new" xlink:title="#oml-TermReference" xlink:type="simple"><path d="M818.9401,242.3723 C720.91,259.9569 550.7362,292.7549 407.5,332 C400.4653,333.9274 393.1378,336.1386 385.9134,338.444 " fill="none" id="TermReference-EntityReference" style="stroke: #000000; stroke-width: 1.0;"/><polygon fill="none" points="817.8114,235.4633,838.728,238.854,820.2623,249.2471,817.8114,235.4633" style="stroke: #000000; stroke-width: 1.0;"/></a><!--link EntityReference to EntityRestrictionAxiom--><path d="M351.3235,389.3376 C366.8795,411.3189 387.5887,440.5819 402.4727,461.6136 " fill="none" id="EntityReference-EntityRestrictionAxiom" style="stroke: #000000; stroke-width: 1.0;"/><polygon fill="#000000" points="410.0725,472.3525,408.1386,462.6954,407.1842,468.2711,401.6084,467.3167,410.0725,472.3525" style="stroke: #000000; stroke-width: 1.0;"/><line style="stroke: #000000; stroke-width: 1.0;" x1="407.1842" x2="402.5628" y1="468.2711" y2="461.7409"/><polygon fill="#000000" points="343.6734,378.5276,343.8744,385.7359,350.6055,388.3228,350.4045,381.1145,343.6734,378.5276" style="stroke: #000000; stroke-width: 1.0;"/><text fill="#000000" font-family="sans-serif" font-size="13" lengthAdjust="spacingAndGlyphs" textLength="72" x="382.5" y="428.5684">restrictions</text><text fill="#000000" font-family="sans-serif" font-size="13" lengthAdjust="spacingAndGlyphs" textLength="6" x="399.113" y="461.8454">*</text><!--link EntityReference to ReifiedRelationshipReference--><a target="_top" xlink:actuate="onRequest" xlink:href="#oml-EntityReference" xlink:show="new" xlink:title="#oml-EntityReference" xlink:type="simple"><path d="M395.6554,386.3324 C448.8043,408.6928 522.9612,439.8914 575.3082,461.9145 " fill="none" id="EntityReference-ReifiedRelationshipReference" style="stroke: #000000; stroke-width: 1.0;"/><polygon fill="none" points="392.8245,392.7357,377.1041,378.5276,398.2536,379.8312,392.8245,392.7357" style="stroke: #000000; stroke-width: 1.0;"/></a><!--link TerminologyMemberReference to RelationshipDirectionReference--><a target="_top" xlink:actuate="onRequest" xlink:href="#oml-TerminologyMemberReference" xlink:show="new" xlink:title="#oml-TerminologyMemberReference" xlink:type="simple"><path d="M1100.5,161.5322 C1100.5,175.0251 1100.5,189.7027 1100.5,201.8687 " fill="none" id="TerminologyMemberReference-RelationshipDirectionReference" style="stroke: #000000; stroke-width: 1.0;"/><polygon fill="none" points="1093.5001,161.22,1100.5,141.2199,1107.5001,161.2199,1093.5001,161.22" style="stroke: #000000; stroke-width: 1.0;"/></a><!--link TerminologyMemberReference to RuleReference--><a target="_top" xlink:actuate="onRequest" xlink:href="#oml-TerminologyMemberReference" xlink:show="new" xlink:title="#oml-TerminologyMemberReference" xlink:type="simple"><path d="M1155.5605,150.894 C1185.0097,166.8828 1220.9663,186.4047 1249.4489,201.8687 " fill="none" id="TerminologyMemberReference-RuleReference" style="stroke: #000000; stroke-width: 1.0;"/><polygon fill="none" points="1151.9788,156.9146,1137.7423,141.2199,1158.6588,144.611,1151.9788,156.9146" style="stroke: #000000; stroke-width: 1.0;"/></a><!--link TermReference to ScalarPropertyReference--><a target="_top" xlink:actuate="onRequest" xlink:href="#oml-TermReference" xlink:show="new" xlink:title="#oml-TermReference" xlink:type="simple"><path d="M820.3513,255.0189 C753.3802,277.4577 657.8752,309.4568 590.8476,331.9145 " fill="none" id="TermReference-ScalarPropertyReference" style="stroke: #000000; stroke-width: 1.0;"/><polygon fill="none" points="818.5376,248.2442,839.7253,248.5276,822.9853,261.5189,818.5376,248.2442" style="stroke: #000000; stroke-width: 1.0;"/></a><!--link TermReference to ScalarRangeReference--><a target="_top" xlink:actuate="onRequest" xlink:href="#oml-TermReference" xlink:show="new" xlink:title="#oml-TermReference" xlink:type="simple"><path d="M854.0873,260.24 C822.6381,282.2207 781.251,311.1471 751.5378,331.9145 " fill="none" id="TermReference-ScalarRangeReference" style="stroke: #000000; stroke-width: 1.0;"/><polygon fill="none" points="850.4421,254.2475,870.8451,248.5276,858.4623,265.7226,850.4421,254.2475" style="stroke: #000000; stroke-width: 1.0;"/></a><!--link TermReference to StructureReference--><a target="_top" xlink:actuate="onRequest" xlink:href="#oml-TermReference" xlink:show="new" xlink:title="#oml-TermReference" xlink:type="simple"><path d="M899.5,268.8198 C899.5,289.3572 899.5,313.7551 899.5,331.9145 " fill="none" id="TermReference-StructureReference" style="stroke: #000000; stroke-width: 1.0;"/><polygon fill="none" points="892.5001,268.5276,899.5,248.5276,906.5001,268.5276,892.5001,268.5276" style="stroke: #000000; stroke-width: 1.0;"/></a><!--link TermReference to StructuredPropertyReference--><a target="_top" xlink:actuate="onRequest" xlink:href="#oml-TermReference" xlink:show="new" xlink:title="#oml-TermReference" xlink:type="simple"><path d="M948.1071,259.324 C982.9379,281.4118 1029.3712,310.8574 1062.5766,331.9145 " fill="none" id="TermReference-StructuredPropertyReference" style="stroke: #000000; stroke-width: 1.0;"/><polygon fill="none" points="944.2234,265.1501,931.082,248.5276,951.721,253.3269,944.2234,265.1501" style="stroke: #000000; stroke-width: 1.0;"/></a><!--link TerminologyMemberReference to TermReference--><a target="_top" xlink:actuate="onRequest" xlink:href="#oml-TerminologyMemberReference" xlink:show="new" xlink:title="#oml-TerminologyMemberReference" xlink:type="simple"><path d="M1044.6806,150.8537 C1010.3997,169.1879 967.4104,192.1798 937.137,208.3707 " fill="none" id="TerminologyMemberReference-TermReference" style="stroke: #000000; stroke-width: 1.0;"/><polygon fill="none" points="1041.756,144.4796,1062.6934,141.2199,1048.3586,156.8249,1041.756,144.4796" style="stroke: #000000; stroke-width: 1.0;"/></a><!--link TermReference to TermSpecializationAxiom--><path d="M970.1926,252.6558 C972.6562,253.4535 975.0975,254.237 977.5,255 C1074.2937,285.7406 1187.0759,318.5581 1257.8868,338.8025 " fill="none" id="TermReference-TermSpecializationAxiom" style="stroke: #000000; stroke-width: 1.0;"/><polygon fill="#000000" points="1270.607,342.433,1263.0505,336.1165,1265.799,341.0607,1260.8548,343.8093,1270.607,342.433" style="stroke: #000000; stroke-width: 1.0;"/><line style="stroke: #000000; stroke-width: 1.0;" x1="1265.799" x2="1258.1062" y1="341.0607" y2="338.8651"/><polygon fill="#000000" points="957.7678,248.5799,962.2221,254.2508,969.1699,252.3204,964.7157,246.6494,957.7678,248.5799" style="stroke: #000000; stroke-width: 1.0;"/><text fill="#000000" font-family="sans-serif" font-size="13" lengthAdjust="spacingAndGlyphs" textLength="94" x="1132.5" y="298.5684">specializations</text><text fill="#000000" font-family="sans-serif" font-size="13" lengthAdjust="spacingAndGlyphs" textLength="6" x="1243.2701" y="331.6609">*</text><!--link GraphMemberReference to TerminologyMemberReference--><a target="_top" xlink:actuate="onRequest" xlink:href="#oml-GraphMemberReference" xlink:show="new" xlink:title="#oml-GraphMemberReference" xlink:type="simple"><path d="M1170.2293,54.0323 C1154.3571,69.2758 1135.5057,87.3806 1121.4081,100.9199 " fill="none" id="GraphMemberReference-TerminologyMemberReference" style="stroke: #000000; stroke-width: 1.0;"/><polygon fill="none" points="1165.5482,48.8225,1184.8219,40.0176,1175.2458,58.9199,1165.5482,48.8225" style="stroke: #000000; stroke-width: 1.0;"/></a><!--link TerminologyStatement to TerminologyMemberReference--><a target="_top" xlink:actuate="onRequest" xlink:href="#oml-TerminologyStatement" xlink:show="new" xlink:title="#oml-TerminologyStatement" xlink:type="simple"><path d="M1030.7707,54.0323 C1046.6429,69.2758 1065.4943,87.3806 1079.5919,100.9199 " fill="none" id="TerminologyStatement-TerminologyMemberReference" style="stroke: #000000; stroke-width: 1.0;"/><polygon fill="none" points="1025.7542,58.9199,1016.1781,40.0176,1035.4518,48.8225,1025.7542,58.9199" style="stroke: #000000; stroke-width: 1.0;"/></a><!--link TermReference to UnreifiedRelationshipReference--><a target="_top" xlink:actuate="onRequest" xlink:href="#oml-TermReference" xlink:show="new" xlink:title="#oml-TermReference" xlink:type="simple"><path d="M973.0753,253.9592 C974.559,254.3223 976.035,254.6699 977.5,255 C1090.1156,280.3763 1121.707,265.5737 1235.5,285 C1309.9157,297.7039 1392.9171,316.5556 1456.4131,331.9859 " fill="none" id="TermReference-UnreifiedRelationshipReference" style="stroke: #000000; stroke-width: 1.0;"/><polygon fill="none" points="971.0085,260.6499,953.6294,248.5269,974.7753,247.1661,971.0085,260.6499" style="stroke: #000000; stroke-width: 1.0;"/></a><!--
@startuml
skinparam classBackgroundColor LightGray
skinparam classBorderColor Black
skinparam enumBorderColor Black
skinparam ArrowColor Black
hide methods
class AspectReference [[#oml-AspectReference]] #white {
	aspect : Aspect [1]
}
AspectReference -up-|> EntityReference [[#oml-EntityReference]]
class ConceptReference [[#oml-ConceptReference]] #white {
	concept : Concept [1]
}
ConceptReference -up-|> EntityReference [[#oml-EntityReference]]
abstract class EntityReference [[#oml-EntityReference]] #white {
}
abstract class EntityRestrictionAxiom [[#oml-EntityRestrictionAxiom]]
hide EntityRestrictionAxiom members
EntityReference -up-|> TermReference [[#oml-TermReference]]
EntityReference *- -> "*" EntityRestrictionAxiom : restrictions
class ReifiedRelationshipReference [[#oml-ReifiedRelationshipReference]] #white {
	relationship : ReifiedRelationship [1]
}
ReifiedRelationshipReference -up-|> EntityReference [[#oml-EntityReference]]
class RelationshipDirectionReference [[#oml-RelationshipDirectionReference]] #white {
	direction : RelationshipDirection [1]
}
RelationshipDirectionReference -up-|> TerminologyMemberReference [[#oml-TerminologyMemberReference]]
class RuleReference [[#oml-RuleReference]] #white {
	rule : Rule [1]
}
RuleReference -up-|> TerminologyMemberReference [[#oml-TerminologyMemberReference]]
class ScalarPropertyReference [[#oml-ScalarPropertyReference]] #white {
	property : ScalarProperty [1]
}
ScalarPropertyReference -up-|> TermReference [[#oml-TermReference]]
class ScalarRangeReference [[#oml-ScalarRangeReference]] #white {
	scalar : ScalarRange [1]
}
ScalarRangeReference -up-|> TermReference [[#oml-TermReference]]
class StructureReference [[#oml-StructureReference]] #white {
	structure : Structure [1]
}
StructureReference -up-|> TermReference [[#oml-TermReference]]
class StructuredPropertyReference [[#oml-StructuredPropertyReference]] #white {
	property : StructuredProperty [1]
}
StructuredPropertyReference -up-|> TermReference [[#oml-TermReference]]
abstract class TermReference [[#oml-TermReference]] #white {
}
class TermSpecializationAxiom [[#oml-TermSpecializationAxiom]]
hide TermSpecializationAxiom members
TermReference -up-|> TerminologyMemberReference [[#oml-TerminologyMemberReference]]
TermReference *- -> "*" TermSpecializationAxiom : specializations
abstract class TerminologyMemberReference [[#oml-TerminologyMemberReference]] #white {
}
abstract class GraphMemberReference [[#oml-GraphMemberReference]]
hide GraphMemberReference members
abstract class TerminologyStatement [[#oml-TerminologyStatement]]
hide TerminologyStatement members
TerminologyMemberReference -up-|> GraphMemberReference [[#oml-GraphMemberReference]]
TerminologyMemberReference -up-|> TerminologyStatement [[#oml-TerminologyStatement]]
class UnreifiedRelationshipReference [[#oml-UnreifiedRelationshipReference]] #white {
	relationship : UnreifiedRelationship [1]
}
UnreifiedRelationshipReference -up-|> TermReference [[#oml-TermReference]]
@enduml

PlantUML version 1.2019.00(Sun Jan 13 07:46:42 PST 2019)
(GPL source distribution)
Java Runtime: Java(TM) SE Runtime Environment
JVM: Java HotSpot(TM) 64-Bit Server VM
Java Version: 1.8.0_181-b13
Operating System: Mac OS X
OS Version: 10.13.6
Default Encoding: UTF-8
Language: en
Country: US
--></g></svg>