<?xml version="1.0" encoding="UTF-8" standalone="no"?><svg xmlns="http://www.w3.org/2000/svg" xmlns:xlink="http://www.w3.org/1999/xlink" contentScriptType="application/ecmascript" contentStyleType="text/css" height="518px" preserveAspectRatio="none" style="width:658px;height:518px;" version="1.1" viewBox="0 0 658 518" width="658px" zoomAndPan="magnify"><defs><filter height="300%" id="fa7jj84q5zoz" width="300%" x="-1" y="-1"><feGaussianBlur result="blurOut" stdDeviation="2.0"/><feColorMatrix in="blurOut" result="blurOut2" type="matrix" values="0 0 0 0 0 0 0 0 0 0 0 0 0 0 0 0 0 0 .4 0"/><feOffset dx="4.0" dy="4.0" in="blurOut2" result="blurOut3"/><feBlend in="SourceGraphic" in2="blurOut3" mode="normal"/></filter></defs><g><!--class ConceptInstance--><a target="_top" xlink:actuate="onRequest" xlink:href="#oml-ConceptInstance" xlink:show="new" xlink:title="#oml-ConceptInstance" xlink:type="simple"><rect fill="#FFFFFF" filter="url(#fa7jj84q5zoz)" height="40" id="ConceptInstance" style="stroke: #000000; stroke-width: 1.5;" width="126" x="6" y="345"/><rect fill="#FFFFFF" height="32" style="stroke: #000000; stroke-width: 1.5;" width="126" x="6" y="345"/><ellipse cx="21" cy="361" fill="#ADD1B2" rx="11" ry="11" style="stroke: #000000; stroke-width: 1.0;"/><path d="M23.9731,366.6431 Q23.3921,366.9419 22.7529,367.0913 Q22.1138,367.2407 21.4082,367.2407 Q18.9014,367.2407 17.5815,365.5889 Q16.2617,363.937 16.2617,360.8159 Q16.2617,357.6865 17.5815,356.0347 Q18.9014,354.3828 21.4082,354.3828 Q22.1138,354.3828 22.7612,354.5322 Q23.4087,354.6816 23.9731,354.9805 L23.9731,357.7031 Q23.3423,357.1221 22.7488,356.8523 Q22.1553,356.5825 21.5244,356.5825 Q20.1797,356.5825 19.4949,357.6492 Q18.8101,358.7158 18.8101,360.8159 Q18.8101,362.9077 19.4949,363.9744 Q20.1797,365.041 21.5244,365.041 Q22.1553,365.041 22.7488,364.7712 Q23.3423,364.5015 23.9731,363.9204 Z "/><text fill="#000000" font-family="sans-serif" font-size="12" lengthAdjust="spacingAndGlyphs" textLength="94" x="35" y="365.5352">ConceptInstance</text><line style="stroke: #000000; stroke-width: 1.5;" x1="7" x2="131" y1="377" y2="377"/></a><!--class Assertion--><a target="_top" xlink:actuate="onRequest" xlink:href="#oml-Assertion" xlink:show="new" xlink:title="#oml-Assertion" xlink:type="simple"><rect fill="#D3D3D3" filter="url(#fa7jj84q5zoz)" height="32" id="Assertion" style="stroke: #000000; stroke-width: 1.5;" width="85" x="21.5" y="475"/><ellipse cx="36.5" cy="491" fill="#A9DCDF" rx="11" ry="11" style="stroke: #000000; stroke-width: 1.0;"/><path d="M36.6133,486.3481 L35.4595,491.4199 L37.7754,491.4199 Z M35.1191,484.1069 L38.1157,484.1069 L41.4609,496.5 L39.0122,496.5 L38.2485,493.437 L34.9697,493.437 L34.2227,496.5 L31.7739,496.5 Z "/><text fill="#000000" font-family="sans-serif" font-size="12" font-style="italic" lengthAdjust="spacingAndGlyphs" textLength="53" x="50.5" y="495.5352">Assertion</text></a><!--class NamedInstance--><a target="_top" xlink:actuate="onRequest" xlink:href="#oml-NamedInstance" xlink:show="new" xlink:title="#oml-NamedInstance" xlink:type="simple"><rect fill="#FFFFFF" filter="url(#fa7jj84q5zoz)" height="40" id="NamedInstance" style="stroke: #000000; stroke-width: 1.5;" width="121" x="104.5" y="224.5"/><rect fill="#FFFFFF" height="32" style="stroke: #000000; stroke-width: 1.5;" width="121" x="104.5" y="224.5"/><ellipse cx="119.5" cy="240.5" fill="#A9DCDF" rx="11" ry="11" style="stroke: #000000; stroke-width: 1.0;"/><path d="M119.6133,235.8481 L118.4595,240.9199 L120.7754,240.9199 Z M118.1191,233.6069 L121.1157,233.6069 L124.4609,246 L122.0122,246 L121.2485,242.937 L117.9697,242.937 L117.2227,246 L114.7739,246 Z "/><text fill="#000000" font-family="sans-serif" font-size="12" font-style="italic" lengthAdjust="spacingAndGlyphs" textLength="89" x="133.5" y="245.0352">NamedInstance</text><line style="stroke: #000000; stroke-width: 1.5;" x1="105.5" x2="224.5" y1="256.5" y2="256.5"/></a><!--class Instance--><a target="_top" xlink:actuate="onRequest" xlink:href="#oml-Instance" xlink:show="new" xlink:title="#oml-Instance" xlink:type="simple"><rect fill="#FFFFFF" filter="url(#fa7jj84q5zoz)" height="40" id="Instance" style="stroke: #000000; stroke-width: 1.5;" width="79" x="327.5" y="101"/><rect fill="#FFFFFF" height="32" style="stroke: #000000; stroke-width: 1.5;" width="79" x="327.5" y="101"/><ellipse cx="342.5" cy="117" fill="#A9DCDF" rx="11" ry="11" style="stroke: #000000; stroke-width: 1.0;"/><path d="M342.6133,112.3481 L341.4595,117.4199 L343.7754,117.4199 Z M341.1191,110.1069 L344.1157,110.1069 L347.4609,122.5 L345.0122,122.5 L344.2485,119.437 L340.9697,119.437 L340.2227,122.5 L337.7739,122.5 Z "/><text fill="#000000" font-family="sans-serif" font-size="12" font-style="italic" lengthAdjust="spacingAndGlyphs" textLength="47" x="356.5" y="121.5352">Instance</text><line style="stroke: #000000; stroke-width: 1.5;" x1="328.5" x2="405.5" y1="133" y2="133"/></a><!--class Element--><a target="_top" xlink:actuate="onRequest" xlink:href="#oml-Element" xlink:show="new" xlink:title="#oml-Element" xlink:type="simple"><rect fill="#D3D3D3" filter="url(#fa7jj84q5zoz)" height="32" id="Element" style="stroke: #000000; stroke-width: 1.5;" width="78" x="328" y="8"/><ellipse cx="343" cy="24" fill="#A9DCDF" rx="11" ry="11" style="stroke: #000000; stroke-width: 1.0;"/><path d="M343.1133,19.3481 L341.9595,24.4199 L344.2754,24.4199 Z M341.6191,17.1069 L344.6157,17.1069 L347.9609,29.5 L345.5122,29.5 L344.7485,26.437 L341.4697,26.437 L340.7227,29.5 L338.2739,29.5 Z "/><text fill="#000000" font-family="sans-serif" font-size="12" font-style="italic" lengthAdjust="spacingAndGlyphs" textLength="46" x="357" y="28.5352">Element</text></a><!--class InstancePropertyValueAssertion--><a target="_top" xlink:actuate="onRequest" xlink:href="#oml-InstancePropertyValueAssertion" xlink:show="new" xlink:title="#oml-InstancePropertyValueAssertion" xlink:type="simple"><rect fill="#D3D3D3" filter="url(#fa7jj84q5zoz)" height="32" id="InstancePropertyValueAssertion" style="stroke: #000000; stroke-width: 1.5;" width="213" x="260.5" y="228.5"/><ellipse cx="275.5" cy="244.5" fill="#A9DCDF" rx="11" ry="11" style="stroke: #000000; stroke-width: 1.0;"/><path d="M275.6133,239.8481 L274.4595,244.9199 L276.7754,244.9199 Z M274.1191,237.6069 L277.1157,237.6069 L280.4609,250 L278.0122,250 L277.2485,246.937 L273.9697,246.937 L273.2227,250 L270.7739,250 Z "/><text fill="#000000" font-family="sans-serif" font-size="12" font-style="italic" lengthAdjust="spacingAndGlyphs" textLength="181" x="289.5" y="249.0352">InstancePropertyValueAssertion</text></a><!--class DescriptionMember--><a target="_top" xlink:actuate="onRequest" xlink:href="#oml-DescriptionMember" xlink:show="new" xlink:title="#oml-DescriptionMember" xlink:type="simple"><rect fill="#D3D3D3" filter="url(#fa7jj84q5zoz)" height="32" id="DescriptionMember" style="stroke: #000000; stroke-width: 1.5;" width="145" x="92.5" y="105"/><ellipse cx="107.5" cy="121" fill="#A9DCDF" rx="11" ry="11" style="stroke: #000000; stroke-width: 1.0;"/><path d="M107.6133,116.3481 L106.4595,121.4199 L108.7754,121.4199 Z M106.1191,114.1069 L109.1157,114.1069 L112.4609,126.5 L110.0122,126.5 L109.2485,123.437 L105.9697,123.437 L105.2227,126.5 L102.7739,126.5 Z "/><text fill="#000000" font-family="sans-serif" font-size="12" font-style="italic" lengthAdjust="spacingAndGlyphs" textLength="113" x="121.5" y="125.5352">DescriptionMember</text></a><!--class ReifiedRelationshipInstance--><a target="_top" xlink:actuate="onRequest" xlink:href="#oml-ReifiedRelationshipInstance" xlink:show="new" xlink:title="#oml-ReifiedRelationshipInstance" xlink:type="simple"><rect fill="#FFFFFF" filter="url(#fa7jj84q5zoz)" height="65.9102" id="ReifiedRelationshipInstance" style="stroke: #000000; stroke-width: 1.5;" width="189" x="177.5" y="332"/><rect fill="#FFFFFF" height="32" style="stroke: #000000; stroke-width: 1.5;" width="189" x="177.5" y="332"/><ellipse cx="192.5" cy="348" fill="#ADD1B2" rx="11" ry="11" style="stroke: #000000; stroke-width: 1.0;"/><path d="M195.4731,353.6431 Q194.8921,353.9419 194.2529,354.0913 Q193.6138,354.2407 192.9082,354.2407 Q190.4014,354.2407 189.0815,352.5889 Q187.7617,350.937 187.7617,347.8159 Q187.7617,344.6865 189.0815,343.0347 Q190.4014,341.3828 192.9082,341.3828 Q193.6138,341.3828 194.2612,341.5322 Q194.9087,341.6816 195.4731,341.9805 L195.4731,344.7031 Q194.8423,344.1221 194.2488,343.8523 Q193.6553,343.5825 193.0244,343.5825 Q191.6797,343.5825 190.9949,344.6492 Q190.3101,345.7158 190.3101,347.8159 Q190.3101,349.9077 190.9949,350.9744 Q191.6797,352.041 193.0244,352.041 Q193.6553,352.041 194.2488,351.7712 Q194.8423,351.5015 195.4731,350.9204 Z "/><text fill="#000000" font-family="sans-serif" font-size="12" lengthAdjust="spacingAndGlyphs" textLength="157" x="206.5" y="352.5352">ReifiedRelationshipInstance</text><line style="stroke: #000000; stroke-width: 1.5;" x1="178.5" x2="365.5" y1="364" y2="364"/><text fill="#000000" font-family="sans-serif" font-size="11" lengthAdjust="spacingAndGlyphs" textLength="146" x="183.5" y="378.6348">source : NamedInstance [1]</text><text fill="#000000" font-family="sans-serif" font-size="11" lengthAdjust="spacingAndGlyphs" textLength="141" x="183.5" y="391.5898">target : NamedInstance [1]</text></a><!--class ReifiedRelationshipInstanceTypeAssertion--><a target="_top" xlink:actuate="onRequest" xlink:href="#oml-ReifiedRelationshipInstanceTypeAssertion" xlink:show="new" xlink:title="#oml-ReifiedRelationshipInstanceTypeAssertion" xlink:type="simple"><rect fill="#D3D3D3" filter="url(#fa7jj84q5zoz)" height="32" id="ReifiedRelationshipInstanceTypeAssertion" style="stroke: #000000; stroke-width: 1.5;" width="271" x="141.5" y="475"/><ellipse cx="156.5" cy="491" fill="#ADD1B2" rx="11" ry="11" style="stroke: #000000; stroke-width: 1.0;"/><path d="M159.4731,496.6431 Q158.8921,496.9419 158.2529,497.0913 Q157.6138,497.2407 156.9082,497.2407 Q154.4014,497.2407 153.0815,495.5889 Q151.7617,493.937 151.7617,490.8159 Q151.7617,487.6865 153.0815,486.0347 Q154.4014,484.3828 156.9082,484.3828 Q157.6138,484.3828 158.2612,484.5322 Q158.9087,484.6816 159.4731,484.9805 L159.4731,487.7031 Q158.8423,487.1221 158.2488,486.8523 Q157.6553,486.5825 157.0244,486.5825 Q155.6797,486.5825 154.9949,487.6492 Q154.3101,488.7158 154.3101,490.8159 Q154.3101,492.9077 154.9949,493.9744 Q155.6797,495.041 157.0244,495.041 Q157.6553,495.041 158.2488,494.7712 Q158.8423,494.5015 159.4731,493.9204 Z "/><text fill="#000000" font-family="sans-serif" font-size="12" lengthAdjust="spacingAndGlyphs" textLength="239" x="170.5" y="495.5352">ReifiedRelationshipInstanceTypeAssertion</text></a><!--class StructureInstance--><a target="_top" xlink:actuate="onRequest" xlink:href="#oml-StructureInstance" xlink:show="new" xlink:title="#oml-StructureInstance" xlink:type="simple"><rect fill="#FFFFFF" filter="url(#fa7jj84q5zoz)" height="52.9551" id="StructureInstance" style="stroke: #000000; stroke-width: 1.5;" width="139" x="508.5" y="218"/><rect fill="#FFFFFF" height="32" style="stroke: #000000; stroke-width: 1.5;" width="139" x="508.5" y="218"/><ellipse cx="527.55" cy="234" fill="#ADD1B2" rx="11" ry="11" style="stroke: #000000; stroke-width: 1.0;"/><path d="M530.5231,239.6431 Q529.9421,239.9419 529.3029,240.0913 Q528.6638,240.2407 527.9582,240.2407 Q525.4514,240.2407 524.1315,238.5889 Q522.8117,236.937 522.8117,233.8159 Q522.8117,230.6865 524.1315,229.0347 Q525.4514,227.3828 527.9582,227.3828 Q528.6638,227.3828 529.3112,227.5322 Q529.9587,227.6816 530.5231,227.9805 L530.5231,230.7031 Q529.8923,230.1221 529.2988,229.8523 Q528.7053,229.5825 528.0744,229.5825 Q526.7297,229.5825 526.0449,230.6492 Q525.3601,231.7158 525.3601,233.8159 Q525.3601,235.9077 526.0449,236.9744 Q526.7297,238.041 528.0744,238.041 Q528.7053,238.041 529.2988,237.7712 Q529.8923,237.5015 530.5231,236.9204 Z "/><text fill="#000000" font-family="sans-serif" font-size="12" lengthAdjust="spacingAndGlyphs" textLength="98" x="542.45" y="238.5352">StructureInstance</text><line style="stroke: #000000; stroke-width: 1.5;" x1="509.5" x2="646.5" y1="250" y2="250"/><text fill="#000000" font-family="sans-serif" font-size="11" lengthAdjust="spacingAndGlyphs" textLength="127" x="514.5" y="264.6348">structure : Structure [1]</text></a><!--link NamedInstance to ConceptInstance--><a target="_top" xlink:actuate="onRequest" xlink:href="#oml-NamedInstance" xlink:show="new" xlink:title="#oml-NamedInstance" xlink:type="simple"><path d="M136.249,280.5885 C119.5195,301.5876 99.0509,327.2799 85.1207,344.7652 " fill="none" id="NamedInstance-ConceptInstance" style="stroke: #000000; stroke-width: 1.0;"/><polygon fill="none" points="130.9946,275.9499,148.9318,264.669,141.9445,284.6735,130.9946,275.9499" style="stroke: #000000; stroke-width: 1.0;"/></a><!--link ConceptInstance to Assertion--><path d="M67.6761,398.3616 C66.8955,418.0326 65.9168,442.6967 65.1655,461.629 " fill="none" id="ConceptInstance-Assertion" style="stroke: #000000; stroke-width: 1.0;"/><polygon fill="#000000" points="64.6424,474.8118,68.9962,465.9775,64.8407,469.8157,61.0025,465.6602,64.6424,474.8118" style="stroke: #000000; stroke-width: 1.0;"/><line style="stroke: #000000; stroke-width: 1.0;" x1="64.8407" x2="65.158" y1="469.8157" y2="461.822"/><polygon fill="#000000" points="68.1967,385.2441,63.9619,391.0807,67.7208,397.2347,71.9556,391.398,68.1967,385.2441" style="stroke: #000000; stroke-width: 1.0;"/><text fill="#000000" font-family="sans-serif" font-size="13" lengthAdjust="spacingAndGlyphs" textLength="34" x="68" y="441.5684">types</text><text fill="#000000" font-family="sans-serif" font-size="13" lengthAdjust="spacingAndGlyphs" textLength="6" x="57.832" y="464.2907">*</text><!--link Element to Instance--><a target="_top" xlink:actuate="onRequest" xlink:href="#oml-Element" xlink:show="new" xlink:title="#oml-Element" xlink:type="simple"><path d="M367,60.3639 C367,74.0955 367,89.2141 367,100.9199 " fill="none" id="Element-Instance" style="stroke: #000000; stroke-width: 1.0;"/><polygon fill="none" points="360.0001,60.0176,367,40.0176,374.0001,60.0175,360.0001,60.0176" style="stroke: #000000; stroke-width: 1.0;"/></a><!--link Instance to InstancePropertyValueAssertion--><path d="M367,154.246 C367,173.2763 367,196.9338 367,215.2531 " fill="none" id="Instance-InstancePropertyValueAssertion" style="stroke: #000000; stroke-width: 1.0;"/><polygon fill="#000000" points="367,228.3327,371,219.3327,367,223.3327,363,219.3327,367,228.3327" style="stroke: #000000; stroke-width: 1.0;"/><line style="stroke: #000000; stroke-width: 1.0;" x1="367" x2="367.0001" y1="223.3327" y2="215.3328"/><polygon fill="#000000" points="367,141.1173,363,147.1173,367,153.1173,371,147.1173,367,141.1173" style="stroke: #000000; stroke-width: 1.0;"/><text fill="#000000" font-family="sans-serif" font-size="13" lengthAdjust="spacingAndGlyphs" textLength="94" x="368" y="184.5684">propertyValues</text><text fill="#000000" font-family="sans-serif" font-size="13" lengthAdjust="spacingAndGlyphs" textLength="6" x="359.9688" y="217.8188">*</text><!--link DescriptionMember to NamedInstance--><a target="_top" xlink:actuate="onRequest" xlink:href="#oml-DescriptionMember" xlink:show="new" xlink:title="#oml-DescriptionMember" xlink:type="simple"><path d="M165,157.4512 C165,179.2658 165,206.1732 165,224.2491 " fill="none" id="DescriptionMember-NamedInstance" style="stroke: #000000; stroke-width: 1.0;"/><polygon fill="none" points="158.0001,157.1455,165,137.1455,172.0001,157.1454,158.0001,157.1455" style="stroke: #000000; stroke-width: 1.0;"/></a><!--link Instance to NamedInstance--><a target="_top" xlink:actuate="onRequest" xlink:href="#oml-Instance" xlink:show="new" xlink:title="#oml-Instance" xlink:type="simple"><path d="M316.9841,151.5791 C279.8176,174.3021 230.1661,204.6584 197.8903,224.3913 " fill="none" id="Instance-NamedInstance" style="stroke: #000000; stroke-width: 1.0;"/><polygon fill="none" points="313.3807,145.5775,334.0956,141.1173,320.6834,157.522,313.3807,145.5775" style="stroke: #000000; stroke-width: 1.0;"/></a><!--link NamedInstance to ReifiedRelationshipInstance--><a target="_top" xlink:actuate="onRequest" xlink:href="#oml-NamedInstance" xlink:show="new" xlink:title="#oml-NamedInstance" xlink:type="simple"><path d="M196.3333,279.7865 C210.8411,296.1248 227.9909,315.4383 242.2922,331.5441 " fill="none" id="NamedInstance-ReifiedRelationshipInstance" style="stroke: #000000; stroke-width: 1.0;"/><polygon fill="none" points="190.9547,284.2719,182.9094,264.669,201.4233,274.9762,190.9547,284.2719" style="stroke: #000000; stroke-width: 1.0;"/></a><!--link ReifiedRelationshipInstance to ReifiedRelationshipInstanceTypeAssertion--><path d="M273.8323,411.1752 C274.505,428.1248 275.2471,446.8276 275.8439,461.8666 " fill="none" id="ReifiedRelationshipInstance-ReifiedRelationshipInstanceTypeAssertion" style="stroke: #000000; stroke-width: 1.0;"/><polygon fill="#000000" points="276.3645,474.9861,280.0044,465.8345,276.1662,469.99,272.0107,466.1518,276.3645,474.9861" style="stroke: #000000; stroke-width: 1.0;"/><line style="stroke: #000000; stroke-width: 1.0;" x1="276.1662" x2="275.849" y1="469.99" y2="461.9963"/><polygon fill="#000000" points="273.3137,398.105,269.5548,404.2589,273.7896,410.0956,277.5485,403.9416,273.3137,398.105" style="stroke: #000000; stroke-width: 1.0;"/><text fill="#000000" font-family="sans-serif" font-size="13" lengthAdjust="spacingAndGlyphs" textLength="34" x="277" y="441.5684">types</text><text fill="#000000" font-family="sans-serif" font-size="13" lengthAdjust="spacingAndGlyphs" textLength="6" x="269.0694" y="464.2329">*</text><!--link Instance to StructureInstance--><a target="_top" xlink:actuate="onRequest" xlink:href="#oml-Instance" xlink:show="new" xlink:title="#oml-Instance" xlink:type="simple"><path d="M424.9618,146.9242 C440.1824,154.2554 456.4144,162.5514 471,171 C495.5719,185.2331 521.8764,203.2608 542.2555,217.8998 " fill="none" id="Instance-StructureInstance" style="stroke: #000000; stroke-width: 1.0;"/><polygon fill="none" points="421.8744,153.2078,406.7511,138.3657,427.8292,140.5373,421.8744,153.2078" style="stroke: #000000; stroke-width: 1.0;"/></a><!--
@startuml
skinparam classBackgroundColor LightGray
skinparam classBorderColor Black
skinparam enumBorderColor Black
skinparam ArrowColor Black
hide methods
class ConceptInstance [[#oml-ConceptInstance]] #white {
}
abstract class Assertion [[#oml-Assertion]]
hide Assertion members
ConceptInstance -up-|> NamedInstance [[#oml-NamedInstance]]
ConceptInstance *- -> "*" Assertion : types
abstract class Instance [[#oml-Instance]] #white {
}
abstract class Element [[#oml-Element]]
hide Element members
abstract class InstancePropertyValueAssertion [[#oml-InstancePropertyValueAssertion]]
hide InstancePropertyValueAssertion members
Instance -up-|> Element [[#oml-Element]]
Instance *- -> "*" InstancePropertyValueAssertion : propertyValues
abstract class NamedInstance [[#oml-NamedInstance]] #white {
}
abstract class DescriptionMember [[#oml-DescriptionMember]]
hide DescriptionMember members
NamedInstance -up-|> DescriptionMember [[#oml-DescriptionMember]]
NamedInstance -up-|> Instance [[#oml-Instance]]
class ReifiedRelationshipInstance [[#oml-ReifiedRelationshipInstance]] #white {
	source : NamedInstance [1]
	target : NamedInstance [1]
}
class ReifiedRelationshipInstanceTypeAssertion [[#oml-ReifiedRelationshipInstanceTypeAssertion]]
hide ReifiedRelationshipInstanceTypeAssertion members
ReifiedRelationshipInstance -up-|> NamedInstance [[#oml-NamedInstance]]
ReifiedRelationshipInstance *- -> "*" ReifiedRelationshipInstanceTypeAssertion : types
class StructureInstance [[#oml-StructureInstance]] #white {
	structure : Structure [1]
}
StructureInstance -up-|> Instance [[#oml-Instance]]
@enduml

PlantUML version 1.2019.00(Sun Jan 13 07:46:42 PST 2019)
(GPL source distribution)
Java Runtime: Java(TM) SE Runtime Environment
JVM: Java HotSpot(TM) 64-Bit Server VM
Java Version: 1.8.0_181-b13
Operating System: Mac OS X
OS Version: 10.13.6
Default Encoding: UTF-8
Language: en
Country: US
--></g></svg>