<?xml version="1.0" encoding="UTF-8" standalone="no"?><svg xmlns="http://www.w3.org/2000/svg" xmlns:xlink="http://www.w3.org/1999/xlink" contentScriptType="application/ecmascript" contentStyleType="text/css" height="492px" preserveAspectRatio="none" style="width:755px;height:492px;" version="1.1" viewBox="0 0 755 492" width="755px" zoomAndPan="magnify"><defs><filter height="300%" id="f1becz4dktfqlw" width="300%" x="-1" y="-1"><feGaussianBlur result="blurOut" stdDeviation="2.0"/><feColorMatrix in="blurOut" result="blurOut2" type="matrix" values="0 0 0 0 0 0 0 0 0 0 0 0 0 0 0 0 0 0 .4 0"/><feOffset dx="4.0" dy="4.0" in="blurOut2" result="blurOut3"/><feBlend in="SourceGraphic" in2="blurOut3" mode="normal"/></filter></defs><g><!--class ConceptInstanceReference--><a target="_top" xlink:actuate="onRequest" xlink:href="#oml-ConceptInstanceReference" xlink:show="new" xlink:title="#oml-ConceptInstanceReference" xlink:type="simple"><rect fill="#FFFFFF" filter="url(#f1becz4dktfqlw)" height="52.9551" id="ConceptInstanceReference" style="stroke: #000000; stroke-width: 1.5;" width="184" x="18" y="319"/><rect fill="#FFFFFF" height="32" style="stroke: #000000; stroke-width: 1.5;" width="184" x="18" y="319"/><ellipse cx="33" cy="335" fill="#ADD1B2" rx="11" ry="11" style="stroke: #000000; stroke-width: 1.0;"/><path d="M35.9731,340.6431 Q35.3921,340.9419 34.7529,341.0913 Q34.1138,341.2407 33.4082,341.2407 Q30.9014,341.2407 29.5815,339.5889 Q28.2617,337.937 28.2617,334.8159 Q28.2617,331.6865 29.5815,330.0347 Q30.9014,328.3828 33.4082,328.3828 Q34.1138,328.3828 34.7612,328.5322 Q35.4087,328.6816 35.9731,328.9805 L35.9731,331.7031 Q35.3423,331.1221 34.7488,330.8523 Q34.1553,330.5825 33.5244,330.5825 Q32.1797,330.5825 31.4949,331.6492 Q30.8101,332.7158 30.8101,334.8159 Q30.8101,336.9077 31.4949,337.9744 Q32.1797,339.041 33.5244,339.041 Q34.1553,339.041 34.7488,338.7712 Q35.3423,338.5015 35.9731,337.9204 Z "/><text fill="#000000" font-family="sans-serif" font-size="12" lengthAdjust="spacingAndGlyphs" textLength="152" x="47" y="339.5352">ConceptInstanceReference</text><line style="stroke: #000000; stroke-width: 1.5;" x1="19" x2="201" y1="351" y2="351"/><text fill="#000000" font-family="sans-serif" font-size="11" lengthAdjust="spacingAndGlyphs" textLength="162" x="24" y="365.6348">instance : ConceptInstance [1]</text></a><!--class ConceptInstanceTypeAssertion--><a target="_top" xlink:actuate="onRequest" xlink:href="#oml-ConceptInstanceTypeAssertion" xlink:show="new" xlink:title="#oml-ConceptInstanceTypeAssertion" xlink:type="simple"><rect fill="#D3D3D3" filter="url(#f1becz4dktfqlw)" height="32" id="ConceptInstanceTypeAssertion" style="stroke: #000000; stroke-width: 1.5;" width="208" x="6" y="449"/><ellipse cx="21" cy="465" fill="#ADD1B2" rx="11" ry="11" style="stroke: #000000; stroke-width: 1.0;"/><path d="M23.9731,470.6431 Q23.3921,470.9419 22.7529,471.0913 Q22.1138,471.2407 21.4082,471.2407 Q18.9014,471.2407 17.5815,469.5889 Q16.2617,467.937 16.2617,464.8159 Q16.2617,461.6865 17.5815,460.0347 Q18.9014,458.3828 21.4082,458.3828 Q22.1138,458.3828 22.7612,458.5322 Q23.4087,458.6816 23.9731,458.9805 L23.9731,461.7031 Q23.3423,461.1221 22.7488,460.8523 Q22.1553,460.5825 21.5244,460.5825 Q20.1797,460.5825 19.4949,461.6492 Q18.8101,462.7158 18.8101,464.8159 Q18.8101,466.9077 19.4949,467.9744 Q20.1797,469.041 21.5244,469.041 Q22.1553,469.041 22.7488,468.7712 Q23.3423,468.5015 23.9731,467.9204 Z "/><text fill="#000000" font-family="sans-serif" font-size="12" lengthAdjust="spacingAndGlyphs" textLength="176" x="35" y="469.5352">ConceptInstanceTypeAssertion</text></a><!--class NamedInstanceReference--><a target="_top" xlink:actuate="onRequest" xlink:href="#oml-NamedInstanceReference" xlink:show="new" xlink:title="#oml-NamedInstanceReference" xlink:type="simple"><rect fill="#FFFFFF" filter="url(#f1becz4dktfqlw)" height="40" id="NamedInstanceReference" style="stroke: #000000; stroke-width: 1.5;" width="179" x="254.5" y="202"/><rect fill="#FFFFFF" height="32" style="stroke: #000000; stroke-width: 1.5;" width="179" x="254.5" y="202"/><ellipse cx="269.5" cy="218" fill="#A9DCDF" rx="11" ry="11" style="stroke: #000000; stroke-width: 1.0;"/><path d="M269.6133,213.3481 L268.4595,218.4199 L270.7754,218.4199 Z M268.1191,211.1069 L271.1157,211.1069 L274.4609,223.5 L272.0122,223.5 L271.2485,220.437 L267.9697,220.437 L267.2227,223.5 L264.7739,223.5 Z "/><text fill="#000000" font-family="sans-serif" font-size="12" font-style="italic" lengthAdjust="spacingAndGlyphs" textLength="147" x="283.5" y="222.5352">NamedInstanceReference</text><line style="stroke: #000000; stroke-width: 1.5;" x1="255.5" x2="432.5" y1="234" y2="234"/></a><!--class DescriptionMemberReference--><a target="_top" xlink:actuate="onRequest" xlink:href="#oml-DescriptionMemberReference" xlink:show="new" xlink:title="#oml-DescriptionMemberReference" xlink:type="simple"><rect fill="#FFFFFF" filter="url(#f1becz4dktfqlw)" height="40" id="DescriptionMemberReference" style="stroke: #000000; stroke-width: 1.5;" width="203" x="242.5" y="101"/><rect fill="#FFFFFF" height="32" style="stroke: #000000; stroke-width: 1.5;" width="203" x="242.5" y="101"/><ellipse cx="257.5" cy="117" fill="#A9DCDF" rx="11" ry="11" style="stroke: #000000; stroke-width: 1.0;"/><path d="M257.6133,112.3481 L256.4595,117.4199 L258.7754,117.4199 Z M256.1191,110.1069 L259.1157,110.1069 L262.4609,122.5 L260.0122,122.5 L259.2485,119.437 L255.9697,119.437 L255.2227,122.5 L252.7739,122.5 Z "/><text fill="#000000" font-family="sans-serif" font-size="12" font-style="italic" lengthAdjust="spacingAndGlyphs" textLength="171" x="271.5" y="121.5352">DescriptionMemberReference</text><line style="stroke: #000000; stroke-width: 1.5;" x1="243.5" x2="444.5" y1="133" y2="133"/></a><!--class GraphMemberReference--><a target="_top" xlink:actuate="onRequest" xlink:href="#oml-GraphMemberReference" xlink:show="new" xlink:title="#oml-GraphMemberReference" xlink:type="simple"><rect fill="#D3D3D3" filter="url(#f1becz4dktfqlw)" height="32" id="GraphMemberReference" style="stroke: #000000; stroke-width: 1.5;" width="174" x="357" y="8"/><ellipse cx="372" cy="24" fill="#A9DCDF" rx="11" ry="11" style="stroke: #000000; stroke-width: 1.0;"/><path d="M372.1133,19.3481 L370.9595,24.4199 L373.2754,24.4199 Z M370.6191,17.1069 L373.6157,17.1069 L376.9609,29.5 L374.5122,29.5 L373.7485,26.437 L370.4697,26.437 L369.7227,29.5 L367.2739,29.5 Z "/><text fill="#000000" font-family="sans-serif" font-size="12" font-style="italic" lengthAdjust="spacingAndGlyphs" textLength="142" x="386" y="28.5352">GraphMemberReference</text></a><!--class DescriptionStatement--><a target="_top" xlink:actuate="onRequest" xlink:href="#oml-DescriptionStatement" xlink:show="new" xlink:title="#oml-DescriptionStatement" xlink:type="simple"><rect fill="#D3D3D3" filter="url(#f1becz4dktfqlw)" height="32" id="DescriptionStatement" style="stroke: #000000; stroke-width: 1.5;" width="154" x="168" y="8"/><ellipse cx="183" cy="24" fill="#A9DCDF" rx="11" ry="11" style="stroke: #000000; stroke-width: 1.0;"/><path d="M183.1133,19.3481 L181.9595,24.4199 L184.2754,24.4199 Z M181.6191,17.1069 L184.6157,17.1069 L187.9609,29.5 L185.5122,29.5 L184.7485,26.437 L181.4697,26.437 L180.7227,29.5 L178.2739,29.5 Z "/><text fill="#000000" font-family="sans-serif" font-size="12" font-style="italic" lengthAdjust="spacingAndGlyphs" textLength="122" x="197" y="28.5352">DescriptionStatement</text></a><!--class InstancePropertyValueAssertion--><a target="_top" xlink:actuate="onRequest" xlink:href="#oml-InstancePropertyValueAssertion" xlink:show="new" xlink:title="#oml-InstancePropertyValueAssertion" xlink:type="simple"><rect fill="#D3D3D3" filter="url(#f1becz4dktfqlw)" height="32" id="InstancePropertyValueAssertion" style="stroke: #000000; stroke-width: 1.5;" width="213" x="237.5" y="329.5"/><ellipse cx="252.5" cy="345.5" fill="#A9DCDF" rx="11" ry="11" style="stroke: #000000; stroke-width: 1.0;"/><path d="M252.6133,340.8481 L251.4595,345.9199 L253.7754,345.9199 Z M251.1191,338.6069 L254.1157,338.6069 L257.4609,351 L255.0122,351 L254.2485,347.937 L250.9697,347.937 L250.2227,351 L247.7739,351 Z "/><text fill="#000000" font-family="sans-serif" font-size="12" font-style="italic" lengthAdjust="spacingAndGlyphs" textLength="181" x="266.5" y="350.0352">InstancePropertyValueAssertion</text></a><!--class ReifiedRelationshipInstanceReference--><a target="_top" xlink:actuate="onRequest" xlink:href="#oml-ReifiedRelationshipInstanceReference" xlink:show="new" xlink:title="#oml-ReifiedRelationshipInstanceReference" xlink:type="simple"><rect fill="#FFFFFF" filter="url(#f1becz4dktfqlw)" height="52.9551" id="ReifiedRelationshipInstanceReference" style="stroke: #000000; stroke-width: 1.5;" width="247" x="485.5" y="319"/><rect fill="#FFFFFF" height="32" style="stroke: #000000; stroke-width: 1.5;" width="247" x="485.5" y="319"/><ellipse cx="500.5" cy="335" fill="#ADD1B2" rx="11" ry="11" style="stroke: #000000; stroke-width: 1.0;"/><path d="M503.4731,340.6431 Q502.8921,340.9419 502.2529,341.0913 Q501.6138,341.2407 500.9082,341.2407 Q498.4014,341.2407 497.0815,339.5889 Q495.7617,337.937 495.7617,334.8159 Q495.7617,331.6865 497.0815,330.0347 Q498.4014,328.3828 500.9082,328.3828 Q501.6138,328.3828 502.2612,328.5322 Q502.9087,328.6816 503.4731,328.9805 L503.4731,331.7031 Q502.8423,331.1221 502.2488,330.8523 Q501.6553,330.5825 501.0244,330.5825 Q499.6797,330.5825 498.9949,331.6492 Q498.3101,332.7158 498.3101,334.8159 Q498.3101,336.9077 498.9949,337.9744 Q499.6797,339.041 501.0244,339.041 Q501.6553,339.041 502.2488,338.7712 Q502.8423,338.5015 503.4731,337.9204 Z "/><text fill="#000000" font-family="sans-serif" font-size="12" lengthAdjust="spacingAndGlyphs" textLength="215" x="514.5" y="339.5352">ReifiedRelationshipInstanceReference</text><line style="stroke: #000000; stroke-width: 1.5;" x1="486.5" x2="731.5" y1="351" y2="351"/><text fill="#000000" font-family="sans-serif" font-size="11" lengthAdjust="spacingAndGlyphs" textLength="219" x="491.5" y="365.6348">instance : ReifiedRelationshipInstance [1]</text></a><!--class ReifiedRelationshipInstanceTypeAssertion--><a target="_top" xlink:actuate="onRequest" xlink:href="#oml-ReifiedRelationshipInstanceTypeAssertion" xlink:show="new" xlink:title="#oml-ReifiedRelationshipInstanceTypeAssertion" xlink:type="simple"><rect fill="#D3D3D3" filter="url(#f1becz4dktfqlw)" height="32" id="ReifiedRelationshipInstanceTypeAssertion" style="stroke: #000000; stroke-width: 1.5;" width="271" x="473.5" y="449"/><ellipse cx="488.5" cy="465" fill="#ADD1B2" rx="11" ry="11" style="stroke: #000000; stroke-width: 1.0;"/><path d="M491.4731,470.6431 Q490.8921,470.9419 490.2529,471.0913 Q489.6138,471.2407 488.9082,471.2407 Q486.4014,471.2407 485.0815,469.5889 Q483.7617,467.937 483.7617,464.8159 Q483.7617,461.6865 485.0815,460.0347 Q486.4014,458.3828 488.9082,458.3828 Q489.6138,458.3828 490.2612,458.5322 Q490.9087,458.6816 491.4731,458.9805 L491.4731,461.7031 Q490.8423,461.1221 490.2488,460.8523 Q489.6553,460.5825 489.0244,460.5825 Q487.6797,460.5825 486.9949,461.6492 Q486.3101,462.7158 486.3101,464.8159 Q486.3101,466.9077 486.9949,467.9744 Q487.6797,469.041 489.0244,469.041 Q489.6553,469.041 490.2488,468.7712 Q490.8423,468.5015 491.4731,467.9204 Z "/><text fill="#000000" font-family="sans-serif" font-size="12" lengthAdjust="spacingAndGlyphs" textLength="239" x="502.5" y="469.5352">ReifiedRelationshipInstanceTypeAssertion</text></a><!--link NamedInstanceReference to ConceptInstanceReference--><a target="_top" xlink:actuate="onRequest" xlink:href="#oml-NamedInstanceReference" xlink:show="new" xlink:title="#oml-NamedInstanceReference" xlink:type="simple"><path d="M287.9385,251.588 C249.12,272.0755 197.8868,299.1153 160.3673,318.9173 " fill="none" id="NamedInstanceReference-ConceptInstanceReference" style="stroke: #000000; stroke-width: 1.0;"/><polygon fill="none" points="284.928,245.2618,305.8831,242.1173,291.4627,257.6432,284.928,245.2618" style="stroke: #000000; stroke-width: 1.0;"/></a><!--link ConceptInstanceReference to ConceptInstanceTypeAssertion--><path d="M110,385.2254 C110,401.6628 110,420.3864 110,435.5615 " fill="none" id="ConceptInstanceReference-ConceptInstanceTypeAssertion" style="stroke: #000000; stroke-width: 1.0;"/><polygon fill="#000000" points="110,448.8332,114,439.8332,110,443.8332,106,439.8332,110,448.8332" style="stroke: #000000; stroke-width: 1.0;"/><line style="stroke: #000000; stroke-width: 1.0;" x1="110" x2="110.0001" y1="443.8332" y2="435.8333"/><polygon fill="#000000" points="110,372.0209,106,378.0209,110,384.0209,114,378.0209,110,372.0209" style="stroke: #000000; stroke-width: 1.0;"/><text fill="#000000" font-family="sans-serif" font-size="13" lengthAdjust="spacingAndGlyphs" textLength="34" x="111" y="415.5684">types</text><text fill="#000000" font-family="sans-serif" font-size="13" lengthAdjust="spacingAndGlyphs" textLength="6" x="102.9688" y="438.3195">*</text><!--link GraphMemberReference to DescriptionMemberReference--><a target="_top" xlink:actuate="onRequest" xlink:href="#oml-GraphMemberReference" xlink:show="new" xlink:title="#oml-GraphMemberReference" xlink:type="simple"><path d="M413.0389,54.0323 C397.3239,69.2758 378.6591,87.3806 364.7011,100.9199 " fill="none" id="GraphMemberReference-DescriptionMemberReference" style="stroke: #000000; stroke-width: 1.0;"/><polygon fill="none" points="408.2574,48.9182,427.487,40.0176,418.005,58.9673,408.2574,48.9182" style="stroke: #000000; stroke-width: 1.0;"/></a><!--link DescriptionStatement to DescriptionMemberReference--><a target="_top" xlink:actuate="onRequest" xlink:href="#oml-DescriptionStatement" xlink:show="new" xlink:title="#oml-DescriptionStatement" xlink:type="simple"><path d="M275.6515,54.0323 C291.2094,69.2758 309.6875,87.3806 323.5059,100.9199 " fill="none" id="DescriptionStatement-DescriptionMemberReference" style="stroke: #000000; stroke-width: 1.0;"/><polygon fill="none" points="270.7346,59.0147,261.3478,40.0176,280.5326,49.0147,270.7346,59.0147" style="stroke: #000000; stroke-width: 1.0;"/></a><!--link DescriptionMemberReference to NamedInstanceReference--><a target="_top" xlink:actuate="onRequest" xlink:href="#oml-DescriptionMemberReference" xlink:show="new" xlink:title="#oml-DescriptionMemberReference" xlink:type="simple"><path d="M344,161.7259 C344,175.5702 344,190.4334 344,201.9362 " fill="none" id="DescriptionMemberReference-NamedInstanceReference" style="stroke: #000000; stroke-width: 1.0;"/><polygon fill="none" points="337.0001,161.4389,344,141.4389,351.0001,161.4388,337.0001,161.4389" style="stroke: #000000; stroke-width: 1.0;"/></a><!--link NamedInstanceReference to InstancePropertyValueAssertion--><path d="M344,255.246 C344,274.2763 344,297.9338 344,316.2531 " fill="none" id="NamedInstanceReference-InstancePropertyValueAssertion" style="stroke: #000000; stroke-width: 1.0;"/><polygon fill="#000000" points="344,329.3327,348,320.3327,344,324.3327,340,320.3327,344,329.3327" style="stroke: #000000; stroke-width: 1.0;"/><line style="stroke: #000000; stroke-width: 1.0;" x1="344" x2="344.0001" y1="324.3327" y2="316.3328"/><polygon fill="#000000" points="344,242.1173,340,248.1173,344,254.1173,348,248.1173,344,242.1173" style="stroke: #000000; stroke-width: 1.0;"/><text fill="#000000" font-family="sans-serif" font-size="13" lengthAdjust="spacingAndGlyphs" textLength="94" x="345" y="285.5684">propertyValues</text><text fill="#000000" font-family="sans-serif" font-size="13" lengthAdjust="spacingAndGlyphs" textLength="6" x="336.9688" y="318.8188">*</text><!--link NamedInstanceReference to ReifiedRelationshipInstanceReference--><a target="_top" xlink:actuate="onRequest" xlink:href="#oml-NamedInstanceReference" xlink:show="new" xlink:title="#oml-NamedInstanceReference" xlink:type="simple"><path d="M405.4011,250.6152 C449.5995,271.2134 508.7941,298.8003 551.9601,318.9173 " fill="none" id="NamedInstanceReference-ReifiedRelationshipInstanceReference" style="stroke: #000000; stroke-width: 1.0;"/><polygon fill="none" points="402.3377,256.9105,387.1666,242.1173,408.2516,244.2209,402.3377,256.9105" style="stroke: #000000; stroke-width: 1.0;"/></a><!--link ReifiedRelationshipInstanceReference to ReifiedRelationshipInstanceTypeAssertion--><path d="M609,385.2254 C609,401.6628 609,420.3864 609,435.5615 " fill="none" id="ReifiedRelationshipInstanceReference-ReifiedRelationshipInstanceTypeAssertion" style="stroke: #000000; stroke-width: 1.0;"/><polygon fill="#000000" points="609,448.8332,613,439.8332,609,443.8332,605,439.8332,609,448.8332" style="stroke: #000000; stroke-width: 1.0;"/><line style="stroke: #000000; stroke-width: 1.0;" x1="609" x2="609.0001" y1="443.8332" y2="435.8333"/><polygon fill="#000000" points="609,372.0209,605,378.0209,609,384.0209,613,378.0209,609,372.0209" style="stroke: #000000; stroke-width: 1.0;"/><text fill="#000000" font-family="sans-serif" font-size="13" lengthAdjust="spacingAndGlyphs" textLength="34" x="610" y="415.5684">types</text><text fill="#000000" font-family="sans-serif" font-size="13" lengthAdjust="spacingAndGlyphs" textLength="6" x="601.9688" y="438.3195">*</text><!--
@startuml
skinparam classBackgroundColor LightGray
skinparam classBorderColor Black
skinparam enumBorderColor Black
skinparam ArrowColor Black
hide methods
class ConceptInstanceReference [[#oml-ConceptInstanceReference]] #white {
	instance : ConceptInstance [1]
}
class ConceptInstanceTypeAssertion [[#oml-ConceptInstanceTypeAssertion]]
hide ConceptInstanceTypeAssertion members
ConceptInstanceReference -up-|> NamedInstanceReference [[#oml-NamedInstanceReference]]
ConceptInstanceReference *- -> "*" ConceptInstanceTypeAssertion : types
abstract class DescriptionMemberReference [[#oml-DescriptionMemberReference]] #white {
}
abstract class GraphMemberReference [[#oml-GraphMemberReference]]
hide GraphMemberReference members
abstract class DescriptionStatement [[#oml-DescriptionStatement]]
hide DescriptionStatement members
DescriptionMemberReference -up-|> GraphMemberReference [[#oml-GraphMemberReference]]
DescriptionMemberReference -up-|> DescriptionStatement [[#oml-DescriptionStatement]]
abstract class NamedInstanceReference [[#oml-NamedInstanceReference]] #white {
}
abstract class InstancePropertyValueAssertion [[#oml-InstancePropertyValueAssertion]]
hide InstancePropertyValueAssertion members
NamedInstanceReference -up-|> DescriptionMemberReference [[#oml-DescriptionMemberReference]]
NamedInstanceReference *- -> "*" InstancePropertyValueAssertion : propertyValues
class ReifiedRelationshipInstanceReference [[#oml-ReifiedRelationshipInstanceReference]] #white {
	instance : ReifiedRelationshipInstance [1]
}
class ReifiedRelationshipInstanceTypeAssertion [[#oml-ReifiedRelationshipInstanceTypeAssertion]]
hide ReifiedRelationshipInstanceTypeAssertion members
ReifiedRelationshipInstanceReference -up-|> NamedInstanceReference [[#oml-NamedInstanceReference]]
ReifiedRelationshipInstanceReference *- -> "*" ReifiedRelationshipInstanceTypeAssertion : types
@enduml

PlantUML version 1.2019.00(Sun Jan 13 07:46:42 PST 2019)
(GPL source distribution)
Java Runtime: Java(TM) SE Runtime Environment
JVM: Java HotSpot(TM) 64-Bit Server VM
Java Version: 1.8.0_181-b13
Operating System: Mac OS X
OS Version: 10.13.6
Default Encoding: UTF-8
Language: en
Country: US
--></g></svg>