<?xml version="1.0" encoding="UTF-8" standalone="no"?><svg xmlns="http://www.w3.org/2000/svg" xmlns:xlink="http://www.w3.org/1999/xlink" contentScriptType="application/ecmascript" contentStyleType="text/css" height="598px" preserveAspectRatio="none" style="width:621px;height:598px;" version="1.1" viewBox="0 0 621 598" width="621px" zoomAndPan="magnify"><defs><filter height="300%" id="f1ku8wxzlh9ykh" width="300%" x="-1" y="-1"><feGaussianBlur result="blurOut" stdDeviation="2.0"/><feColorMatrix in="blurOut" result="blurOut2" type="matrix" values="0 0 0 0 0 0 0 0 0 0 0 0 0 0 0 0 0 0 .4 0"/><feOffset dx="4.0" dy="4.0" in="blurOut2" result="blurOut3"/><feBlend in="SourceGraphic" in2="blurOut3" mode="normal"/></filter></defs><g><!--class DirectionalRelationshipPredicate--><a target="_top" xlink:actuate="onRequest" xlink:href="#oml-DirectionalRelationshipPredicate" xlink:show="new" xlink:title="#oml-DirectionalRelationshipPredicate" xlink:type="simple"><rect fill="#FFFFFF" filter="url(#f1ku8wxzlh9ykh)" height="52.9551" id="DirectionalRelationshipPredicate" style="stroke: #000000; stroke-width: 1.5;" width="267" x="25.5" y="528.5"/><rect fill="#FFFFFF" height="32" style="stroke: #000000; stroke-width: 1.5;" width="267" x="25.5" y="528.5"/><ellipse cx="63" cy="544.5" fill="#ADD1B2" rx="11" ry="11" style="stroke: #000000; stroke-width: 1.0;"/><path d="M65.9731,550.1431 Q65.3921,550.4419 64.7529,550.5913 Q64.1138,550.7407 63.4082,550.7407 Q60.9014,550.7407 59.5815,549.0889 Q58.2617,547.437 58.2617,544.3159 Q58.2617,541.1865 59.5815,539.5347 Q60.9014,537.8828 63.4082,537.8828 Q64.1138,537.8828 64.7612,538.0322 Q65.4087,538.1816 65.9731,538.4805 L65.9731,541.2031 Q65.3423,540.6221 64.7488,540.3523 Q64.1553,540.0825 63.5244,540.0825 Q62.1797,540.0825 61.4949,541.1492 Q60.8101,542.2158 60.8101,544.3159 Q60.8101,546.4077 61.4949,547.4744 Q62.1797,548.541 63.5244,548.541 Q64.1553,548.541 64.7488,548.2712 Q65.3423,548.0015 65.9731,547.4204 Z "/><text fill="#000000" font-family="sans-serif" font-size="12" lengthAdjust="spacingAndGlyphs" textLength="185" x="82" y="549.0352">DirectionalRelationshipPredicate</text><line style="stroke: #000000; stroke-width: 1.5;" x1="26.5" x2="291.5" y1="560.5" y2="560.5"/><text fill="#000000" font-family="sans-serif" font-size="11" lengthAdjust="spacingAndGlyphs" textLength="255" x="31.5" y="575.1348">relationshipDirection : RelationshipDirection [1]</text></a><!--class RelationshipPredicate--><a target="_top" xlink:actuate="onRequest" xlink:href="#oml-RelationshipPredicate" xlink:show="new" xlink:title="#oml-RelationshipPredicate" xlink:type="simple"><rect fill="#FFFFFF" filter="url(#f1ku8wxzlh9ykh)" height="65.9102" id="RelationshipPredicate" style="stroke: #000000; stroke-width: 1.5;" width="156" x="362" y="395"/><rect fill="#FFFFFF" height="32" style="stroke: #000000; stroke-width: 1.5;" width="156" x="362" y="395"/><ellipse cx="377" cy="411" fill="#A9DCDF" rx="11" ry="11" style="stroke: #000000; stroke-width: 1.0;"/><path d="M377.1133,406.3481 L375.9595,411.4199 L378.2754,411.4199 Z M375.6191,404.1069 L378.6157,404.1069 L381.9609,416.5 L379.5122,416.5 L378.7485,413.437 L375.4697,413.437 L374.7227,416.5 L372.2739,416.5 Z "/><text fill="#000000" font-family="sans-serif" font-size="12" font-style="italic" lengthAdjust="spacingAndGlyphs" textLength="124" x="391" y="415.5352">RelationshipPredicate</text><line style="stroke: #000000; stroke-width: 1.5;" x1="363" x2="517" y1="427" y2="427"/><text fill="#000000" font-family="sans-serif" font-size="11" lengthAdjust="spacingAndGlyphs" textLength="90" x="368" y="441.6348">variable1 : String</text><text fill="#000000" font-family="sans-serif" font-size="11" lengthAdjust="spacingAndGlyphs" textLength="90" x="368" y="454.5898">variable2 : String</text></a><!--class EntityPredicate--><a target="_top" xlink:actuate="onRequest" xlink:href="#oml-EntityPredicate" xlink:show="new" xlink:title="#oml-EntityPredicate" xlink:type="simple"><rect fill="#FFFFFF" filter="url(#f1ku8wxzlh9ykh)" height="65.9102" id="EntityPredicate" style="stroke: #000000; stroke-width: 1.5;" width="117" x="209.5" y="395"/><rect fill="#FFFFFF" height="32" style="stroke: #000000; stroke-width: 1.5;" width="117" x="209.5" y="395"/><ellipse cx="224.5" cy="411" fill="#ADD1B2" rx="11" ry="11" style="stroke: #000000; stroke-width: 1.0;"/><path d="M227.4731,416.6431 Q226.8921,416.9419 226.2529,417.0913 Q225.6138,417.2407 224.9082,417.2407 Q222.4014,417.2407 221.0815,415.5889 Q219.7617,413.937 219.7617,410.8159 Q219.7617,407.6865 221.0815,406.0347 Q222.4014,404.3828 224.9082,404.3828 Q225.6138,404.3828 226.2612,404.5322 Q226.9087,404.6816 227.4731,404.9805 L227.4731,407.7031 Q226.8423,407.1221 226.2488,406.8523 Q225.6553,406.5825 225.0244,406.5825 Q223.6797,406.5825 222.9949,407.6492 Q222.3101,408.7158 222.3101,410.8159 Q222.3101,412.9077 222.9949,413.9744 Q223.6797,415.041 225.0244,415.041 Q225.6553,415.041 226.2488,414.7712 Q226.8423,414.5015 227.4731,413.9204 Z "/><text fill="#000000" font-family="sans-serif" font-size="12" lengthAdjust="spacingAndGlyphs" textLength="85" x="238.5" y="415.5352">EntityPredicate</text><line style="stroke: #000000; stroke-width: 1.5;" x1="210.5" x2="325.5" y1="427" y2="427"/><text fill="#000000" font-family="sans-serif" font-size="11" lengthAdjust="spacingAndGlyphs" textLength="83" x="215.5" y="441.6348">variable : String</text><text fill="#000000" font-family="sans-serif" font-size="11" lengthAdjust="spacingAndGlyphs" textLength="87" x="215.5" y="454.5898">entity : Entity [1]</text></a><!--class Predicate--><a target="_top" xlink:actuate="onRequest" xlink:href="#oml-Predicate" xlink:show="new" xlink:title="#oml-Predicate" xlink:type="simple"><rect fill="#FFFFFF" filter="url(#f1ku8wxzlh9ykh)" height="40" id="Predicate" style="stroke: #000000; stroke-width: 1.5;" width="86" x="245" y="278"/><rect fill="#FFFFFF" height="32" style="stroke: #000000; stroke-width: 1.5;" width="86" x="245" y="278"/><ellipse cx="260" cy="294" fill="#A9DCDF" rx="11" ry="11" style="stroke: #000000; stroke-width: 1.0;"/><path d="M260.1133,289.3481 L258.9595,294.4199 L261.2754,294.4199 Z M258.6191,287.1069 L261.6157,287.1069 L264.9609,299.5 L262.5122,299.5 L261.7485,296.437 L258.4697,296.437 L257.7227,299.5 L255.2739,299.5 Z "/><text fill="#000000" font-family="sans-serif" font-size="12" font-style="italic" lengthAdjust="spacingAndGlyphs" textLength="54" x="274" y="298.5352">Predicate</text><line style="stroke: #000000; stroke-width: 1.5;" x1="246" x2="330" y1="310" y2="310"/></a><!--class Element--><a target="_top" xlink:actuate="onRequest" xlink:href="#oml-Element" xlink:show="new" xlink:title="#oml-Element" xlink:type="simple"><rect fill="#D3D3D3" filter="url(#f1ku8wxzlh9ykh)" height="32" id="Element" style="stroke: #000000; stroke-width: 1.5;" width="78" x="269" y="165"/><ellipse cx="284" cy="181" fill="#A9DCDF" rx="11" ry="11" style="stroke: #000000; stroke-width: 1.0;"/><path d="M284.1133,176.3481 L282.9595,181.4199 L285.2754,181.4199 Z M282.6191,174.1069 L285.6157,174.1069 L288.9609,186.5 L286.5122,186.5 L285.7485,183.437 L282.4697,183.437 L281.7227,186.5 L279.2739,186.5 Z "/><text fill="#000000" font-family="sans-serif" font-size="12" font-style="italic" lengthAdjust="spacingAndGlyphs" textLength="46" x="298" y="185.5352">Element</text></a><!--class ReifiedRelationshipPredicate--><a target="_top" xlink:actuate="onRequest" xlink:href="#oml-ReifiedRelationshipPredicate" xlink:show="new" xlink:title="#oml-ReifiedRelationshipPredicate" xlink:type="simple"><rect fill="#FFFFFF" filter="url(#f1ku8wxzlh9ykh)" height="65.9102" id="ReifiedRelationshipPredicate" style="stroke: #000000; stroke-width: 1.5;" width="219" x="330.5" y="522"/><rect fill="#FFFFFF" height="32" style="stroke: #000000; stroke-width: 1.5;" width="219" x="330.5" y="522"/><ellipse cx="355.85" cy="538" fill="#ADD1B2" rx="11" ry="11" style="stroke: #000000; stroke-width: 1.0;"/><path d="M358.8231,543.6431 Q358.2421,543.9419 357.6029,544.0913 Q356.9638,544.2407 356.2582,544.2407 Q353.7514,544.2407 352.4315,542.5889 Q351.1117,540.937 351.1117,537.8159 Q351.1117,534.6865 352.4315,533.0347 Q353.7514,531.3828 356.2582,531.3828 Q356.9638,531.3828 357.6112,531.5322 Q358.2587,531.6816 358.8231,531.9805 L358.8231,534.7031 Q358.1923,534.1221 357.5988,533.8523 Q357.0053,533.5825 356.3744,533.5825 Q355.0297,533.5825 354.3449,534.6492 Q353.6601,535.7158 353.6601,537.8159 Q353.6601,539.9077 354.3449,540.9744 Q355.0297,542.041 356.3744,542.041 Q357.0053,542.041 357.5988,541.7712 Q358.1923,541.5015 358.8231,540.9204 Z "/><text fill="#000000" font-family="sans-serif" font-size="12" lengthAdjust="spacingAndGlyphs" textLength="164" x="372.15" y="542.5352">ReifiedRelationshipPredicate</text><line style="stroke: #000000; stroke-width: 1.5;" x1="331.5" x2="548.5" y1="554" y2="554"/><text fill="#000000" font-family="sans-serif" font-size="11" lengthAdjust="spacingAndGlyphs" textLength="207" x="336.5" y="568.6348">kind : ReifiedRelationshipPredicateKind</text><text fill="#000000" font-family="sans-serif" font-size="11" lengthAdjust="spacingAndGlyphs" textLength="193" x="336.5" y="581.5898">relationship : ReifiedRelationship [1]</text></a><!--class ReifiedRelationshipPredicateKind--><a target="_top" xlink:actuate="onRequest" xlink:href="#oml-ReifiedRelationshipPredicateKind" xlink:show="new" xlink:title="#oml-ReifiedRelationshipPredicateKind" xlink:type="simple"><rect fill="#FFFFFF" filter="url(#f1ku8wxzlh9ykh)" height="91.8203" id="ReifiedRelationshipPredicateKind" style="stroke: #000000; stroke-width: 1.5;" width="222" x="388" y="8"/><rect fill="#FFFFFF" height="32" style="stroke: #000000; stroke-width: 1.5;" width="222" x="388" y="8"/><ellipse cx="403" cy="24" fill="#EB937F" rx="11" ry="11" style="stroke: #000000; stroke-width: 1.0;"/><path d="M407.1143,30 L399.3945,30 L399.3945,17.6069 L407.1143,17.6069 L407.1143,19.7651 L401.8433,19.7651 L401.8433,22.438 L406.6162,22.438 L406.6162,24.5962 L401.8433,24.5962 L401.8433,27.8418 L407.1143,27.8418 Z "/><text fill="#000000" font-family="sans-serif" font-size="12" lengthAdjust="spacingAndGlyphs" textLength="190" x="417" y="28.5352">ReifiedRelationshipPredicateKind</text><line style="stroke: #000000; stroke-width: 1.5;" x1="389" x2="609" y1="40" y2="40"/><text fill="#000000" font-family="sans-serif" font-size="11" lengthAdjust="spacingAndGlyphs" textLength="37" x="394" y="54.6348">Source</text><text fill="#000000" font-family="sans-serif" font-size="11" lengthAdjust="spacingAndGlyphs" textLength="76" x="394" y="67.5898">InverseSource</text><text fill="#000000" font-family="sans-serif" font-size="11" lengthAdjust="spacingAndGlyphs" textLength="35" x="394" y="80.5449">Target</text><text fill="#000000" font-family="sans-serif" font-size="11" lengthAdjust="spacingAndGlyphs" textLength="74" x="394" y="93.5">InverseTarget</text></a><!--class Rule--><a target="_top" xlink:actuate="onRequest" xlink:href="#oml-Rule" xlink:show="new" xlink:title="#oml-Rule" xlink:type="simple"><rect fill="#FFFFFF" filter="url(#f1ku8wxzlh9ykh)" height="40" id="Rule" style="stroke: #000000; stroke-width: 1.5;" width="57" x="152.5" y="161"/><rect fill="#FFFFFF" height="32" style="stroke: #000000; stroke-width: 1.5;" width="57" x="152.5" y="161"/><ellipse cx="167.5" cy="177" fill="#ADD1B2" rx="11" ry="11" style="stroke: #000000; stroke-width: 1.0;"/><path d="M170.4731,182.6431 Q169.8921,182.9419 169.2529,183.0913 Q168.6138,183.2407 167.9082,183.2407 Q165.4014,183.2407 164.0815,181.5889 Q162.7617,179.937 162.7617,176.8159 Q162.7617,173.6865 164.0815,172.0347 Q165.4014,170.3828 167.9082,170.3828 Q168.6138,170.3828 169.2612,170.5322 Q169.9087,170.6816 170.4731,170.9805 L170.4731,173.7031 Q169.8423,173.1221 169.2488,172.8523 Q168.6553,172.5825 168.0244,172.5825 Q166.6797,172.5825 165.9949,173.6492 Q165.3101,174.7158 165.3101,176.8159 Q165.3101,178.9077 165.9949,179.9744 Q166.6797,181.041 168.0244,181.041 Q168.6553,181.041 169.2488,180.7712 Q169.8423,180.5015 170.4731,179.9204 Z "/><text fill="#000000" font-family="sans-serif" font-size="12" lengthAdjust="spacingAndGlyphs" textLength="25" x="181.5" y="181.5352">Rule</text><line style="stroke: #000000; stroke-width: 1.5;" x1="153.5" x2="208.5" y1="193" y2="193"/></a><!--class TerminologyMember--><a target="_top" xlink:actuate="onRequest" xlink:href="#oml-TerminologyMember" xlink:show="new" xlink:title="#oml-TerminologyMember" xlink:type="simple"><rect fill="#D3D3D3" filter="url(#f1ku8wxzlh9ykh)" height="32" id="TerminologyMember" style="stroke: #000000; stroke-width: 1.5;" width="151" x="201.5" y="38"/><ellipse cx="216.5" cy="54" fill="#A9DCDF" rx="11" ry="11" style="stroke: #000000; stroke-width: 1.0;"/><path d="M216.6133,49.3481 L215.4595,54.4199 L217.7754,54.4199 Z M215.1191,47.1069 L218.1157,47.1069 L221.4609,59.5 L219.0122,59.5 L218.2485,56.437 L214.9697,56.437 L214.2227,59.5 L211.7739,59.5 Z "/><text fill="#000000" font-family="sans-serif" font-size="12" font-style="italic" lengthAdjust="spacingAndGlyphs" textLength="119" x="230.5" y="58.5352">TerminologyMember</text></a><!--class TerminologyStatement--><a target="_top" xlink:actuate="onRequest" xlink:href="#oml-TerminologyStatement" xlink:show="new" xlink:title="#oml-TerminologyStatement" xlink:type="simple"><rect fill="#D3D3D3" filter="url(#f1ku8wxzlh9ykh)" height="32" id="TerminologyStatement" style="stroke: #000000; stroke-width: 1.5;" width="160" x="6" y="38"/><ellipse cx="21" cy="54" fill="#A9DCDF" rx="11" ry="11" style="stroke: #000000; stroke-width: 1.0;"/><path d="M21.1133,49.3481 L19.9595,54.4199 L22.2754,54.4199 Z M19.6191,47.1069 L22.6157,47.1069 L25.9609,59.5 L23.5122,59.5 L22.7485,56.437 L19.4697,56.437 L18.7227,59.5 L16.2739,59.5 Z "/><text fill="#000000" font-family="sans-serif" font-size="12" font-style="italic" lengthAdjust="spacingAndGlyphs" textLength="128" x="35" y="58.5352">TerminologyStatement</text></a><!--link RelationshipPredicate to DirectionalRelationshipPredicate--><a target="_top" xlink:actuate="onRequest" xlink:href="#oml-RelationshipPredicate" xlink:show="new" xlink:title="#oml-RelationshipPredicate" xlink:type="simple"><path d="M348.4036,469.3977 C305.5671,488.7579 255.8011,511.25 218.0339,528.3192 " fill="none" id="RelationshipPredicate-DirectionalRelationshipPredicate" style="stroke: #000000; stroke-width: 1.0;"/><polygon fill="none" points="345.7961,462.8945,366.9041,461.0362,351.562,475.652,345.7961,462.8945" style="stroke: #000000; stroke-width: 1.0;"/></a><!--link Predicate to EntityPredicate--><a target="_top" xlink:actuate="onRequest" xlink:href="#oml-Predicate" xlink:show="new" xlink:title="#oml-Predicate" xlink:type="simple"><path d="M281.8613,337.9018 C279.0574,356.127 275.775,377.4623 273.1084,394.7953 " fill="none" id="Predicate-EntityPredicate" style="stroke: #000000; stroke-width: 1.0;"/><polygon fill="none" points="274.959,336.7306,284.9188,318.0276,288.7962,338.8595,274.959,336.7306" style="stroke: #000000; stroke-width: 1.0;"/></a><!--link Element to Predicate--><a target="_top" xlink:actuate="onRequest" xlink:href="#oml-Element" xlink:show="new" xlink:title="#oml-Element" xlink:type="simple"><path d="M301.8178,217.1662 C298.3964,237.1808 294.2736,261.2994 291.4268,277.9535 " fill="none" id="Element-Predicate" style="stroke: #000000; stroke-width: 1.0;"/><polygon fill="none" points="294.9492,215.8029,305.2191,197.2683,308.749,218.1619,294.9492,215.8029" style="stroke: #000000; stroke-width: 1.0;"/></a><!--link RelationshipPredicate to ReifiedRelationshipPredicate--><a target="_top" xlink:actuate="onRequest" xlink:href="#oml-RelationshipPredicate" xlink:show="new" xlink:title="#oml-RelationshipPredicate" xlink:type="simple"><path d="M440,481.061 C440,494.8249 440,509.2615 440,521.688 " fill="none" id="RelationshipPredicate-ReifiedRelationshipPredicate" style="stroke: #000000; stroke-width: 1.0;"/><polygon fill="none" points="433.0001,481.0363,440,461.0362,447.0001,481.0362,433.0001,481.0363" style="stroke: #000000; stroke-width: 1.0;"/></a><!--link Predicate to RelationshipPredicate--><a target="_top" xlink:actuate="onRequest" xlink:href="#oml-Predicate" xlink:show="new" xlink:title="#oml-Predicate" xlink:type="simple"><path d="M326.8086,331.1916 C349.6194,350.7008 378.3626,375.2838 401.1761,394.7953 " fill="none" id="Predicate-RelationshipPredicate" style="stroke: #000000; stroke-width: 1.0;"/><polygon fill="none" points="322.0664,336.3467,311.4169,318.0276,331.1659,325.7072,322.0664,336.3467" style="stroke: #000000; stroke-width: 1.0;"/></a><!--link TerminologyMember to Rule--><a target="_top" xlink:actuate="onRequest" xlink:href="#oml-TerminologyMember" xlink:show="new" xlink:title="#oml-TerminologyMember" xlink:type="simple"><path d="M252.6181,86.2553 C234.8651,109.741 211.3709,140.8218 196.2198,160.8655 " fill="none" id="TerminologyMember-Rule" style="stroke: #000000; stroke-width: 1.0;"/><polygon fill="none" points="247.1971,81.8182,264.8415,70.0846,258.3654,90.2604,247.1971,81.8182" style="stroke: #000000; stroke-width: 1.0;"/></a><!--link TerminologyStatement to Rule--><a target="_top" xlink:actuate="onRequest" xlink:href="#oml-TerminologyStatement" xlink:show="new" xlink:title="#oml-TerminologyStatement" xlink:type="simple"><path d="M110.1279,86.2553 C127.696,109.741 150.9454,140.8218 165.9388,160.8655 " fill="none" id="TerminologyStatement-Rule" style="stroke: #000000; stroke-width: 1.0;"/><polygon fill="none" points="104.4064,90.2927,98.0318,70.0846,115.617,81.9068,104.4064,90.2927" style="stroke: #000000; stroke-width: 1.0;"/></a><!--link Rule to Predicate--><path d="M194.572,213.3461 C200.4174,225.0337 207.9957,237.8396 217,248 C224.251,256.182 233.091,263.7406 242.0381,270.3724 " fill="none" id="Rule-Predicate" style="stroke: #000000; stroke-width: 1.0;"/><polygon fill="#000000" points="252.9049,277.9818,247.827,269.5429,248.8092,275.1138,243.2383,276.096,252.9049,277.9818" style="stroke: #000000; stroke-width: 1.0;"/><line style="stroke: #000000; stroke-width: 1.0;" x1="248.8092" x2="242.2561" y1="275.1138" y2="270.5251"/><polygon fill="#000000" points="188.9237,201.2807,187.845,208.4107,194.0116,212.1487,195.0903,205.0188,188.9237,201.2807" style="stroke: #000000; stroke-width: 1.0;"/><text fill="#000000" font-family="sans-serif" font-size="13" lengthAdjust="spacingAndGlyphs" textLength="69" x="218" y="244.5684">antecedent</text><text fill="#000000" font-family="sans-serif" font-size="13" lengthAdjust="spacingAndGlyphs" textLength="6" x="235.2383" y="267.1703">*</text><!--link Rule to DirectionalRelationshipPredicate--><path d="M179.0364,214.3808 C174.9808,283.3268 165.6947,441.1895 161.3379,515.2565 " fill="none" id="Rule-DirectionalRelationshipPredicate" style="stroke: #000000; stroke-width: 1.0;"/><polygon fill="#000000" points="160.5596,528.4867,165.0813,519.7372,160.8533,523.4953,157.0951,519.2673,160.5596,528.4867" style="stroke: #000000; stroke-width: 1.0;"/><line style="stroke: #000000; stroke-width: 1.0;" x1="160.8533" x2="161.3231" y1="523.4953" y2="515.5092"/><polygon fill="#000000" points="179.8172,201.1079,175.4718,206.8626,179.1125,213.0872,183.4579,207.3324,179.8172,201.1079" style="stroke: #000000; stroke-width: 1.0;"/><text fill="#000000" font-family="sans-serif" font-size="13" lengthAdjust="spacingAndGlyphs" textLength="73" x="173" y="361.5684">consequent</text><text fill="#000000" font-family="sans-serif" font-size="13" lengthAdjust="spacingAndGlyphs" textLength="8" x="151.9648" y="517.8076">1</text><!--
@startuml
skinparam classBackgroundColor LightGray
skinparam classBorderColor Black
skinparam enumBorderColor Black
skinparam ArrowColor Black
hide methods
class DirectionalRelationshipPredicate [[#oml-DirectionalRelationshipPredicate]] #white {
	relationshipDirection : RelationshipDirection [1]
}
DirectionalRelationshipPredicate -up-|> RelationshipPredicate [[#oml-RelationshipPredicate]]
class EntityPredicate [[#oml-EntityPredicate]] #white {
	variable : String
	entity : Entity [1]
}
EntityPredicate -up-|> Predicate [[#oml-Predicate]]
abstract class Predicate [[#oml-Predicate]] #white {
}
abstract class Element [[#oml-Element]]
hide Element members
Predicate -up-|> Element [[#oml-Element]]
class ReifiedRelationshipPredicate [[#oml-ReifiedRelationshipPredicate]] #white {
	kind : ReifiedRelationshipPredicateKind
	relationship : ReifiedRelationship [1]
}
ReifiedRelationshipPredicate -up-|> RelationshipPredicate [[#oml-RelationshipPredicate]]
enum ReifiedRelationshipPredicateKind [[#oml-ReifiedRelationshipPredicateKind]] #white {
	Source
	InverseSource
	Target
	InverseTarget
}
abstract class RelationshipPredicate [[#oml-RelationshipPredicate]] #white {
	variable1 : String
	variable2 : String
}
RelationshipPredicate -up-|> Predicate [[#oml-Predicate]]
class Rule [[#oml-Rule]] #white {
}
abstract class TerminologyMember [[#oml-TerminologyMember]]
hide TerminologyMember members
abstract class TerminologyStatement [[#oml-TerminologyStatement]]
hide TerminologyStatement members
Rule -up-|> TerminologyMember [[#oml-TerminologyMember]]
Rule -up-|> TerminologyStatement [[#oml-TerminologyStatement]]
Rule *- -> "*" Predicate : antecedent
Rule *- -> "1" DirectionalRelationshipPredicate : consequent
@enduml

PlantUML version 1.2019.00(Sun Jan 13 07:46:42 PST 2019)
(GPL source distribution)
Java Runtime: Java(TM) SE Runtime Environment
JVM: Java HotSpot(TM) 64-Bit Server VM
Java Version: 1.8.0_181-b13
Operating System: Mac OS X
OS Version: 10.13.6
Default Encoding: UTF-8
Language: en
Country: US
--></g></svg>