<?xml version="1.0" encoding="UTF-8" standalone="no"?><svg xmlns="http://www.w3.org/2000/svg" xmlns:xlink="http://www.w3.org/1999/xlink" contentScriptType="application/ecmascript" contentStyleType="text/css" height="386px" preserveAspectRatio="none" style="width:1086px;height:386px;" version="1.1" viewBox="0 0 1086 386" width="1086px" zoomAndPan="magnify"><defs><filter height="300%" id="f12l75ialv5uo" width="300%" x="-1" y="-1"><feGaussianBlur result="blurOut" stdDeviation="2.0"/><feColorMatrix in="blurOut" result="blurOut2" type="matrix" values="0 0 0 0 0 0 0 0 0 0 0 0 0 0 0 0 0 0 .4 0"/><feOffset dx="4.0" dy="4.0" in="blurOut2" result="blurOut3"/><feBlend in="SourceGraphic" in2="blurOut3" mode="normal"/></filter></defs><g><!--class Aspect--><a target="_top" xlink:actuate="onRequest" xlink:href="#oml-Aspect" xlink:show="new" xlink:title="#oml-Aspect" xlink:type="simple"><rect fill="#FFFFFF" filter="url(#f12l75ialv5uo)" height="40" id="Aspect" style="stroke: #000000; stroke-width: 1.5;" width="71" x="696.5" y="335"/><rect fill="#FFFFFF" height="32" style="stroke: #000000; stroke-width: 1.5;" width="71" x="696.5" y="335"/><ellipse cx="711.5" cy="351" fill="#ADD1B2" rx="11" ry="11" style="stroke: #000000; stroke-width: 1.0;"/><path d="M714.4731,356.6431 Q713.8921,356.9419 713.2529,357.0913 Q712.6138,357.2407 711.9082,357.2407 Q709.4014,357.2407 708.0815,355.5889 Q706.7617,353.937 706.7617,350.8159 Q706.7617,347.6865 708.0815,346.0347 Q709.4014,344.3828 711.9082,344.3828 Q712.6138,344.3828 713.2612,344.5322 Q713.9087,344.6816 714.4731,344.9805 L714.4731,347.7031 Q713.8423,347.1221 713.2488,346.8523 Q712.6553,346.5825 712.0244,346.5825 Q710.6797,346.5825 709.9949,347.6492 Q709.3101,348.7158 709.3101,350.8159 Q709.3101,352.9077 709.9949,353.9744 Q710.6797,355.041 712.0244,355.041 Q712.6553,355.041 713.2488,354.7712 Q713.8423,354.5015 714.4731,353.9204 Z "/><text fill="#000000" font-family="sans-serif" font-size="12" lengthAdjust="spacingAndGlyphs" textLength="39" x="725.5" y="355.5352">Aspect</text><line style="stroke: #000000; stroke-width: 1.5;" x1="697.5" x2="766.5" y1="367" y2="367"/></a><!--class Entity--><a target="_top" xlink:actuate="onRequest" xlink:href="#oml-Entity" xlink:show="new" xlink:title="#oml-Entity" xlink:type="simple"><rect fill="#FFFFFF" filter="url(#f12l75ialv5uo)" height="40" id="Entity" style="stroke: #000000; stroke-width: 1.5;" width="63" x="755.5" y="159.5"/><rect fill="#FFFFFF" height="32" style="stroke: #000000; stroke-width: 1.5;" width="63" x="755.5" y="159.5"/><ellipse cx="770.5" cy="175.5" fill="#A9DCDF" rx="11" ry="11" style="stroke: #000000; stroke-width: 1.0;"/><path d="M770.6133,170.8481 L769.4595,175.9199 L771.7754,175.9199 Z M769.1191,168.6069 L772.1157,168.6069 L775.4609,181 L773.0122,181 L772.2485,177.937 L768.9697,177.937 L768.2227,181 L765.7739,181 Z "/><text fill="#000000" font-family="sans-serif" font-size="12" font-style="italic" lengthAdjust="spacingAndGlyphs" textLength="31" x="784.5" y="180.0352">Entity</text><line style="stroke: #000000; stroke-width: 1.5;" x1="756.5" x2="817.5" y1="191.5" y2="191.5"/></a><!--class Concept--><a target="_top" xlink:actuate="onRequest" xlink:href="#oml-Concept" xlink:show="new" xlink:title="#oml-Concept" xlink:type="simple"><rect fill="#FFFFFF" filter="url(#f12l75ialv5uo)" height="40" id="Concept" style="stroke: #000000; stroke-width: 1.5;" width="79" x="802.5" y="335"/><rect fill="#FFFFFF" height="32" style="stroke: #000000; stroke-width: 1.5;" width="79" x="802.5" y="335"/><ellipse cx="817.5" cy="351" fill="#ADD1B2" rx="11" ry="11" style="stroke: #000000; stroke-width: 1.0;"/><path d="M820.4731,356.6431 Q819.8921,356.9419 819.2529,357.0913 Q818.6138,357.2407 817.9082,357.2407 Q815.4014,357.2407 814.0815,355.5889 Q812.7617,353.937 812.7617,350.8159 Q812.7617,347.6865 814.0815,346.0347 Q815.4014,344.3828 817.9082,344.3828 Q818.6138,344.3828 819.2612,344.5322 Q819.9087,344.6816 820.4731,344.9805 L820.4731,347.7031 Q819.8423,347.1221 819.2488,346.8523 Q818.6553,346.5825 818.0244,346.5825 Q816.6797,346.5825 815.9949,347.6492 Q815.3101,348.7158 815.3101,350.8159 Q815.3101,352.9077 815.9949,353.9744 Q816.6797,355.041 818.0244,355.041 Q818.6553,355.041 819.2488,354.7712 Q819.8423,354.5015 820.4731,353.9204 Z "/><text fill="#000000" font-family="sans-serif" font-size="12" lengthAdjust="spacingAndGlyphs" textLength="47" x="831.5" y="355.5352">Concept</text><line style="stroke: #000000; stroke-width: 1.5;" x1="803.5" x2="880.5" y1="367" y2="367"/></a><!--class CharacterizableTerm--><a target="_top" xlink:actuate="onRequest" xlink:href="#oml-CharacterizableTerm" xlink:show="new" xlink:title="#oml-CharacterizableTerm" xlink:type="simple"><rect fill="#D3D3D3" filter="url(#f12l75ialv5uo)" height="32" id="CharacterizableTerm" style="stroke: #000000; stroke-width: 1.5;" width="154" x="710" y="8"/><ellipse cx="725" cy="24" fill="#A9DCDF" rx="11" ry="11" style="stroke: #000000; stroke-width: 1.0;"/><path d="M725.1133,19.3481 L723.9595,24.4199 L726.2754,24.4199 Z M723.6191,17.1069 L726.6157,17.1069 L729.9609,29.5 L727.5122,29.5 L726.7485,26.437 L723.4697,26.437 L722.7227,29.5 L720.2739,29.5 Z "/><text fill="#000000" font-family="sans-serif" font-size="12" font-style="italic" lengthAdjust="spacingAndGlyphs" textLength="122" x="739" y="28.5352">CharacterizableTerm</text></a><!--class EntityRestrictionAxiom--><a target="_top" xlink:actuate="onRequest" xlink:href="#oml-EntityRestrictionAxiom" xlink:show="new" xlink:title="#oml-EntityRestrictionAxiom" xlink:type="simple"><rect fill="#D3D3D3" filter="url(#f12l75ialv5uo)" height="32" id="EntityRestrictionAxiom" style="stroke: #000000; stroke-width: 1.5;" width="159" x="916.5" y="339"/><ellipse cx="931.5" cy="355" fill="#A9DCDF" rx="11" ry="11" style="stroke: #000000; stroke-width: 1.0;"/><path d="M931.6133,350.3481 L930.4595,355.4199 L932.7754,355.4199 Z M930.1191,348.1069 L933.1157,348.1069 L936.4609,360.5 L934.0122,360.5 L933.2485,357.437 L929.9697,357.437 L929.2227,360.5 L926.7739,360.5 Z "/><text fill="#000000" font-family="sans-serif" font-size="12" font-style="italic" lengthAdjust="spacingAndGlyphs" textLength="127" x="945.5" y="359.5352">EntityRestrictionAxiom</text></a><!--class ForwardDirection--><a target="_top" xlink:actuate="onRequest" xlink:href="#oml-ForwardDirection" xlink:show="new" xlink:title="#oml-ForwardDirection" xlink:type="simple"><rect fill="#FFFFFF" filter="url(#f12l75ialv5uo)" height="40" id="ForwardDirection" style="stroke: #000000; stroke-width: 1.5;" width="130" x="165" y="335"/><rect fill="#FFFFFF" height="32" style="stroke: #000000; stroke-width: 1.5;" width="130" x="165" y="335"/><ellipse cx="180" cy="351" fill="#ADD1B2" rx="11" ry="11" style="stroke: #000000; stroke-width: 1.0;"/><path d="M182.9731,356.6431 Q182.3921,356.9419 181.7529,357.0913 Q181.1138,357.2407 180.4082,357.2407 Q177.9014,357.2407 176.5815,355.5889 Q175.2617,353.937 175.2617,350.8159 Q175.2617,347.6865 176.5815,346.0347 Q177.9014,344.3828 180.4082,344.3828 Q181.1138,344.3828 181.7612,344.5322 Q182.4087,344.6816 182.9731,344.9805 L182.9731,347.7031 Q182.3423,347.1221 181.7488,346.8523 Q181.1553,346.5825 180.5244,346.5825 Q179.1797,346.5825 178.4949,347.6492 Q177.8101,348.7158 177.8101,350.8159 Q177.8101,352.9077 178.4949,353.9744 Q179.1797,355.041 180.5244,355.041 Q181.1553,355.041 181.7488,354.7712 Q182.3423,354.5015 182.9731,353.9204 Z "/><text fill="#000000" font-family="sans-serif" font-size="12" lengthAdjust="spacingAndGlyphs" textLength="98" x="194" y="355.5352">ForwardDirection</text><line style="stroke: #000000; stroke-width: 1.5;" x1="166" x2="294" y1="367" y2="367"/></a><!--class RelationshipDirection--><a target="_top" xlink:actuate="onRequest" xlink:href="#oml-RelationshipDirection" xlink:show="new" xlink:title="#oml-RelationshipDirection" xlink:type="simple"><rect fill="#FFFFFF" filter="url(#f12l75ialv5uo)" height="40" id="RelationshipDirection" style="stroke: #000000; stroke-width: 1.5;" width="153" x="69.5" y="159.5"/><rect fill="#FFFFFF" height="32" style="stroke: #000000; stroke-width: 1.5;" width="153" x="69.5" y="159.5"/><ellipse cx="84.5" cy="175.5" fill="#A9DCDF" rx="11" ry="11" style="stroke: #000000; stroke-width: 1.0;"/><path d="M84.6133,170.8481 L83.4595,175.9199 L85.7754,175.9199 Z M83.1191,168.6069 L86.1157,168.6069 L89.4609,181 L87.0122,181 L86.2485,177.937 L82.9697,177.937 L82.2227,181 L79.7739,181 Z "/><text fill="#000000" font-family="sans-serif" font-size="12" font-style="italic" lengthAdjust="spacingAndGlyphs" textLength="121" x="98.5" y="180.0352">RelationshipDirection</text><line style="stroke: #000000; stroke-width: 1.5;" x1="70.5" x2="221.5" y1="191.5" y2="191.5"/></a><!--class InverseDirection--><a target="_top" xlink:actuate="onRequest" xlink:href="#oml-InverseDirection" xlink:show="new" xlink:title="#oml-InverseDirection" xlink:type="simple"><rect fill="#FFFFFF" filter="url(#f12l75ialv5uo)" height="40" id="InverseDirection" style="stroke: #000000; stroke-width: 1.5;" width="124" x="6" y="335"/><rect fill="#FFFFFF" height="32" style="stroke: #000000; stroke-width: 1.5;" width="124" x="6" y="335"/><ellipse cx="21" cy="351" fill="#ADD1B2" rx="11" ry="11" style="stroke: #000000; stroke-width: 1.0;"/><path d="M23.9731,356.6431 Q23.3921,356.9419 22.7529,357.0913 Q22.1138,357.2407 21.4082,357.2407 Q18.9014,357.2407 17.5815,355.5889 Q16.2617,353.937 16.2617,350.8159 Q16.2617,347.6865 17.5815,346.0347 Q18.9014,344.3828 21.4082,344.3828 Q22.1138,344.3828 22.7612,344.5322 Q23.4087,344.6816 23.9731,344.9805 L23.9731,347.7031 Q23.3423,347.1221 22.7488,346.8523 Q22.1553,346.5825 21.5244,346.5825 Q20.1797,346.5825 19.4949,347.6492 Q18.8101,348.7158 18.8101,350.8159 Q18.8101,352.9077 19.4949,353.9744 Q20.1797,355.041 21.5244,355.041 Q22.1553,355.041 22.7488,354.7712 Q23.3423,354.5015 23.9731,353.9204 Z "/><text fill="#000000" font-family="sans-serif" font-size="12" lengthAdjust="spacingAndGlyphs" textLength="92" x="35" y="355.5352">InverseDirection</text><line style="stroke: #000000; stroke-width: 1.5;" x1="7" x2="129" y1="367" y2="367"/></a><!--class ReifiedRelationship--><a target="_top" xlink:actuate="onRequest" xlink:href="#oml-ReifiedRelationship" xlink:show="new" xlink:title="#oml-ReifiedRelationship" xlink:type="simple"><rect fill="#FFFFFF" filter="url(#f12l75ialv5uo)" height="40" id="ReifiedRelationship" style="stroke: #000000; stroke-width: 1.5;" width="142" x="519" y="335"/><rect fill="#FFFFFF" height="32" style="stroke: #000000; stroke-width: 1.5;" width="142" x="519" y="335"/><ellipse cx="534" cy="351" fill="#ADD1B2" rx="11" ry="11" style="stroke: #000000; stroke-width: 1.0;"/><path d="M536.9731,356.6431 Q536.3921,356.9419 535.7529,357.0913 Q535.1138,357.2407 534.4082,357.2407 Q531.9014,357.2407 530.5815,355.5889 Q529.2617,353.937 529.2617,350.8159 Q529.2617,347.6865 530.5815,346.0347 Q531.9014,344.3828 534.4082,344.3828 Q535.1138,344.3828 535.7612,344.5322 Q536.4087,344.6816 536.9731,344.9805 L536.9731,347.7031 Q536.3423,347.1221 535.7488,346.8523 Q535.1553,346.5825 534.5244,346.5825 Q533.1797,346.5825 532.4949,347.6492 Q531.8101,348.7158 531.8101,350.8159 Q531.8101,352.9077 532.4949,353.9744 Q533.1797,355.041 534.5244,355.041 Q535.1553,355.041 535.7488,354.7712 Q536.3423,354.5015 536.9731,353.9204 Z "/><text fill="#000000" font-family="sans-serif" font-size="12" lengthAdjust="spacingAndGlyphs" textLength="110" x="548" y="355.5352">ReifiedRelationship</text><line style="stroke: #000000; stroke-width: 1.5;" x1="520" x2="660" y1="367" y2="367"/></a><!--class Relationship--><a target="_top" xlink:actuate="onRequest" xlink:href="#oml-Relationship" xlink:show="new" xlink:title="#oml-Relationship" xlink:type="simple"><rect fill="#FFFFFF" filter="url(#f12l75ialv5uo)" height="156.5957" id="Relationship" style="stroke: #000000; stroke-width: 1.5;" width="158" x="293" y="101"/><rect fill="#FFFFFF" height="32" style="stroke: #000000; stroke-width: 1.5;" width="158" x="293" y="101"/><ellipse cx="333.2" cy="117" fill="#A9DCDF" rx="11" ry="11" style="stroke: #000000; stroke-width: 1.0;"/><path d="M333.3133,112.3481 L332.1595,117.4199 L334.4754,117.4199 Z M331.8191,110.1069 L334.8157,110.1069 L338.1609,122.5 L335.7122,122.5 L334.9485,119.437 L331.6697,119.437 L330.9227,122.5 L328.4739,122.5 Z "/><text fill="#000000" font-family="sans-serif" font-size="12" font-style="italic" lengthAdjust="spacingAndGlyphs" textLength="70" x="352.8" y="121.5352">Relationship</text><line style="stroke: #000000; stroke-width: 1.5;" x1="294" x2="450" y1="133" y2="133"/><text fill="#000000" font-family="sans-serif" font-size="11" lengthAdjust="spacingAndGlyphs" textLength="105" x="299" y="147.6348">functional : Boolean</text><text fill="#000000" font-family="sans-serif" font-size="11" lengthAdjust="spacingAndGlyphs" textLength="146" x="299" y="160.5898">inverseFunctional : Boolean</text><text fill="#000000" font-family="sans-serif" font-size="11" lengthAdjust="spacingAndGlyphs" textLength="107" x="299" y="173.5449">symmetric : Boolean</text><text fill="#000000" font-family="sans-serif" font-size="11" lengthAdjust="spacingAndGlyphs" textLength="113" x="299" y="186.5">asymmetric : Boolean</text><text fill="#000000" font-family="sans-serif" font-size="11" lengthAdjust="spacingAndGlyphs" textLength="97" x="299" y="199.4551">reflexive : Boolean</text><text fill="#000000" font-family="sans-serif" font-size="11" lengthAdjust="spacingAndGlyphs" textLength="105" x="299" y="212.4102">irreflexive : Boolean</text><text fill="#000000" font-family="sans-serif" font-size="11" lengthAdjust="spacingAndGlyphs" textLength="101" x="299" y="225.3652">transitive : Boolean</text><text fill="#000000" font-family="sans-serif" font-size="11" lengthAdjust="spacingAndGlyphs" textLength="94" x="299" y="238.3203">source : Entity [1]</text><text fill="#000000" font-family="sans-serif" font-size="11" lengthAdjust="spacingAndGlyphs" textLength="89" x="299" y="251.2754">target : Entity [1]</text></a><!--class Term--><a target="_top" xlink:actuate="onRequest" xlink:href="#oml-Term" xlink:show="new" xlink:title="#oml-Term" xlink:type="simple"><rect fill="#D3D3D3" filter="url(#f12l75ialv5uo)" height="32" id="Term" style="stroke: #000000; stroke-width: 1.5;" width="63" x="340.5" y="8"/><ellipse cx="355.5" cy="24" fill="#A9DCDF" rx="11" ry="11" style="stroke: #000000; stroke-width: 1.0;"/><path d="M355.6133,19.3481 L354.4595,24.4199 L356.7754,24.4199 Z M354.1191,17.1069 L357.1157,17.1069 L360.4609,29.5 L358.0122,29.5 L357.2485,26.437 L353.9697,26.437 L353.2227,29.5 L350.7739,29.5 Z "/><text fill="#000000" font-family="sans-serif" font-size="12" font-style="italic" lengthAdjust="spacingAndGlyphs" textLength="31" x="369.5" y="28.5352">Term</text></a><!--class TerminologyMember--><a target="_top" xlink:actuate="onRequest" xlink:href="#oml-TerminologyMember" xlink:show="new" xlink:title="#oml-TerminologyMember" xlink:type="simple"><rect fill="#D3D3D3" filter="url(#f12l75ialv5uo)" height="32" id="TerminologyMember" style="stroke: #000000; stroke-width: 1.5;" width="151" x="70.5" y="8"/><ellipse cx="85.5" cy="24" fill="#A9DCDF" rx="11" ry="11" style="stroke: #000000; stroke-width: 1.0;"/><path d="M85.6133,19.3481 L84.4595,24.4199 L86.7754,24.4199 Z M84.1191,17.1069 L87.1157,17.1069 L90.4609,29.5 L88.0122,29.5 L87.2485,26.437 L83.9697,26.437 L83.2227,29.5 L80.7739,29.5 Z "/><text fill="#000000" font-family="sans-serif" font-size="12" font-style="italic" lengthAdjust="spacingAndGlyphs" textLength="119" x="99.5" y="28.5352">TerminologyMember</text></a><!--class UnreifiedRelationship--><a target="_top" xlink:actuate="onRequest" xlink:href="#oml-UnreifiedRelationship" xlink:show="new" xlink:title="#oml-UnreifiedRelationship" xlink:type="simple"><rect fill="#FFFFFF" filter="url(#f12l75ialv5uo)" height="40" id="UnreifiedRelationship" style="stroke: #000000; stroke-width: 1.5;" width="154" x="330" y="335"/><rect fill="#FFFFFF" height="32" style="stroke: #000000; stroke-width: 1.5;" width="154" x="330" y="335"/><ellipse cx="345" cy="351" fill="#ADD1B2" rx="11" ry="11" style="stroke: #000000; stroke-width: 1.0;"/><path d="M347.9731,356.6431 Q347.3921,356.9419 346.7529,357.0913 Q346.1138,357.2407 345.4082,357.2407 Q342.9014,357.2407 341.5815,355.5889 Q340.2617,353.937 340.2617,350.8159 Q340.2617,347.6865 341.5815,346.0347 Q342.9014,344.3828 345.4082,344.3828 Q346.1138,344.3828 346.7612,344.5322 Q347.4087,344.6816 347.9731,344.9805 L347.9731,347.7031 Q347.3423,347.1221 346.7488,346.8523 Q346.1553,346.5825 345.5244,346.5825 Q344.1797,346.5825 343.4949,347.6492 Q342.8101,348.7158 342.8101,350.8159 Q342.8101,352.9077 343.4949,353.9744 Q344.1797,355.041 345.5244,355.041 Q346.1553,355.041 346.7488,354.7712 Q347.3423,354.5015 347.9731,353.9204 Z "/><text fill="#000000" font-family="sans-serif" font-size="12" lengthAdjust="spacingAndGlyphs" textLength="122" x="359" y="355.5352">UnreifiedRelationship</text><line style="stroke: #000000; stroke-width: 1.5;" x1="331" x2="483" y1="367" y2="367"/></a><!--link Entity to Aspect--><a target="_top" xlink:actuate="onRequest" xlink:href="#oml-Entity" xlink:show="new" xlink:title="#oml-Entity" xlink:type="simple"><path d="M774.64,218.9398 C763.3627,254.9243 747.1506,306.6557 738.3201,334.8331 " fill="none" id="Entity-Aspect" style="stroke: #000000; stroke-width: 1.0;"/><polygon fill="none" points="768.0301,216.6235,780.6908,199.6321,781.3894,220.8102,768.0301,216.6235" style="stroke: #000000; stroke-width: 1.0;"/></a><!--link Entity to Concept--><a target="_top" xlink:actuate="onRequest" xlink:href="#oml-Entity" xlink:show="new" xlink:title="#oml-Entity" xlink:type="simple"><path d="M799.36,218.9398 C810.6373,254.9243 826.8494,306.6557 835.6799,334.8331 " fill="none" id="Entity-Concept" style="stroke: #000000; stroke-width: 1.0;"/><polygon fill="none" points="792.6106,220.8102,793.3092,199.6321,805.9699,216.6235,792.6106,220.8102" style="stroke: #000000; stroke-width: 1.0;"/></a><!--link CharacterizableTerm to Entity--><a target="_top" xlink:actuate="onRequest" xlink:href="#oml-CharacterizableTerm" xlink:show="new" xlink:title="#oml-CharacterizableTerm" xlink:type="simple"><path d="M787,60.3429 C787,91.2125 787,134.378 787,159.3902 " fill="none" id="CharacterizableTerm-Entity" style="stroke: #000000; stroke-width: 1.0;"/><polygon fill="none" points="780.0001,60.0556,787,40.0555,794.0001,60.0555,780.0001,60.0556" style="stroke: #000000; stroke-width: 1.0;"/></a><!--link Entity to EntityRestrictionAxiom--><path d="M820.9972,208.0479 C861.5586,242.1078 928.6768,298.4679 966.9296,330.5892 " fill="none" id="Entity-EntityRestrictionAxiom" style="stroke: #000000; stroke-width: 1.0;"/><polygon fill="#000000" points="976.9073,338.9676,972.5873,330.1168,973.0782,335.7523,967.4427,336.2433,976.9073,338.9676" style="stroke: #000000; stroke-width: 1.0;"/><line style="stroke: #000000; stroke-width: 1.0;" x1="973.0782" x2="966.9518" y1="335.7523" y2="330.6078"/><polygon fill="#000000" points="810.975,199.6321,812.9976,206.5537,820.1647,207.3489,818.1421,200.4272,810.975,199.6321" style="stroke: #000000; stroke-width: 1.0;"/><text fill="#000000" font-family="sans-serif" font-size="13" lengthAdjust="spacingAndGlyphs" textLength="72" x="935" y="301.5684">restrictions</text><text fill="#000000" font-family="sans-serif" font-size="13" lengthAdjust="spacingAndGlyphs" textLength="6" x="963.0368" y="328.2079">*</text><!--link RelationshipDirection to ForwardDirection--><a target="_top" xlink:actuate="onRequest" xlink:href="#oml-RelationshipDirection" xlink:show="new" xlink:title="#oml-RelationshipDirection" xlink:type="simple"><path d="M155.6758,219.2001 C162.8188,244.6825 173.9214,277.9451 189,305 C194.9023,315.5902 203.1216,326.1438 210.6525,334.8069 " fill="none" id="RelationshipDirection-ForwardDirection" style="stroke: #000000; stroke-width: 1.0;"/><polygon fill="none" points="148.8243,220.6692,150.5121,199.5468,162.3647,217.1115,148.8243,220.6692" style="stroke: #000000; stroke-width: 1.0;"/></a><!--link RelationshipDirection to InverseDirection--><a target="_top" xlink:actuate="onRequest" xlink:href="#oml-RelationshipDirection" xlink:show="new" xlink:title="#oml-RelationshipDirection" xlink:type="simple"><path d="M128.9188,217.9327 C112.9097,253.9531 89.6037,306.3917 76.963,334.8331 " fill="none" id="RelationshipDirection-InverseDirection" style="stroke: #000000; stroke-width: 1.0;"/><polygon fill="none" points="122.5329,215.0653,137.0524,199.6321,135.3263,220.7513,122.5329,215.0653" style="stroke: #000000; stroke-width: 1.0;"/></a><!--link Entity to ReifiedRelationship--><a target="_top" xlink:actuate="onRequest" xlink:href="#oml-Entity" xlink:show="new" xlink:title="#oml-Entity" xlink:type="simple"><path d="M749.3642,213.0283 C708.9468,249.0347 646.0446,305.0719 612.6374,334.8331 " fill="none" id="Entity-ReifiedRelationship" style="stroke: #000000; stroke-width: 1.0;"/><polygon fill="none" points="744.8117,207.7091,764.4016,199.6321,754.1244,218.1626,744.8117,207.7091" style="stroke: #000000; stroke-width: 1.0;"/></a><!--link Relationship to ReifiedRelationship--><a target="_top" xlink:actuate="onRequest" xlink:href="#oml-Relationship" xlink:show="new" xlink:title="#oml-Relationship" xlink:type="simple"><path d="M466.8038,255.8214 C502.8053,284.8043 540.9087,315.4793 565.0416,334.9073 " fill="none" id="Relationship-ReifiedRelationship" style="stroke: #000000; stroke-width: 1.0;"/><polygon fill="none" points="462.2006,261.1021,451.0112,243.1077,470.9798,250.1968,462.2006,261.1021" style="stroke: #000000; stroke-width: 1.0;"/></a><!--link Term to Relationship--><a target="_top" xlink:actuate="onRequest" xlink:href="#oml-Term" xlink:show="new" xlink:title="#oml-Term" xlink:type="simple"><path d="M372,60.1614 C372,72.4261 372,86.6474 372,100.9065 " fill="none" id="Term-Relationship" style="stroke: #000000; stroke-width: 1.0;"/><polygon fill="none" points="365.0001,60.0556,372,40.0555,379.0001,60.0555,365.0001,60.0556" style="stroke: #000000; stroke-width: 1.0;"/></a><!--link Relationship to ForwardDirection--><path d="M315.4979,269.0738 C306.4598,281.5284 296.8308,293.8595 287,305 C280.533,312.3286 273.0224,319.6122 265.6176,326.2603 " fill="none" id="Relationship-ForwardDirection" style="stroke: #000000; stroke-width: 1.0;"/><polygon fill="#000000" points="255.6935,334.8767,265.1118,331.9966,259.469,331.5987,259.867,325.9558,255.6935,334.8767" style="stroke: #000000; stroke-width: 1.0;"/><line style="stroke: #000000; stroke-width: 1.0;" x1="259.469" x2="265.5099" y1="331.5987" y2="326.3538"/><polygon fill="#000000" points="323.2785,258.124,316.5425,260.6981,316.3277,267.906,323.0638,265.3319,323.2785,258.124" style="stroke: #000000; stroke-width: 1.0;"/><text fill="#000000" font-family="sans-serif" font-size="13" lengthAdjust="spacingAndGlyphs" textLength="48" x="302" y="301.5684">forward</text><text fill="#000000" font-family="sans-serif" font-size="13" lengthAdjust="spacingAndGlyphs" textLength="8" x="254.066" y="324.3763">1</text><!--link Relationship to InverseDirection--><path d="M281.4168,233.7417 C267.5743,241.9228 253.4286,250.2218 240,258 C198.2049,282.2087 150.3178,309.1505 115.7031,328.4848 " fill="none" id="Relationship-InverseDirection" style="stroke: #000000; stroke-width: 1.0;"/><polygon fill="#000000" points="104.0447,334.9893,113.8531,334.0973,108.4111,332.5531,109.9552,327.1111,104.0447,334.9893" style="stroke: #000000; stroke-width: 1.0;"/><line style="stroke: #000000; stroke-width: 1.0;" x1="108.4111" x2="115.3973" y1="332.5531" y2="328.6553"/><polygon fill="#000000" points="292.9508,226.9114,285.75,226.5269,282.6255,233.0259,289.8263,233.4104,292.9508,226.9114" style="stroke: #000000; stroke-width: 1.0;"/><text fill="#000000" font-family="sans-serif" font-size="13" lengthAdjust="spacingAndGlyphs" textLength="45" x="185" y="301.5684">inverse</text><text fill="#000000" font-family="sans-serif" font-size="13" lengthAdjust="spacingAndGlyphs" textLength="24" x="87.4084" y="324.1801">0..1</text><!--link TerminologyMember to RelationshipDirection--><a target="_top" xlink:actuate="onRequest" xlink:href="#oml-TerminologyMember" xlink:show="new" xlink:title="#oml-TerminologyMember" xlink:type="simple"><path d="M146,60.3429 C146,91.2125 146,134.378 146,159.3902 " fill="none" id="TerminologyMember-RelationshipDirection" style="stroke: #000000; stroke-width: 1.0;"/><polygon fill="none" points="139.0001,60.0556,146,40.0555,153.0001,60.0555,139.0001,60.0556" style="stroke: #000000; stroke-width: 1.0;"/></a><!--link Relationship to UnreifiedRelationship--><a target="_top" xlink:actuate="onRequest" xlink:href="#oml-Relationship" xlink:show="new" xlink:title="#oml-Relationship" xlink:type="simple"><path d="M391.5705,277.6321 C395.9068,299.3753 400.071,320.2561 402.9781,334.8331 " fill="none" id="Relationship-UnreifiedRelationship" style="stroke: #000000; stroke-width: 1.0;"/><polygon fill="none" points="384.7042,278.9932,387.6573,258.0104,398.4338,276.2551,384.7042,278.9932" style="stroke: #000000; stroke-width: 1.0;"/></a><!--
@startuml
skinparam classBackgroundColor LightGray
skinparam classBorderColor Black
skinparam enumBorderColor Black
skinparam ArrowColor Black
hide methods
class Aspect [[#oml-Aspect]] #white {
}
Aspect -up-|> Entity [[#oml-Entity]]
class Concept [[#oml-Concept]] #white {
}
Concept -up-|> Entity [[#oml-Entity]]
abstract class Entity [[#oml-Entity]] #white {
}
abstract class CharacterizableTerm [[#oml-CharacterizableTerm]]
hide CharacterizableTerm members
abstract class EntityRestrictionAxiom [[#oml-EntityRestrictionAxiom]]
hide EntityRestrictionAxiom members
Entity -up-|> CharacterizableTerm [[#oml-CharacterizableTerm]]
Entity *- -> "*" EntityRestrictionAxiom : restrictions
class ForwardDirection [[#oml-ForwardDirection]] #white {
}
ForwardDirection -up-|> RelationshipDirection [[#oml-RelationshipDirection]]
class InverseDirection [[#oml-InverseDirection]] #white {
}
InverseDirection -up-|> RelationshipDirection [[#oml-RelationshipDirection]]
class ReifiedRelationship [[#oml-ReifiedRelationship]] #white {
}
ReifiedRelationship -up-|> Entity [[#oml-Entity]]
ReifiedRelationship -up-|> Relationship [[#oml-Relationship]]
abstract class Relationship [[#oml-Relationship]] #white {
	functional : Boolean
	inverseFunctional : Boolean
	symmetric : Boolean
	asymmetric : Boolean
	reflexive : Boolean
	irreflexive : Boolean
	transitive : Boolean
	source : Entity [1]
	target : Entity [1]
}
abstract class Term [[#oml-Term]]
hide Term members
Relationship -up-|> Term [[#oml-Term]]
Relationship *- -> "1" ForwardDirection : forward
Relationship *- -> "0..1" InverseDirection : inverse
abstract class RelationshipDirection [[#oml-RelationshipDirection]] #white {
}
abstract class TerminologyMember [[#oml-TerminologyMember]]
hide TerminologyMember members
RelationshipDirection -up-|> TerminologyMember [[#oml-TerminologyMember]]
class UnreifiedRelationship [[#oml-UnreifiedRelationship]] #white {
}
UnreifiedRelationship -up-|> Relationship [[#oml-Relationship]]
@enduml

PlantUML version 1.2019.00(Sun Jan 13 07:46:42 PST 2019)
(GPL source distribution)
Java Runtime: Java(TM) SE Runtime Environment
JVM: Java HotSpot(TM) 64-Bit Server VM
Java Version: 1.8.0_181-b13
Operating System: Mac OS X
OS Version: 10.13.6
Default Encoding: UTF-8
Language: en
Country: US
--></g></svg>