<?xml version="1.0" encoding="UTF-8" standalone="no"?><svg xmlns="http://www.w3.org/2000/svg" xmlns:xlink="http://www.w3.org/1999/xlink" contentScriptType="application/ecmascript" contentStyleType="text/css" height="544px" preserveAspectRatio="none" style="width:1070px;height:544px;" version="1.1" viewBox="0 0 1070 544" width="1070px" zoomAndPan="magnify"><defs><filter height="300%" id="fuz7qnfep1i9e" width="300%" x="-1" y="-1"><feGaussianBlur result="blurOut" stdDeviation="2.0"/><feColorMatrix in="blurOut" result="blurOut2" type="matrix" values="0 0 0 0 0 0 0 0 0 0 0 0 0 0 0 0 0 0 .4 0"/><feOffset dx="4.0" dy="4.0" in="blurOut2" result="blurOut3"/><feBlend in="SourceGraphic" in2="blurOut3" mode="normal"/></filter></defs><g><!--class Description--><a target="_top" xlink:actuate="onRequest" xlink:href="#oml-Description" xlink:show="new" xlink:title="#oml-Description" xlink:type="simple"><rect fill="#FFFFFF" filter="url(#fuz7qnfep1i9e)" height="52.9551" id="Description" style="stroke: #000000; stroke-width: 1.5;" width="130" x="549.5116" y="255.5"/><rect fill="#FFFFFF" height="32" style="stroke: #000000; stroke-width: 1.5;" width="130" x="549.5116" y="255.5"/><ellipse cx="579.3616" cy="271.5" fill="#ADD1B2" rx="11" ry="11" style="stroke: #000000; stroke-width: 1.0;"/><path d="M582.3347,277.1431 Q581.7537,277.4419 581.1145,277.5913 Q580.4754,277.7407 579.7698,277.7407 Q577.263,277.7407 575.9431,276.0889 Q574.6233,274.437 574.6233,271.3159 Q574.6233,268.1865 575.9431,266.5347 Q577.263,264.8828 579.7698,264.8828 Q580.4754,264.8828 581.1228,265.0322 Q581.7703,265.1816 582.3347,265.4805 L582.3347,268.2031 Q581.7039,267.6221 581.1104,267.3523 Q580.5169,267.0825 579.886,267.0825 Q578.5413,267.0825 577.8565,268.1492 Q577.1717,269.2158 577.1717,271.3159 Q577.1717,273.4077 577.8565,274.4744 Q578.5413,275.541 579.886,275.541 Q580.5169,275.541 581.1104,275.2712 Q581.7039,275.0015 582.3347,274.4204 Z "/><text fill="#000000" font-family="sans-serif" font-size="12" lengthAdjust="spacingAndGlyphs" textLength="65" x="596.6616" y="276.0352">Description</text><line style="stroke: #000000; stroke-width: 1.5;" x1="550.5116" x2="678.5116" y1="287.5" y2="287.5"/><text fill="#000000" font-family="sans-serif" font-size="11" lengthAdjust="spacingAndGlyphs" textLength="118" x="555.5116" y="302.1348">kind : DescriptionKind</text></a><!--class Graph--><a target="_top" xlink:actuate="onRequest" xlink:href="#oml-Graph" xlink:show="new" xlink:title="#oml-Graph" xlink:type="simple"><rect fill="#FFFFFF" filter="url(#fuz7qnfep1i9e)" height="52.9551" id="Graph" style="stroke: #000000; stroke-width: 1.5;" width="68" x="412.5116" y="135"/><rect fill="#FFFFFF" height="32" style="stroke: #000000; stroke-width: 1.5;" width="68" x="412.5116" y="135"/><ellipse cx="427.5116" cy="151" fill="#A9DCDF" rx="11" ry="11" style="stroke: #000000; stroke-width: 1.0;"/><path d="M427.6249,146.3481 L426.4711,151.4199 L428.787,151.4199 Z M426.1307,144.1069 L429.1273,144.1069 L432.4725,156.5 L430.0238,156.5 L429.2601,153.437 L425.9813,153.437 L425.2343,156.5 L422.7855,156.5 Z "/><text fill="#000000" font-family="sans-serif" font-size="12" font-style="italic" lengthAdjust="spacingAndGlyphs" textLength="36" x="441.5116" y="155.5352">Graph</text><line style="stroke: #000000; stroke-width: 1.5;" x1="413.5116" x2="479.5116" y1="167" y2="167"/><text fill="#000000" font-family="sans-serif" font-size="11" lengthAdjust="spacingAndGlyphs" textLength="52" x="418.5116" y="181.6348">iri : String</text></a><!--class DescriptionImport--><a target="_top" xlink:actuate="onRequest" xlink:href="#oml-DescriptionImport" xlink:show="new" xlink:title="#oml-DescriptionImport" xlink:type="simple"><rect fill="#FFFFFF" filter="url(#fuz7qnfep1i9e)" height="40" id="DescriptionImport" style="stroke: #000000; stroke-width: 1.5;" width="135" x="729.0116" y="392"/><rect fill="#FFFFFF" height="32" style="stroke: #000000; stroke-width: 1.5;" width="135" x="729.0116" y="392"/><ellipse cx="744.0116" cy="408" fill="#A9DCDF" rx="11" ry="11" style="stroke: #000000; stroke-width: 1.0;"/><path d="M744.1249,403.3481 L742.9711,408.4199 L745.287,408.4199 Z M742.6307,401.1069 L745.6273,401.1069 L748.9725,413.5 L746.5238,413.5 L745.7601,410.437 L742.4813,410.437 L741.7343,413.5 L739.2855,413.5 Z "/><text fill="#000000" font-family="sans-serif" font-size="12" font-style="italic" lengthAdjust="spacingAndGlyphs" textLength="103" x="758.0116" y="412.5352">DescriptionImport</text><line style="stroke: #000000; stroke-width: 1.5;" x1="730.0116" x2="863.0116" y1="424" y2="424"/></a><!--class DescriptionStatement--><a target="_top" xlink:actuate="onRequest" xlink:href="#oml-DescriptionStatement" xlink:show="new" xlink:title="#oml-DescriptionStatement" xlink:type="simple"><rect fill="#FFFFFF" filter="url(#fuz7qnfep1i9e)" height="40" id="DescriptionStatement" style="stroke: #000000; stroke-width: 1.5;" width="154" x="356.5116" y="392"/><rect fill="#FFFFFF" height="32" style="stroke: #000000; stroke-width: 1.5;" width="154" x="356.5116" y="392"/><ellipse cx="371.5116" cy="408" fill="#A9DCDF" rx="11" ry="11" style="stroke: #000000; stroke-width: 1.0;"/><path d="M371.6249,403.3481 L370.4711,408.4199 L372.787,408.4199 Z M370.1307,401.1069 L373.1273,401.1069 L376.4725,413.5 L374.0238,413.5 L373.2601,410.437 L369.9813,410.437 L369.2343,413.5 L366.7855,413.5 Z "/><text fill="#000000" font-family="sans-serif" font-size="12" font-style="italic" lengthAdjust="spacingAndGlyphs" textLength="122" x="385.5116" y="412.5352">DescriptionStatement</text><line style="stroke: #000000; stroke-width: 1.5;" x1="357.5116" x2="509.5116" y1="424" y2="424"/></a><!--class GraphImport--><a target="_top" xlink:actuate="onRequest" xlink:href="#oml-GraphImport" xlink:show="new" xlink:title="#oml-GraphImport" xlink:type="simple"><rect fill="#FFFFFF" filter="url(#fuz7qnfep1i9e)" height="65.9102" id="GraphImport" style="stroke: #000000; stroke-width: 1.5;" width="163" x="715.0116" y="249"/><rect fill="#FFFFFF" height="32" style="stroke: #000000; stroke-width: 1.5;" width="163" x="715.0116" y="249"/><ellipse cx="755.6616" cy="265" fill="#A9DCDF" rx="11" ry="11" style="stroke: #000000; stroke-width: 1.0;"/><path d="M755.7749,260.3481 L754.6211,265.4199 L756.937,265.4199 Z M754.2807,258.1069 L757.2773,258.1069 L760.6225,270.5 L758.1738,270.5 L757.4101,267.437 L754.1313,267.437 L753.3843,270.5 L750.9355,270.5 Z "/><text fill="#000000" font-family="sans-serif" font-size="12" font-style="italic" lengthAdjust="spacingAndGlyphs" textLength="74" x="775.3616" y="269.5352">GraphImport</text><line style="stroke: #000000; stroke-width: 1.5;" x1="716.0116" x2="877.0116" y1="281" y2="281"/><text fill="#000000" font-family="sans-serif" font-size="11" lengthAdjust="spacingAndGlyphs" textLength="95" x="721.0116" y="295.6348">importURI : String</text><text fill="#000000" font-family="sans-serif" font-size="11" lengthAdjust="spacingAndGlyphs" textLength="151" x="721.0116" y="308.5898">importedNamespace : String</text></a><!--class DescriptionKind--><a target="_top" xlink:actuate="onRequest" xlink:href="#oml-DescriptionKind" xlink:show="new" xlink:title="#oml-DescriptionKind" xlink:type="simple"><rect fill="#FFFFFF" filter="url(#fuz7qnfep1i9e)" height="65.9102" id="DescriptionKind" style="stroke: #000000; stroke-width: 1.5;" width="123" x="372.0116" y="8"/><rect fill="#FFFFFF" height="32" style="stroke: #000000; stroke-width: 1.5;" width="123" x="372.0116" y="8"/><ellipse cx="387.0116" cy="24" fill="#EB937F" rx="11" ry="11" style="stroke: #000000; stroke-width: 1.0;"/><path d="M391.1259,30 L383.4061,30 L383.4061,17.6069 L391.1259,17.6069 L391.1259,19.7651 L385.8549,19.7651 L385.8549,22.438 L390.6278,22.438 L390.6278,24.5962 L385.8549,24.5962 L385.8549,27.8418 L391.1259,27.8418 Z "/><text fill="#000000" font-family="sans-serif" font-size="12" lengthAdjust="spacingAndGlyphs" textLength="91" x="401.0116" y="28.5352">DescriptionKind</text><line style="stroke: #000000; stroke-width: 1.5;" x1="373.0116" x2="494.0116" y1="40" y2="40"/><text fill="#000000" font-family="sans-serif" font-size="11" lengthAdjust="spacingAndGlyphs" textLength="25" x="378.0116" y="54.6348">Final</text><text fill="#000000" font-family="sans-serif" font-size="11" lengthAdjust="spacingAndGlyphs" textLength="33" x="378.0116" y="67.5898">Partial</text></a><!--class DescriptionMember--><a target="_top" xlink:actuate="onRequest" xlink:href="#oml-DescriptionMember" xlink:show="new" xlink:title="#oml-DescriptionMember" xlink:type="simple"><rect fill="#FFFFFF" filter="url(#fuz7qnfep1i9e)" height="40" id="DescriptionMember" style="stroke: #000000; stroke-width: 1.5;" width="145" x="132.0116" y="493"/><rect fill="#FFFFFF" height="32" style="stroke: #000000; stroke-width: 1.5;" width="145" x="132.0116" y="493"/><ellipse cx="147.0116" cy="509" fill="#A9DCDF" rx="11" ry="11" style="stroke: #000000; stroke-width: 1.0;"/><path d="M147.1249,504.3481 L145.9711,509.4199 L148.287,509.4199 Z M145.6307,502.1069 L148.6273,502.1069 L151.9725,514.5 L149.5238,514.5 L148.7601,511.437 L145.4813,511.437 L144.7343,514.5 L142.2855,514.5 Z "/><text fill="#000000" font-family="sans-serif" font-size="12" font-style="italic" lengthAdjust="spacingAndGlyphs" textLength="113" x="161.0116" y="513.5352">DescriptionMember</text><line style="stroke: #000000; stroke-width: 1.5;" x1="133.0116" x2="276.0116" y1="525" y2="525"/></a><!--class GraphMember--><a target="_top" xlink:actuate="onRequest" xlink:href="#oml-GraphMember" xlink:show="new" xlink:title="#oml-GraphMember" xlink:type="simple"><rect fill="#FFFFFF" filter="url(#fuz7qnfep1i9e)" height="40" id="GraphMember" style="stroke: #000000; stroke-width: 1.5;" width="116" x="49.5116" y="141.5"/><rect fill="#FFFFFF" height="32" style="stroke: #000000; stroke-width: 1.5;" width="116" x="49.5116" y="141.5"/><ellipse cx="64.5116" cy="157.5" fill="#A9DCDF" rx="11" ry="11" style="stroke: #000000; stroke-width: 1.0;"/><path d="M64.6249,152.8481 L63.4711,157.9199 L65.787,157.9199 Z M63.1307,150.6069 L66.1273,150.6069 L69.4725,163 L67.0238,163 L66.2601,159.937 L62.9813,159.937 L62.2343,163 L59.7855,163 Z "/><text fill="#000000" font-family="sans-serif" font-size="12" font-style="italic" lengthAdjust="spacingAndGlyphs" textLength="84" x="78.5116" y="162.0352">GraphMember</text><line style="stroke: #000000; stroke-width: 1.5;" x1="50.5116" x2="164.5116" y1="173.5" y2="173.5"/></a><!--class DescriptionRefinement--><a target="_top" xlink:actuate="onRequest" xlink:href="#oml-DescriptionRefinement" xlink:show="new" xlink:title="#oml-DescriptionRefinement" xlink:type="simple"><rect fill="#FFFFFF" filter="url(#fuz7qnfep1i9e)" height="40" id="DescriptionRefinement" style="stroke: #000000; stroke-width: 1.5;" width="162" x="897.5116" y="493"/><rect fill="#FFFFFF" height="32" style="stroke: #000000; stroke-width: 1.5;" width="162" x="897.5116" y="493"/><ellipse cx="912.5116" cy="509" fill="#ADD1B2" rx="11" ry="11" style="stroke: #000000; stroke-width: 1.0;"/><path d="M915.4847,514.6431 Q914.9037,514.9419 914.2645,515.0913 Q913.6254,515.2407 912.9198,515.2407 Q910.413,515.2407 909.0931,513.5889 Q907.7733,511.937 907.7733,508.8159 Q907.7733,505.6865 909.0931,504.0347 Q910.413,502.3828 912.9198,502.3828 Q913.6254,502.3828 914.2728,502.5322 Q914.9203,502.6816 915.4847,502.9805 L915.4847,505.7031 Q914.8539,505.1221 914.2604,504.8523 Q913.6669,504.5825 913.036,504.5825 Q911.6913,504.5825 911.0065,505.6492 Q910.3217,506.7158 910.3217,508.8159 Q910.3217,510.9077 911.0065,511.9744 Q911.6913,513.041 913.036,513.041 Q913.6669,513.041 914.2604,512.7712 Q914.8539,512.5015 915.4847,511.9204 Z "/><text fill="#000000" font-family="sans-serif" font-size="12" lengthAdjust="spacingAndGlyphs" textLength="130" x="926.5116" y="513.5352">DescriptionRefinement</text><line style="stroke: #000000; stroke-width: 1.5;" x1="898.5116" x2="1058.5116" y1="525" y2="525"/></a><!--class GraphStatement--><a target="_top" xlink:actuate="onRequest" xlink:href="#oml-GraphStatement" xlink:show="new" xlink:title="#oml-GraphStatement" xlink:type="simple"><rect fill="#FFFFFF" filter="url(#fuz7qnfep1i9e)" height="40" id="GraphStatement" style="stroke: #000000; stroke-width: 1.5;" width="125" x="218.0116" y="262"/><rect fill="#FFFFFF" height="32" style="stroke: #000000; stroke-width: 1.5;" width="125" x="218.0116" y="262"/><ellipse cx="233.0116" cy="278" fill="#A9DCDF" rx="11" ry="11" style="stroke: #000000; stroke-width: 1.0;"/><path d="M233.1249,273.3481 L231.9711,278.4199 L234.287,278.4199 Z M231.6307,271.1069 L234.6273,271.1069 L237.9725,283.5 L235.5238,283.5 L234.7601,280.437 L231.4813,280.437 L230.7343,283.5 L228.2855,283.5 Z "/><text fill="#000000" font-family="sans-serif" font-size="12" font-style="italic" lengthAdjust="spacingAndGlyphs" textLength="93" x="247.0116" y="282.5352">GraphStatement</text><line style="stroke: #000000; stroke-width: 1.5;" x1="219.0116" x2="342.0116" y1="294" y2="294"/></a><!--class DescriptionUsage--><a target="_top" xlink:actuate="onRequest" xlink:href="#oml-DescriptionUsage" xlink:show="new" xlink:title="#oml-DescriptionUsage" xlink:type="simple"><rect fill="#FFFFFF" filter="url(#fuz7qnfep1i9e)" height="40" id="DescriptionUsage" style="stroke: #000000; stroke-width: 1.5;" width="132" x="730.5116" y="493"/><rect fill="#FFFFFF" height="32" style="stroke: #000000; stroke-width: 1.5;" width="132" x="730.5116" y="493"/><ellipse cx="745.5116" cy="509" fill="#ADD1B2" rx="11" ry="11" style="stroke: #000000; stroke-width: 1.0;"/><path d="M748.4847,514.6431 Q747.9037,514.9419 747.2645,515.0913 Q746.6254,515.2407 745.9198,515.2407 Q743.413,515.2407 742.0931,513.5889 Q740.7733,511.937 740.7733,508.8159 Q740.7733,505.6865 742.0931,504.0347 Q743.413,502.3828 745.9198,502.3828 Q746.6254,502.3828 747.2728,502.5322 Q747.9203,502.6816 748.4847,502.9805 L748.4847,505.7031 Q747.8539,505.1221 747.2604,504.8523 Q746.6669,504.5825 746.036,504.5825 Q744.6913,504.5825 744.0065,505.6492 Q743.3217,506.7158 743.3217,508.8159 Q743.3217,510.9077 744.0065,511.9744 Q744.6913,513.041 746.036,513.041 Q746.6669,513.041 747.2604,512.7712 Q747.8539,512.5015 748.4847,511.9204 Z "/><text fill="#000000" font-family="sans-serif" font-size="12" lengthAdjust="spacingAndGlyphs" textLength="100" x="759.5116" y="513.5352">DescriptionUsage</text><line style="stroke: #000000; stroke-width: 1.5;" x1="731.5116" x2="861.5116" y1="525" y2="525"/></a><!--class NamedElement--><a target="_top" xlink:actuate="onRequest" xlink:href="#oml-NamedElement" xlink:show="new" xlink:title="#oml-NamedElement" xlink:type="simple"><rect fill="#D3D3D3" filter="url(#fuz7qnfep1i9e)" height="32" id="NamedElement" style="stroke: #000000; stroke-width: 1.5;" width="120" x="216.5116" y="25"/><ellipse cx="231.5116" cy="41" fill="#A9DCDF" rx="11" ry="11" style="stroke: #000000; stroke-width: 1.0;"/><path d="M231.6249,36.3481 L230.4711,41.4199 L232.787,41.4199 Z M230.1307,34.1069 L233.1273,34.1069 L236.4725,46.5 L234.0238,46.5 L233.2601,43.437 L229.9813,43.437 L229.2343,46.5 L226.7855,46.5 Z "/><text fill="#000000" font-family="sans-serif" font-size="12" font-style="italic" lengthAdjust="spacingAndGlyphs" textLength="88" x="245.5116" y="45.5352">NamedElement</text></a><!--class Element--><a target="_top" xlink:actuate="onRequest" xlink:href="#oml-Element" xlink:show="new" xlink:title="#oml-Element" xlink:type="simple"><rect fill="#D3D3D3" filter="url(#fuz7qnfep1i9e)" height="32" id="Element" style="stroke: #000000; stroke-width: 1.5;" width="78" x="757.5116" y="145.5"/><ellipse cx="772.5116" cy="161.5" fill="#A9DCDF" rx="11" ry="11" style="stroke: #000000; stroke-width: 1.0;"/><path d="M772.6249,156.8481 L771.4711,161.9199 L773.787,161.9199 Z M771.1307,154.6069 L774.1273,154.6069 L777.4725,167 L775.0238,167 L774.2601,163.937 L770.9813,163.937 L770.2343,167 L767.7855,167 Z "/><text fill="#000000" font-family="sans-serif" font-size="12" font-style="italic" lengthAdjust="spacingAndGlyphs" textLength="46" x="786.5116" y="166.0352">Element</text></a><!--class AnnotatedElement--><a target="_top" xlink:actuate="onRequest" xlink:href="#oml-AnnotatedElement" xlink:show="new" xlink:title="#oml-AnnotatedElement" xlink:type="simple"><rect fill="#D3D3D3" filter="url(#fuz7qnfep1i9e)" height="32" id="AnnotatedElement" style="stroke: #000000; stroke-width: 1.5;" width="137" x="212.0116" y="145.5"/><ellipse cx="227.0116" cy="161.5" fill="#A9DCDF" rx="11" ry="11" style="stroke: #000000; stroke-width: 1.0;"/><path d="M227.1249,156.8481 L225.9711,161.9199 L228.287,161.9199 Z M225.6307,154.6069 L228.6273,154.6069 L231.9725,167 L229.5238,167 L228.7601,163.937 L225.4813,163.937 L224.7343,167 L222.2855,167 Z "/><text fill="#000000" font-family="sans-serif" font-size="12" font-style="italic" lengthAdjust="spacingAndGlyphs" textLength="105" x="241.0116" y="166.0352">AnnotatedElement</text></a><!--class Terminology--><a target="_top" xlink:actuate="onRequest" xlink:href="#oml-Terminology" xlink:show="new" xlink:title="#oml-Terminology" xlink:type="simple"><rect fill="#FFFFFF" filter="url(#fuz7qnfep1i9e)" height="52.9551" id="Terminology" style="stroke: #000000; stroke-width: 1.5;" width="136" x="378.5116" y="255.5"/><rect fill="#FFFFFF" height="32" style="stroke: #000000; stroke-width: 1.5;" width="136" x="378.5116" y="255.5"/><ellipse cx="408.3616" cy="271.5" fill="#ADD1B2" rx="11" ry="11" style="stroke: #000000; stroke-width: 1.0;"/><path d="M411.3347,277.1431 Q410.7537,277.4419 410.1145,277.5913 Q409.4754,277.7407 408.7698,277.7407 Q406.263,277.7407 404.9431,276.0889 Q403.6233,274.437 403.6233,271.3159 Q403.6233,268.1865 404.9431,266.5347 Q406.263,264.8828 408.7698,264.8828 Q409.4754,264.8828 410.1228,265.0322 Q410.7703,265.1816 411.3347,265.4805 L411.3347,268.2031 Q410.7039,267.6221 410.1104,267.3523 Q409.5169,267.0825 408.886,267.0825 Q407.5413,267.0825 406.8565,268.1492 Q406.1717,269.2158 406.1717,271.3159 Q406.1717,273.4077 406.8565,274.4744 Q407.5413,275.541 408.886,275.541 Q409.5169,275.541 410.1104,275.2712 Q410.7039,275.0015 411.3347,274.4204 Z "/><text fill="#000000" font-family="sans-serif" font-size="12" lengthAdjust="spacingAndGlyphs" textLength="71" x="425.6616" y="276.0352">Terminology</text><line style="stroke: #000000; stroke-width: 1.5;" x1="379.5116" x2="513.5116" y1="287.5" y2="287.5"/><text fill="#000000" font-family="sans-serif" font-size="11" lengthAdjust="spacingAndGlyphs" textLength="124" x="384.5116" y="302.1348">kind : TerminologyKind</text></a><!--class TerminologyImport--><a target="_top" xlink:actuate="onRequest" xlink:href="#oml-TerminologyImport" xlink:show="new" xlink:title="#oml-TerminologyImport" xlink:type="simple"><rect fill="#FFFFFF" filter="url(#fuz7qnfep1i9e)" height="40" id="TerminologyImport" style="stroke: #000000; stroke-width: 1.5;" width="141" x="546.0116" y="392"/><rect fill="#FFFFFF" height="32" style="stroke: #000000; stroke-width: 1.5;" width="141" x="546.0116" y="392"/><ellipse cx="561.0116" cy="408" fill="#A9DCDF" rx="11" ry="11" style="stroke: #000000; stroke-width: 1.0;"/><path d="M561.1249,403.3481 L559.9711,408.4199 L562.287,408.4199 Z M559.6307,401.1069 L562.6273,401.1069 L565.9725,413.5 L563.5238,413.5 L562.7601,410.437 L559.4813,410.437 L558.7343,413.5 L556.2855,413.5 Z "/><text fill="#000000" font-family="sans-serif" font-size="12" font-style="italic" lengthAdjust="spacingAndGlyphs" textLength="109" x="575.0116" y="412.5352">TerminologyImport</text><line style="stroke: #000000; stroke-width: 1.5;" x1="547.0116" x2="686.0116" y1="424" y2="424"/></a><!--class TerminologyStatement--><a target="_top" xlink:actuate="onRequest" xlink:href="#oml-TerminologyStatement" xlink:show="new" xlink:title="#oml-TerminologyStatement" xlink:type="simple"><rect fill="#FFFFFF" filter="url(#fuz7qnfep1i9e)" height="40" id="TerminologyStatement" style="stroke: #000000; stroke-width: 1.5;" width="160" x="161.5116" y="392"/><rect fill="#FFFFFF" height="32" style="stroke: #000000; stroke-width: 1.5;" width="160" x="161.5116" y="392"/><ellipse cx="176.5116" cy="408" fill="#A9DCDF" rx="11" ry="11" style="stroke: #000000; stroke-width: 1.0;"/><path d="M176.6249,403.3481 L175.4711,408.4199 L177.787,408.4199 Z M175.1307,401.1069 L178.1273,401.1069 L181.4725,413.5 L179.0238,413.5 L178.2601,410.437 L174.9813,410.437 L174.2343,413.5 L171.7855,413.5 Z "/><text fill="#000000" font-family="sans-serif" font-size="12" font-style="italic" lengthAdjust="spacingAndGlyphs" textLength="128" x="190.5116" y="412.5352">TerminologyStatement</text><line style="stroke: #000000; stroke-width: 1.5;" x1="162.5116" x2="320.5116" y1="424" y2="424"/></a><!--class TerminologyExtension--><a target="_top" xlink:actuate="onRequest" xlink:href="#oml-TerminologyExtension" xlink:show="new" xlink:title="#oml-TerminologyExtension" xlink:type="simple"><rect fill="#FFFFFF" filter="url(#fuz7qnfep1i9e)" height="40" id="TerminologyExtension" style="stroke: #000000; stroke-width: 1.5;" width="158" x="537.5116" y="493"/><rect fill="#FFFFFF" height="32" style="stroke: #000000; stroke-width: 1.5;" width="158" x="537.5116" y="493"/><ellipse cx="552.5116" cy="509" fill="#ADD1B2" rx="11" ry="11" style="stroke: #000000; stroke-width: 1.0;"/><path d="M555.4847,514.6431 Q554.9037,514.9419 554.2645,515.0913 Q553.6254,515.2407 552.9198,515.2407 Q550.413,515.2407 549.0931,513.5889 Q547.7733,511.937 547.7733,508.8159 Q547.7733,505.6865 549.0931,504.0347 Q550.413,502.3828 552.9198,502.3828 Q553.6254,502.3828 554.2728,502.5322 Q554.9203,502.6816 555.4847,502.9805 L555.4847,505.7031 Q554.8539,505.1221 554.2604,504.8523 Q553.6669,504.5825 553.036,504.5825 Q551.6913,504.5825 551.0065,505.6492 Q550.3217,506.7158 550.3217,508.8159 Q550.3217,510.9077 551.0065,511.9744 Q551.6913,513.041 553.036,513.041 Q553.6669,513.041 554.2604,512.7712 Q554.8539,512.5015 555.4847,511.9204 Z "/><text fill="#000000" font-family="sans-serif" font-size="12" lengthAdjust="spacingAndGlyphs" textLength="126" x="566.5116" y="513.5352">TerminologyExtension</text><line style="stroke: #000000; stroke-width: 1.5;" x1="538.5116" x2="694.5116" y1="525" y2="525"/></a><!--class TerminologyKind--><a target="_top" xlink:actuate="onRequest" xlink:href="#oml-TerminologyKind" xlink:show="new" xlink:title="#oml-TerminologyKind" xlink:type="simple"><rect fill="#FFFFFF" filter="url(#fuz7qnfep1i9e)" height="65.9102" id="TerminologyKind" style="stroke: #000000; stroke-width: 1.5;" width="129" x="530.0116" y="8"/><rect fill="#FFFFFF" height="32" style="stroke: #000000; stroke-width: 1.5;" width="129" x="530.0116" y="8"/><ellipse cx="545.0116" cy="24" fill="#EB937F" rx="11" ry="11" style="stroke: #000000; stroke-width: 1.0;"/><path d="M549.1259,30 L541.4061,30 L541.4061,17.6069 L549.1259,17.6069 L549.1259,19.7651 L543.8549,19.7651 L543.8549,22.438 L548.6278,22.438 L548.6278,24.5962 L543.8549,24.5962 L543.8549,27.8418 L549.1259,27.8418 Z "/><text fill="#000000" font-family="sans-serif" font-size="12" lengthAdjust="spacingAndGlyphs" textLength="97" x="559.0116" y="28.5352">TerminologyKind</text><line style="stroke: #000000; stroke-width: 1.5;" x1="531.0116" x2="658.0116" y1="40" y2="40"/><text fill="#000000" font-family="sans-serif" font-size="11" lengthAdjust="spacingAndGlyphs" textLength="29" x="536.0116" y="54.6348">Open</text><text fill="#000000" font-family="sans-serif" font-size="11" lengthAdjust="spacingAndGlyphs" textLength="37" x="536.0116" y="67.5898">Closed</text></a><!--class TerminologyMember--><a target="_top" xlink:actuate="onRequest" xlink:href="#oml-TerminologyMember" xlink:show="new" xlink:title="#oml-TerminologyMember" xlink:type="simple"><rect fill="#FFFFFF" filter="url(#fuz7qnfep1i9e)" height="40" id="TerminologyMember" style="stroke: #000000; stroke-width: 1.5;" width="151" x="32.0116" y="262"/><rect fill="#FFFFFF" height="32" style="stroke: #000000; stroke-width: 1.5;" width="151" x="32.0116" y="262"/><ellipse cx="47.0116" cy="278" fill="#A9DCDF" rx="11" ry="11" style="stroke: #000000; stroke-width: 1.0;"/><path d="M47.1249,273.3481 L45.9711,278.4199 L48.287,278.4199 Z M45.6307,271.1069 L48.6273,271.1069 L51.9725,283.5 L49.5238,283.5 L48.7601,280.437 L45.4813,280.437 L44.7343,283.5 L42.2855,283.5 Z "/><text fill="#000000" font-family="sans-serif" font-size="12" font-style="italic" lengthAdjust="spacingAndGlyphs" textLength="119" x="61.0116" y="282.5352">TerminologyMember</text><line style="stroke: #000000; stroke-width: 1.5;" x1="33.0116" x2="182.0116" y1="294" y2="294"/></a><!--link Graph to Description--><a target="_top" xlink:actuate="onRequest" xlink:href="#oml-Graph" xlink:show="new" xlink:title="#oml-Graph" xlink:type="simple"><path d="M497.4362,198.0263 C523.247,216.5394 554.016,238.6088 577.532,255.476 " fill="none" id="Graph-Description" style="stroke: #000000; stroke-width: 1.0;"/><polygon fill="none" points="493.0862,203.5207,480.9143,186.1757,501.2459,192.1444,493.0862,203.5207" style="stroke: #000000; stroke-width: 1.0;"/></a><!--link Description to DescriptionImport--><path d="M662.7959,316.4888 C692.4457,337.6673 729.9209,364.4353 757.6494,384.2413 " fill="none" id="Description-DescriptionImport" style="stroke: #000000; stroke-width: 1.0;"/><polygon fill="#000000" points="768.5094,391.9985,763.5108,383.5124,764.4407,389.0923,758.8608,390.0223,768.5094,391.9985" style="stroke: #000000; stroke-width: 1.0;"/><line style="stroke: #000000; stroke-width: 1.0;" x1="764.4407" x2="757.9309" y1="389.0923" y2="384.4423"/><polygon fill="#000000" points="651.7812,308.6211,654.3386,315.3635,661.546,315.596,658.9886,308.8536,651.7812,308.6211" style="stroke: #000000; stroke-width: 1.0;"/><text fill="#000000" font-family="sans-serif" font-size="13" lengthAdjust="spacingAndGlyphs" textLength="49" x="722.5116" y="358.5684">imports</text><text fill="#000000" font-family="sans-serif" font-size="13" lengthAdjust="spacingAndGlyphs" textLength="6" x="753.015" y="381.1921">*</text><!--link Description to DescriptionStatement--><path d="M579.4948,318.0141 C564.2802,332.6218 545.7812,349.0622 527.5116,362 C515.5001,370.506 501.8668,378.5578 488.7825,385.6151 " fill="none" id="Description-DescriptionStatement" style="stroke: #000000; stroke-width: 1.0;"/><polygon fill="#000000" points="476.983,391.8012,486.8113,391.1649,481.4113,389.4796,483.0967,384.0796,476.983,391.8012" style="stroke: #000000; stroke-width: 1.0;"/><line style="stroke: #000000; stroke-width: 1.0;" x1="481.4113" x2="488.4967" y1="389.4796" y2="385.7649"/><polygon fill="#000000" points="588.9833,308.7347,581.8969,310.0701,580.4041,317.125,587.4904,315.7896,588.9833,308.7347" style="stroke: #000000; stroke-width: 1.0;"/><text fill="#000000" font-family="sans-serif" font-size="13" lengthAdjust="spacingAndGlyphs" textLength="70" x="548.5116" y="358.5684">statements</text><text fill="#000000" font-family="sans-serif" font-size="13" lengthAdjust="spacingAndGlyphs" textLength="6" x="482.8715" y="381.2786">*</text><!--link GraphImport to DescriptionImport--><a target="_top" xlink:actuate="onRequest" xlink:href="#oml-GraphImport" xlink:show="new" xlink:title="#oml-GraphImport" xlink:type="simple"><path d="M796.5116,335.4225 C796.5116,355.353 796.5116,376.7842 796.5116,391.8913 " fill="none" id="GraphImport-DescriptionImport" style="stroke: #000000; stroke-width: 1.0;"/><polygon fill="none" points="789.5117,335.1409,796.5116,315.1409,803.5117,335.1408,789.5117,335.1409" style="stroke: #000000; stroke-width: 1.0;"/></a><!--link GraphMember to DescriptionMember--><a target="_top" xlink:actuate="onRequest" xlink:href="#oml-GraphMember" xlink:show="new" xlink:title="#oml-GraphMember" xlink:type="simple"><path d="M59.0577,193.9384 C41.5931,208.4942 23.8901,227.299 14.5116,249 C2.8747,275.9264 3.5661,287.7853 14.5116,315 C46.7768,395.2243 128.7961,461.2195 173.8014,492.8366 " fill="none" id="GraphMember-DescriptionMember" style="stroke: #000000; stroke-width: 1.0;"/><polygon fill="none" points="55,188.228,75.1155,181.5671,63.5443,199.3184,55,188.228" style="stroke: #000000; stroke-width: 1.0;"/></a><!--link DescriptionStatement to DescriptionMember--><a target="_top" xlink:actuate="onRequest" xlink:href="#oml-DescriptionStatement" xlink:show="new" xlink:title="#oml-DescriptionStatement" xlink:type="simple"><path d="M369.6157,440.1811 C331.5634,456.964 284.1765,477.8639 249.9422,492.9629 " fill="none" id="DescriptionStatement-DescriptionMember" style="stroke: #000000; stroke-width: 1.0;"/><polygon fill="none" points="366.8707,433.7413,387.9947,432.0751,372.5203,446.5507,366.8707,433.7413" style="stroke: #000000; stroke-width: 1.0;"/></a><!--link DescriptionImport to DescriptionRefinement--><a target="_top" xlink:actuate="onRequest" xlink:href="#oml-DescriptionImport" xlink:show="new" xlink:title="#oml-DescriptionImport" xlink:type="simple"><path d="M850.795,442.1243 C880.3173,458.5076 916.034,478.3284 942.1816,492.8389 " fill="none" id="DescriptionImport-DescriptionRefinement" style="stroke: #000000; stroke-width: 1.0;"/><polygon fill="none" points="846.9956,448.0216,832.9046,432.1961,853.7889,435.7802,846.9956,448.0216" style="stroke: #000000; stroke-width: 1.0;"/></a><!--link GraphStatement to DescriptionStatement--><a target="_top" xlink:actuate="onRequest" xlink:href="#oml-GraphStatement" xlink:show="new" xlink:title="#oml-GraphStatement" xlink:type="simple"><path d="M291.9855,321.0978 C297.7614,335.4124 306.038,350.8235 317.5116,362 C330.6285,374.7773 347.5297,384.5388 364.3511,391.8926 " fill="none" id="GraphStatement-DescriptionStatement" style="stroke: #000000; stroke-width: 1.0;"/><polygon fill="none" points="285.3535,323.3383,285.4129,302.1488,298.5805,318.7504,285.3535,323.3383" style="stroke: #000000; stroke-width: 1.0;"/></a><!--link DescriptionImport to DescriptionUsage--><a target="_top" xlink:actuate="onRequest" xlink:href="#oml-DescriptionImport" xlink:show="new" xlink:title="#oml-DescriptionImport" xlink:type="simple"><path d="M796.5116,452.7259 C796.5116,466.5702 796.5116,481.4334 796.5116,492.9362 " fill="none" id="DescriptionImport-DescriptionUsage" style="stroke: #000000; stroke-width: 1.0;"/><polygon fill="none" points="789.5117,452.4389,796.5116,432.4389,803.5117,452.4388,789.5117,452.4389" style="stroke: #000000; stroke-width: 1.0;"/></a><!--link NamedElement to Graph--><a target="_top" xlink:actuate="onRequest" xlink:href="#oml-NamedElement" xlink:show="new" xlink:title="#oml-NamedElement" xlink:type="simple"><path d="M315.7539,68.8159 C344.9694,89.5245 384.4594,117.5159 412.3739,137.3024 " fill="none" id="NamedElement-Graph" style="stroke: #000000; stroke-width: 1.0;"/><polygon fill="none" points="311.355,74.278,299.0862,57.0015,319.451,62.8563,311.355,74.278" style="stroke: #000000; stroke-width: 1.0;"/></a><!--link Element to GraphImport--><a target="_top" xlink:actuate="onRequest" xlink:href="#oml-Element" xlink:show="new" xlink:title="#oml-Element" xlink:type="simple"><path d="M796.5116,197.8706 C796.5116,214.0466 796.5116,232.9625 796.5116,248.7564 " fill="none" id="Element-GraphImport" style="stroke: #000000; stroke-width: 1.0;"/><polygon fill="none" points="789.5117,197.7512,796.5116,177.7512,803.5117,197.7511,789.5117,197.7512" style="stroke: #000000; stroke-width: 1.0;"/></a><!--link NamedElement to GraphMember--><a target="_top" xlink:actuate="onRequest" xlink:href="#oml-NamedElement" xlink:show="new" xlink:title="#oml-NamedElement" xlink:type="simple"><path d="M237.7354,68.6481 C206.5969,90.8504 163.605,121.5044 135.6824,141.4137 " fill="none" id="NamedElement-GraphMember" style="stroke: #000000; stroke-width: 1.0;"/><polygon fill="none" points="233.7213,62.913,254.0697,57.0015,241.8491,74.3122,233.7213,62.913" style="stroke: #000000; stroke-width: 1.0;"/></a><!--link AnnotatedElement to GraphStatement--><a target="_top" xlink:actuate="onRequest" xlink:href="#oml-AnnotatedElement" xlink:show="new" xlink:title="#oml-AnnotatedElement" xlink:type="simple"><path d="M280.5116,198.0103 C280.5116,218.8591 280.5116,244.2224 280.5116,261.5865 " fill="none" id="AnnotatedElement-GraphStatement" style="stroke: #000000; stroke-width: 1.0;"/><polygon fill="none" points="273.5117,197.7512,280.5116,177.7512,287.5117,197.7511,273.5117,197.7512" style="stroke: #000000; stroke-width: 1.0;"/></a><!--link Graph to Terminology--><a target="_top" xlink:actuate="onRequest" xlink:href="#oml-Graph" xlink:show="new" xlink:title="#oml-Graph" xlink:type="simple"><path d="M446.5116,208.363 C446.5116,224.2929 446.5116,241.5377 446.5116,255.3319 " fill="none" id="Graph-Terminology" style="stroke: #000000; stroke-width: 1.0;"/><polygon fill="none" points="439.5117,208.2429,446.5116,188.2429,453.5117,208.2428,439.5117,208.2429" style="stroke: #000000; stroke-width: 1.0;"/></a><!--link Terminology to TerminologyImport--><path d="M451.7856,321.2805 C455.4879,335.6556 461.7886,351.0608 472.5116,362 C481.9871,371.6667 506.8842,381.5918 533.3647,390.0253 " fill="none" id="Terminology-TerminologyImport" style="stroke: #000000; stroke-width: 1.0;"/><polygon fill="#000000" points="546.0101,393.913,538.583,387.4448,541.2309,392.4437,536.232,395.0916,546.0101,393.913" style="stroke: #000000; stroke-width: 1.0;"/><line style="stroke: #000000; stroke-width: 1.0;" x1="541.2309" x2="533.5841" y1="392.4437" y2="390.0927"/><polygon fill="#000000" points="449.0638,308.5262,446.4042,315.2289,451.5684,320.2619,454.228,313.5592,449.0638,308.5262" style="stroke: #000000; stroke-width: 1.0;"/><text fill="#000000" font-family="sans-serif" font-size="13" lengthAdjust="spacingAndGlyphs" textLength="49" x="473.5116" y="358.5684">imports</text><text fill="#000000" font-family="sans-serif" font-size="13" lengthAdjust="spacingAndGlyphs" textLength="6" x="531.9709" y="388.6998">*</text><!--link Terminology to TerminologyStatement--><path d="M393.114,315.8619 C359.1579,337.395 315.7882,364.8977 284.142,384.9661 " fill="none" id="Terminology-TerminologyStatement" style="stroke: #000000; stroke-width: 1.0;"/><polygon fill="#000000" points="273.0524,391.9985,282.7951,390.5566,277.2749,389.3208,278.5107,383.8005,273.0524,391.9985" style="stroke: #000000; stroke-width: 1.0;"/><line style="stroke: #000000; stroke-width: 1.0;" x1="277.2749" x2="284.0311" y1="389.3208" y2="385.0364"/><polygon fill="#000000" points="404.5321,308.6211,397.3229,308.4563,394.398,315.0476,401.6072,315.2124,404.5321,308.6211" style="stroke: #000000; stroke-width: 1.0;"/><text fill="#000000" font-family="sans-serif" font-size="13" lengthAdjust="spacingAndGlyphs" textLength="70" x="344.5116" y="358.5684">statements</text><text fill="#000000" font-family="sans-serif" font-size="13" lengthAdjust="spacingAndGlyphs" textLength="6" x="275.793" y="381.1921">*</text><!--link TerminologyImport to TerminologyExtension--><a target="_top" xlink:actuate="onRequest" xlink:href="#oml-TerminologyImport" xlink:show="new" xlink:title="#oml-TerminologyImport" xlink:type="simple"><path d="M616.5116,452.7259 C616.5116,466.5702 616.5116,481.4334 616.5116,492.9362 " fill="none" id="TerminologyImport-TerminologyExtension" style="stroke: #000000; stroke-width: 1.0;"/><polygon fill="none" points="609.5117,452.4389,616.5116,432.4389,623.5117,452.4388,609.5117,452.4389" style="stroke: #000000; stroke-width: 1.0;"/></a><!--link GraphImport to TerminologyImport--><a target="_top" xlink:actuate="onRequest" xlink:href="#oml-GraphImport" xlink:show="new" xlink:title="#oml-GraphImport" xlink:type="simple"><path d="M764.0262,331.2679 C755.088,342.3731 744.7313,353.4034 733.5116,362 C717.38,374.3601 697.7324,384.2939 679.1793,391.949 " fill="none" id="GraphImport-TerminologyImport" style="stroke: #000000; stroke-width: 1.0;"/><polygon fill="none" points="758.4521,327.0333,776.0423,315.2186,769.6591,335.424,758.4521,327.0333" style="stroke: #000000; stroke-width: 1.0;"/></a><!--link GraphMember to TerminologyMember--><a target="_top" xlink:actuate="onRequest" xlink:href="#oml-GraphMember" xlink:show="new" xlink:title="#oml-GraphMember" xlink:type="simple"><path d="M107.5116,201.7184 C107.5116,221.8766 107.5116,245.4108 107.5116,261.7652 " fill="none" id="GraphMember-TerminologyMember" style="stroke: #000000; stroke-width: 1.0;"/><polygon fill="none" points="100.5117,201.669,107.5116,181.669,114.5117,201.669,100.5117,201.669" style="stroke: #000000; stroke-width: 1.0;"/></a><!--link GraphStatement to TerminologyStatement--><a target="_top" xlink:actuate="onRequest" xlink:href="#oml-GraphStatement" xlink:show="new" xlink:title="#oml-GraphStatement" xlink:type="simple"><path d="M268.6754,321.4538 C261.717,344.6486 253.2102,373.0046 247.5909,391.7355 " fill="none" id="GraphStatement-TerminologyStatement" style="stroke: #000000; stroke-width: 1.0;"/><polygon fill="none" points="262.0515,319.1727,274.5033,302.0276,275.461,323.1956,262.0515,319.1727" style="stroke: #000000; stroke-width: 1.0;"/></a><!--
@startuml
skinparam classBackgroundColor LightGray
skinparam classBorderColor Black
skinparam enumBorderColor Black
skinparam ArrowColor Black
hide methods
class Description [[#oml-Description]] #white {
	kind : DescriptionKind
}
Description -up-|> Graph [[#oml-Graph]]
Description *- -> "*" DescriptionImport : imports
Description *- -> "*" DescriptionStatement : statements
abstract class DescriptionImport [[#oml-DescriptionImport]] #white {
}
DescriptionImport -up-|> GraphImport [[#oml-GraphImport]]
enum DescriptionKind [[#oml-DescriptionKind]] #white {
	Final
	Partial
}
abstract class DescriptionMember [[#oml-DescriptionMember]] #white {
}
DescriptionMember -up-|> GraphMember [[#oml-GraphMember]]
DescriptionMember -up-|> DescriptionStatement [[#oml-DescriptionStatement]]
class DescriptionRefinement [[#oml-DescriptionRefinement]] #white {
}
DescriptionRefinement -up-|> DescriptionImport [[#oml-DescriptionImport]]
abstract class DescriptionStatement [[#oml-DescriptionStatement]] #white {
}
DescriptionStatement -up-|> GraphStatement [[#oml-GraphStatement]]
class DescriptionUsage [[#oml-DescriptionUsage]] #white {
}
DescriptionUsage -up-|> DescriptionImport [[#oml-DescriptionImport]]
abstract class Graph [[#oml-Graph]] #white {
	iri : String
}
abstract class NamedElement [[#oml-NamedElement]]
hide NamedElement members
Graph -up-|> NamedElement [[#oml-NamedElement]]
abstract class GraphImport [[#oml-GraphImport]] #white {
	importURI : String
	importedNamespace : String
}
abstract class Element [[#oml-Element]]
hide Element members
GraphImport -up-|> Element [[#oml-Element]]
abstract class GraphMember [[#oml-GraphMember]] #white {
}
abstract class NamedElement [[#oml-NamedElement]]
hide NamedElement members
GraphMember -up-|> NamedElement [[#oml-NamedElement]]
abstract class GraphStatement [[#oml-GraphStatement]] #white {
}
abstract class AnnotatedElement [[#oml-AnnotatedElement]]
hide AnnotatedElement members
GraphStatement -up-|> AnnotatedElement [[#oml-AnnotatedElement]]
class Terminology [[#oml-Terminology]] #white {
	kind : TerminologyKind
}
Terminology -up-|> Graph [[#oml-Graph]]
Terminology *- -> "*" TerminologyImport : imports
Terminology *- -> "*" TerminologyStatement : statements
class TerminologyExtension [[#oml-TerminologyExtension]] #white {
}
TerminologyExtension -up-|> TerminologyImport [[#oml-TerminologyImport]]
abstract class TerminologyImport [[#oml-TerminologyImport]] #white {
}
TerminologyImport -up-|> GraphImport [[#oml-GraphImport]]
enum TerminologyKind [[#oml-TerminologyKind]] #white {
	Open
	Closed
}
abstract class TerminologyMember [[#oml-TerminologyMember]] #white {
}
TerminologyMember -up-|> GraphMember [[#oml-GraphMember]]
abstract class TerminologyStatement [[#oml-TerminologyStatement]] #white {
}
TerminologyStatement -up-|> GraphStatement [[#oml-GraphStatement]]
@enduml

PlantUML version 1.2019.00(Sun Jan 13 07:46:42 PST 2019)
(GPL source distribution)
Java Runtime: Java(TM) SE Runtime Environment
JVM: Java HotSpot(TM) 64-Bit Server VM
Java Version: 1.8.0_181-b13
Operating System: Mac OS X
OS Version: 10.13.6
Default Encoding: UTF-8
Language: en
Country: US
--></g></svg>