<?xml version="1.0" encoding="UTF-8" standalone="no"?><svg xmlns="http://www.w3.org/2000/svg" xmlns:xlink="http://www.w3.org/1999/xlink" contentScriptType="application/ecmascript" contentStyleType="text/css" height="399px" preserveAspectRatio="none" style="width:364px;height:399px;" version="1.1" viewBox="0 0 364 399" width="364px" zoomAndPan="magnify"><defs><filter height="300%" id="f11uwl9az8obio" width="300%" x="-1" y="-1"><feGaussianBlur result="blurOut" stdDeviation="2.0"/><feColorMatrix in="blurOut" result="blurOut2" type="matrix" values="0 0 0 0 0 0 0 0 0 0 0 0 0 0 0 0 0 0 .4 0"/><feOffset dx="4.0" dy="4.0" in="blurOut2" result="blurOut3"/><feBlend in="SourceGraphic" in2="blurOut3" mode="normal"/></filter></defs><g><!--class AnnotatedElement--><a target="_top" xlink:actuate="onRequest" xlink:href="#oml-AnnotatedElement" xlink:show="new" xlink:title="#oml-AnnotatedElement" xlink:type="simple"><rect fill="#FFFFFF" filter="url(#f11uwl9az8obio)" height="40" id="AnnotatedElement" style="stroke: #000000; stroke-width: 1.5;" width="137" x="66.5" y="109"/><rect fill="#FFFFFF" height="32" style="stroke: #000000; stroke-width: 1.5;" width="137" x="66.5" y="109"/><ellipse cx="81.5" cy="125" fill="#A9DCDF" rx="11" ry="11" style="stroke: #000000; stroke-width: 1.0;"/><path d="M81.6133,120.3481 L80.4595,125.4199 L82.7754,125.4199 Z M80.1191,118.1069 L83.1157,118.1069 L86.4609,130.5 L84.0122,130.5 L83.2485,127.437 L79.9697,127.437 L79.2227,130.5 L76.7739,130.5 Z "/><text fill="#000000" font-family="sans-serif" font-size="12" font-style="italic" lengthAdjust="spacingAndGlyphs" textLength="105" x="95.5" y="129.5352">AnnotatedElement</text><line style="stroke: #000000; stroke-width: 1.5;" x1="67.5" x2="202.5" y1="141" y2="141"/></a><!--class Element--><a target="_top" xlink:actuate="onRequest" xlink:href="#oml-Element" xlink:show="new" xlink:title="#oml-Element" xlink:type="simple"><rect fill="#FFFFFF" filter="url(#f11uwl9az8obio)" height="40" id="Element" style="stroke: #000000; stroke-width: 1.5;" width="78" x="157" y="8"/><rect fill="#FFFFFF" height="32" style="stroke: #000000; stroke-width: 1.5;" width="78" x="157" y="8"/><ellipse cx="172" cy="24" fill="#A9DCDF" rx="11" ry="11" style="stroke: #000000; stroke-width: 1.0;"/><path d="M172.1133,19.3481 L170.9595,24.4199 L173.2754,24.4199 Z M170.6191,17.1069 L173.6157,17.1069 L176.9609,29.5 L174.5122,29.5 L173.7485,26.437 L170.4697,26.437 L169.7227,29.5 L167.2739,29.5 Z "/><text fill="#000000" font-family="sans-serif" font-size="12" font-style="italic" lengthAdjust="spacingAndGlyphs" textLength="46" x="186" y="28.5352">Element</text><line style="stroke: #000000; stroke-width: 1.5;" x1="158" x2="234" y1="40" y2="40"/></a><!--class Annotation--><a target="_top" xlink:actuate="onRequest" xlink:href="#oml-Annotation" xlink:show="new" xlink:title="#oml-Annotation" xlink:type="simple"><rect fill="#FFFFFF" filter="url(#f11uwl9az8obio)" height="52.9551" id="Annotation" style="stroke: #000000; stroke-width: 1.5;" width="192" x="161" y="226"/><rect fill="#FFFFFF" height="32" style="stroke: #000000; stroke-width: 1.5;" width="192" x="161" y="226"/><ellipse cx="222.25" cy="242" fill="#ADD1B2" rx="11" ry="11" style="stroke: #000000; stroke-width: 1.0;"/><path d="M225.2231,247.6431 Q224.6421,247.9419 224.0029,248.0913 Q223.3638,248.2407 222.6582,248.2407 Q220.1514,248.2407 218.8315,246.5889 Q217.5117,244.937 217.5117,241.8159 Q217.5117,238.6865 218.8315,237.0347 Q220.1514,235.3828 222.6582,235.3828 Q223.3638,235.3828 224.0112,235.5322 Q224.6587,235.6816 225.2231,235.9805 L225.2231,238.7031 Q224.5923,238.1221 223.9988,237.8523 Q223.4053,237.5825 222.7744,237.5825 Q221.4297,237.5825 220.7449,238.6492 Q220.0601,239.7158 220.0601,241.8159 Q220.0601,243.9077 220.7449,244.9744 Q221.4297,246.041 222.7744,246.041 Q223.4053,246.041 223.9988,245.7712 Q224.5923,245.5015 225.2231,244.9204 Z "/><text fill="#000000" font-family="sans-serif" font-size="12" lengthAdjust="spacingAndGlyphs" textLength="61" x="242.75" y="246.5352">Annotation</text><line style="stroke: #000000; stroke-width: 1.5;" x1="162" x2="352" y1="258" y2="258"/><text fill="#000000" font-family="sans-serif" font-size="11" lengthAdjust="spacingAndGlyphs" textLength="180" x="167" y="272.6348">property : AnnotationProperty [1]</text></a><!--class LiteralValue--><a target="_top" xlink:actuate="onRequest" xlink:href="#oml-LiteralValue" xlink:show="new" xlink:title="#oml-LiteralValue" xlink:type="simple"><rect fill="#D3D3D3" filter="url(#f11uwl9az8obio)" height="32" id="LiteralValue" style="stroke: #000000; stroke-width: 1.5;" width="99" x="207.5" y="356"/><ellipse cx="222.5" cy="372" fill="#A9DCDF" rx="11" ry="11" style="stroke: #000000; stroke-width: 1.0;"/><path d="M222.6133,367.3481 L221.4595,372.4199 L223.7754,372.4199 Z M221.1191,365.1069 L224.1157,365.1069 L227.4609,377.5 L225.0122,377.5 L224.2485,374.437 L220.9697,374.437 L220.2227,377.5 L217.7739,377.5 Z "/><text fill="#000000" font-family="sans-serif" font-size="12" font-style="italic" lengthAdjust="spacingAndGlyphs" textLength="67" x="236.5" y="376.5352">LiteralValue</text></a><!--class NamedElement--><a target="_top" xlink:actuate="onRequest" xlink:href="#oml-NamedElement" xlink:show="new" xlink:title="#oml-NamedElement" xlink:type="simple"><rect fill="#FFFFFF" filter="url(#f11uwl9az8obio)" height="52.9551" id="NamedElement" style="stroke: #000000; stroke-width: 1.5;" width="120" x="6" y="226"/><rect fill="#FFFFFF" height="32" style="stroke: #000000; stroke-width: 1.5;" width="120" x="6" y="226"/><ellipse cx="21" cy="242" fill="#A9DCDF" rx="11" ry="11" style="stroke: #000000; stroke-width: 1.0;"/><path d="M21.1133,237.3481 L19.9595,242.4199 L22.2754,242.4199 Z M19.6191,235.1069 L22.6157,235.1069 L25.9609,247.5 L23.5122,247.5 L22.7485,244.437 L19.4697,244.437 L18.7227,247.5 L16.2739,247.5 Z "/><text fill="#000000" font-family="sans-serif" font-size="12" font-style="italic" lengthAdjust="spacingAndGlyphs" textLength="88" x="35" y="246.5352">NamedElement</text><line style="stroke: #000000; stroke-width: 1.5;" x1="7" x2="125" y1="258" y2="258"/><text fill="#000000" font-family="sans-serif" font-size="11" lengthAdjust="spacingAndGlyphs" textLength="70" x="12" y="272.6348">name : String</text></a><!--link Element to AnnotatedElement--><a target="_top" xlink:actuate="onRequest" xlink:href="#oml-Element" xlink:show="new" xlink:title="#oml-Element" xlink:type="simple"><path d="M173.1845,65.7765 C164.3345,80.4297 154.5612,96.6117 147.1177,108.9362 " fill="none" id="Element-AnnotatedElement" style="stroke: #000000; stroke-width: 1.0;"/><polygon fill="none" points="167.324,61.9398,183.6557,48.4389,179.3079,69.1777,167.324,61.9398" style="stroke: #000000; stroke-width: 1.0;"/></a><!--link AnnotatedElement to Annotation--><path d="M139.0074,162.0735 C141.7329,173.7431 146.311,186.3484 154,196 C160.942,204.7139 169.6111,212.2816 178.9542,218.7954 " fill="none" id="AnnotatedElement-Annotation" style="stroke: #000000; stroke-width: 1.0;"/><polygon fill="#000000" points="190.1686,225.9636,184.7396,217.7462,185.9557,223.2708,180.4311,224.4869,190.1686,225.9636" style="stroke: #000000; stroke-width: 1.0;"/><line style="stroke: #000000; stroke-width: 1.0;" x1="185.9557" x2="179.2151" y1="223.2708" y2="218.9622"/><polygon fill="#000000" points="136.5834,149.0372,133.7477,155.6673,138.7771,160.835,141.6129,154.2048,136.5834,149.0372" style="stroke: #000000; stroke-width: 1.0;"/><text fill="#000000" font-family="sans-serif" font-size="13" lengthAdjust="spacingAndGlyphs" textLength="75" x="155" y="192.5684">annotations</text><text fill="#000000" font-family="sans-serif" font-size="13" lengthAdjust="spacingAndGlyphs" textLength="6" x="167.1472" y="215.2789">*</text><!--link Element to Annotation--><a target="_top" xlink:actuate="onRequest" xlink:href="#oml-Element" xlink:show="new" xlink:title="#oml-Element" xlink:type="simple"><path d="M208.7195,67.7058 C212.793,80.8103 217.2233,95.4896 221,109 C232.3405,149.5685 243.9254,197.0511 250.7874,225.9397 " fill="none" id="Element-Annotation" style="stroke: #000000; stroke-width: 1.0;"/><polygon fill="none" points="201.9129,69.3964,202.5696,48.217,215.2639,65.1833,201.9129,69.3964" style="stroke: #000000; stroke-width: 1.0;"/></a><!--link Annotation to LiteralValue--><path d="M257,292.2254 C257,308.6628 257,327.3864 257,342.5615 " fill="none" id="Annotation-LiteralValue" style="stroke: #000000; stroke-width: 1.0;"/><polygon fill="#000000" points="257,355.8332,261,346.8332,257,350.8332,253,346.8332,257,355.8332" style="stroke: #000000; stroke-width: 1.0;"/><line style="stroke: #000000; stroke-width: 1.0;" x1="257" x2="257.0001" y1="350.8332" y2="342.8333"/><polygon fill="#000000" points="257,279.0209,253,285.0209,257,291.0209,261,285.0209,257,279.0209" style="stroke: #000000; stroke-width: 1.0;"/><text fill="#000000" font-family="sans-serif" font-size="13" lengthAdjust="spacingAndGlyphs" textLength="33" x="258" y="322.5684">value</text><text fill="#000000" font-family="sans-serif" font-size="13" lengthAdjust="spacingAndGlyphs" textLength="8" x="247.625" y="345.3195">1</text><!--link AnnotatedElement to NamedElement--><a target="_top" xlink:actuate="onRequest" xlink:href="#oml-AnnotatedElement" xlink:show="new" xlink:title="#oml-AnnotatedElement" xlink:type="simple"><path d="M110.6763,166.0786 C108.0213,170.3962 105.4105,174.7688 103,179 C94.3019,194.268 85.4206,211.8319 78.5402,225.9609 " fill="none" id="AnnotatedElement-NamedElement" style="stroke: #000000; stroke-width: 1.0;"/><polygon fill="none" points="104.8039,162.268,121.4392,149.1429,116.6197,169.7772,104.8039,162.268" style="stroke: #000000; stroke-width: 1.0;"/></a><!--
@startuml
skinparam classBackgroundColor LightGray
skinparam classBorderColor Black
skinparam enumBorderColor Black
skinparam ArrowColor Black
hide methods
abstract class AnnotatedElement [[#oml-AnnotatedElement]] #white {
}
AnnotatedElement -up-|> Element [[#oml-Element]]
AnnotatedElement *- -> "*" Annotation : annotations
class Annotation [[#oml-Annotation]] #white {
	property : AnnotationProperty [1]
}
abstract class LiteralValue [[#oml-LiteralValue]]
hide LiteralValue members
Annotation -up-|> Element [[#oml-Element]]
Annotation *- -> "1" LiteralValue : value
abstract class Element [[#oml-Element]] #white {
}
abstract class NamedElement [[#oml-NamedElement]] #white {
	name : String
}
NamedElement -up-|> AnnotatedElement [[#oml-AnnotatedElement]]
@enduml

PlantUML version 1.2019.00(Sun Jan 13 07:46:42 PST 2019)
(GPL source distribution)
Java Runtime: Java(TM) SE Runtime Environment
JVM: Java HotSpot(TM) 64-Bit Server VM
Java Version: 1.8.0_181-b13
Operating System: Mac OS X
OS Version: 10.13.6
Default Encoding: UTF-8
Language: en
Country: US
--></g></svg>