<?xml version="1.0" encoding="UTF-8" standalone="no"?><svg xmlns="http://www.w3.org/2000/svg" xmlns:xlink="http://www.w3.org/1999/xlink" contentScriptType="application/ecmascript" contentStyleType="text/css" height="389px" preserveAspectRatio="none" style="width:1030px;height:389px;" version="1.1" viewBox="0 0 1030 389" width="1030px" zoomAndPan="magnify"><defs><filter height="300%" id="f1md6ivpj69ezg" width="300%" x="-1" y="-1"><feGaussianBlur result="blurOut" stdDeviation="2.0"/><feColorMatrix in="blurOut" result="blurOut2" type="matrix" values="0 0 0 0 0 0 0 0 0 0 0 0 0 0 0 0 0 0 .4 0"/><feOffset dx="4.0" dy="4.0" in="blurOut2" result="blurOut3"/><feBlend in="SourceGraphic" in2="blurOut3" mode="normal"/></filter></defs><g><!--class LiteralBoolean--><a target="_top" xlink:actuate="onRequest" xlink:href="#oml-LiteralBoolean" xlink:show="new" xlink:title="#oml-LiteralBoolean" xlink:type="simple"><rect fill="#FFFFFF" filter="url(#f1md6ivpj69ezg)" height="52.9551" id="LiteralBoolean" style="stroke: #000000; stroke-width: 1.5;" width="112" x="362.5" y="213"/><rect fill="#FFFFFF" height="32" style="stroke: #000000; stroke-width: 1.5;" width="112" x="362.5" y="213"/><ellipse cx="377.5" cy="229" fill="#ADD1B2" rx="11" ry="11" style="stroke: #000000; stroke-width: 1.0;"/><path d="M380.4731,234.6431 Q379.8921,234.9419 379.2529,235.0913 Q378.6138,235.2407 377.9082,235.2407 Q375.4014,235.2407 374.0815,233.5889 Q372.7617,231.937 372.7617,228.8159 Q372.7617,225.6865 374.0815,224.0347 Q375.4014,222.3828 377.9082,222.3828 Q378.6138,222.3828 379.2612,222.5322 Q379.9087,222.6816 380.4731,222.9805 L380.4731,225.7031 Q379.8423,225.1221 379.2488,224.8523 Q378.6553,224.5825 378.0244,224.5825 Q376.6797,224.5825 375.9949,225.6492 Q375.3101,226.7158 375.3101,228.8159 Q375.3101,230.9077 375.9949,231.9744 Q376.6797,233.041 378.0244,233.041 Q378.6553,233.041 379.2488,232.7712 Q379.8423,232.5015 380.4731,231.9204 Z "/><text fill="#000000" font-family="sans-serif" font-size="12" lengthAdjust="spacingAndGlyphs" textLength="80" x="391.5" y="233.5352">LiteralBoolean</text><line style="stroke: #000000; stroke-width: 1.5;" x1="363.5" x2="473.5" y1="245" y2="245"/><text fill="#000000" font-family="sans-serif" font-size="11" lengthAdjust="spacingAndGlyphs" textLength="79" x="368.5" y="259.6348">value : Boolean</text></a><!--class LiteralValue--><a target="_top" xlink:actuate="onRequest" xlink:href="#oml-LiteralValue" xlink:show="new" xlink:title="#oml-LiteralValue" xlink:type="simple"><rect fill="#FFFFFF" filter="url(#f1md6ivpj69ezg)" height="52.9551" id="LiteralValue" style="stroke: #000000; stroke-width: 1.5;" width="171" x="559" y="100"/><rect fill="#FFFFFF" height="32" style="stroke: #000000; stroke-width: 1.5;" width="171" x="559" y="100"/><ellipse cx="606.75" cy="116" fill="#A9DCDF" rx="11" ry="11" style="stroke: #000000; stroke-width: 1.0;"/><path d="M606.8633,111.3481 L605.7095,116.4199 L608.0254,116.4199 Z M605.3691,109.1069 L608.3657,109.1069 L611.7109,121.5 L609.2622,121.5 L608.4985,118.437 L605.2197,118.437 L604.4727,121.5 L602.0239,121.5 Z "/><text fill="#000000" font-family="sans-serif" font-size="12" font-style="italic" lengthAdjust="spacingAndGlyphs" textLength="67" x="627.25" y="120.5352">LiteralValue</text><line style="stroke: #000000; stroke-width: 1.5;" x1="560" x2="729" y1="132" y2="132"/><text fill="#000000" font-family="sans-serif" font-size="11" lengthAdjust="spacingAndGlyphs" textLength="159" x="565" y="146.6348">valueType : ScalarRange [0..1]</text></a><!--class LiteralDateTime--><a target="_top" xlink:actuate="onRequest" xlink:href="#oml-LiteralDateTime" xlink:show="new" xlink:title="#oml-LiteralDateTime" xlink:type="simple"><rect fill="#FFFFFF" filter="url(#f1md6ivpj69ezg)" height="52.9551" id="LiteralDateTime" style="stroke: #000000; stroke-width: 1.5;" width="123" x="510" y="213"/><rect fill="#FFFFFF" height="32" style="stroke: #000000; stroke-width: 1.5;" width="123" x="510" y="213"/><ellipse cx="525" cy="229" fill="#ADD1B2" rx="11" ry="11" style="stroke: #000000; stroke-width: 1.0;"/><path d="M527.9731,234.6431 Q527.3921,234.9419 526.7529,235.0913 Q526.1138,235.2407 525.4082,235.2407 Q522.9014,235.2407 521.5815,233.5889 Q520.2617,231.937 520.2617,228.8159 Q520.2617,225.6865 521.5815,224.0347 Q522.9014,222.3828 525.4082,222.3828 Q526.1138,222.3828 526.7612,222.5322 Q527.4087,222.6816 527.9731,222.9805 L527.9731,225.7031 Q527.3423,225.1221 526.7488,224.8523 Q526.1553,224.5825 525.5244,224.5825 Q524.1797,224.5825 523.4949,225.6492 Q522.8101,226.7158 522.8101,228.8159 Q522.8101,230.9077 523.4949,231.9744 Q524.1797,233.041 525.5244,233.041 Q526.1553,233.041 526.7488,232.7712 Q527.3423,232.5015 527.9731,231.9204 Z "/><text fill="#000000" font-family="sans-serif" font-size="12" lengthAdjust="spacingAndGlyphs" textLength="91" x="539" y="233.5352">LiteralDateTime</text><line style="stroke: #000000; stroke-width: 1.5;" x1="511" x2="632" y1="245" y2="245"/><text fill="#000000" font-family="sans-serif" font-size="11" lengthAdjust="spacingAndGlyphs" textLength="69" x="516" y="259.6348">value : String</text></a><!--class LiteralDecimal--><a target="_top" xlink:actuate="onRequest" xlink:href="#oml-LiteralDecimal" xlink:show="new" xlink:title="#oml-LiteralDecimal" xlink:type="simple"><rect fill="#FFFFFF" filter="url(#f1md6ivpj69ezg)" height="52.9551" id="LiteralDecimal" style="stroke: #000000; stroke-width: 1.5;" width="113" x="6" y="326"/><rect fill="#FFFFFF" height="32" style="stroke: #000000; stroke-width: 1.5;" width="113" x="6" y="326"/><ellipse cx="21" cy="342" fill="#ADD1B2" rx="11" ry="11" style="stroke: #000000; stroke-width: 1.0;"/><path d="M23.9731,347.6431 Q23.3921,347.9419 22.7529,348.0913 Q22.1138,348.2407 21.4082,348.2407 Q18.9014,348.2407 17.5815,346.5889 Q16.2617,344.937 16.2617,341.8159 Q16.2617,338.6865 17.5815,337.0347 Q18.9014,335.3828 21.4082,335.3828 Q22.1138,335.3828 22.7612,335.5322 Q23.4087,335.6816 23.9731,335.9805 L23.9731,338.7031 Q23.3423,338.1221 22.7488,337.8523 Q22.1553,337.5825 21.5244,337.5825 Q20.1797,337.5825 19.4949,338.6492 Q18.8101,339.7158 18.8101,341.8159 Q18.8101,343.9077 19.4949,344.9744 Q20.1797,346.041 21.5244,346.041 Q22.1553,346.041 22.7488,345.7712 Q23.3423,345.5015 23.9731,344.9204 Z "/><text fill="#000000" font-family="sans-serif" font-size="12" lengthAdjust="spacingAndGlyphs" textLength="81" x="35" y="346.5352">LiteralDecimal</text><line style="stroke: #000000; stroke-width: 1.5;" x1="7" x2="118" y1="358" y2="358"/><text fill="#000000" font-family="sans-serif" font-size="11" lengthAdjust="spacingAndGlyphs" textLength="95" x="12" y="372.6348">value : BigDecimal</text></a><!--class LiteralNumber--><a target="_top" xlink:actuate="onRequest" xlink:href="#oml-LiteralNumber" xlink:show="new" xlink:title="#oml-LiteralNumber" xlink:type="simple"><rect fill="#FFFFFF" filter="url(#f1md6ivpj69ezg)" height="40" id="LiteralNumber" style="stroke: #000000; stroke-width: 1.5;" width="114" x="213.5" y="219.5"/><rect fill="#FFFFFF" height="32" style="stroke: #000000; stroke-width: 1.5;" width="114" x="213.5" y="219.5"/><ellipse cx="228.5" cy="235.5" fill="#A9DCDF" rx="11" ry="11" style="stroke: #000000; stroke-width: 1.0;"/><path d="M228.6133,230.8481 L227.4595,235.9199 L229.7754,235.9199 Z M227.1191,228.6069 L230.1157,228.6069 L233.4609,241 L231.0122,241 L230.2485,237.937 L226.9697,237.937 L226.2227,241 L223.7739,241 Z "/><text fill="#000000" font-family="sans-serif" font-size="12" font-style="italic" lengthAdjust="spacingAndGlyphs" textLength="82" x="242.5" y="240.0352">LiteralNumber</text><line style="stroke: #000000; stroke-width: 1.5;" x1="214.5" x2="326.5" y1="251.5" y2="251.5"/></a><!--class LiteralFloat--><a target="_top" xlink:actuate="onRequest" xlink:href="#oml-LiteralFloat" xlink:show="new" xlink:title="#oml-LiteralFloat" xlink:type="simple"><rect fill="#FFFFFF" filter="url(#f1md6ivpj69ezg)" height="52.9551" id="LiteralFloat" style="stroke: #000000; stroke-width: 1.5;" width="94" x="154.5" y="326"/><rect fill="#FFFFFF" height="32" style="stroke: #000000; stroke-width: 1.5;" width="94" x="154.5" y="326"/><ellipse cx="169.5" cy="342" fill="#ADD1B2" rx="11" ry="11" style="stroke: #000000; stroke-width: 1.0;"/><path d="M172.4731,347.6431 Q171.8921,347.9419 171.2529,348.0913 Q170.6138,348.2407 169.9082,348.2407 Q167.4014,348.2407 166.0815,346.5889 Q164.7617,344.937 164.7617,341.8159 Q164.7617,338.6865 166.0815,337.0347 Q167.4014,335.3828 169.9082,335.3828 Q170.6138,335.3828 171.2612,335.5322 Q171.9087,335.6816 172.4731,335.9805 L172.4731,338.7031 Q171.8423,338.1221 171.2488,337.8523 Q170.6553,337.5825 170.0244,337.5825 Q168.6797,337.5825 167.9949,338.6492 Q167.3101,339.7158 167.3101,341.8159 Q167.3101,343.9077 167.9949,344.9744 Q168.6797,346.041 170.0244,346.041 Q170.6553,346.041 171.2488,345.7712 Q171.8423,345.5015 172.4731,344.9204 Z "/><text fill="#000000" font-family="sans-serif" font-size="12" lengthAdjust="spacingAndGlyphs" textLength="62" x="183.5" y="346.5352">LiteralFloat</text><line style="stroke: #000000; stroke-width: 1.5;" x1="155.5" x2="247.5" y1="358" y2="358"/><text fill="#000000" font-family="sans-serif" font-size="11" lengthAdjust="spacingAndGlyphs" textLength="63" x="160.5" y="372.6348">value : Float</text></a><!--class LiteralRational--><a target="_top" xlink:actuate="onRequest" xlink:href="#oml-LiteralRational" xlink:show="new" xlink:title="#oml-LiteralRational" xlink:type="simple"><rect fill="#FFFFFF" filter="url(#f1md6ivpj69ezg)" height="52.9551" id="LiteralRational" style="stroke: #000000; stroke-width: 1.5;" width="113" x="284" y="326"/><rect fill="#FFFFFF" height="32" style="stroke: #000000; stroke-width: 1.5;" width="113" x="284" y="326"/><ellipse cx="299" cy="342" fill="#ADD1B2" rx="11" ry="11" style="stroke: #000000; stroke-width: 1.0;"/><path d="M301.9731,347.6431 Q301.3921,347.9419 300.7529,348.0913 Q300.1138,348.2407 299.4082,348.2407 Q296.9014,348.2407 295.5815,346.5889 Q294.2617,344.937 294.2617,341.8159 Q294.2617,338.6865 295.5815,337.0347 Q296.9014,335.3828 299.4082,335.3828 Q300.1138,335.3828 300.7612,335.5322 Q301.4087,335.6816 301.9731,335.9805 L301.9731,338.7031 Q301.3423,338.1221 300.7488,337.8523 Q300.1553,337.5825 299.5244,337.5825 Q298.1797,337.5825 297.4949,338.6492 Q296.8101,339.7158 296.8101,341.8159 Q296.8101,343.9077 297.4949,344.9744 Q298.1797,346.041 299.5244,346.041 Q300.1553,346.041 300.7488,345.7712 Q301.3423,345.5015 301.9731,344.9204 Z "/><text fill="#000000" font-family="sans-serif" font-size="12" lengthAdjust="spacingAndGlyphs" textLength="81" x="313" y="346.5352">LiteralRational</text><line style="stroke: #000000; stroke-width: 1.5;" x1="285" x2="396" y1="358" y2="358"/><text fill="#000000" font-family="sans-serif" font-size="11" lengthAdjust="spacingAndGlyphs" textLength="75" x="290" y="372.6348">value : Double</text></a><!--class LiteralReal--><a target="_top" xlink:actuate="onRequest" xlink:href="#oml-LiteralReal" xlink:show="new" xlink:title="#oml-LiteralReal" xlink:type="simple"><rect fill="#FFFFFF" filter="url(#f1md6ivpj69ezg)" height="52.9551" id="LiteralReal" style="stroke: #000000; stroke-width: 1.5;" width="92" x="432.5" y="326"/><rect fill="#FFFFFF" height="32" style="stroke: #000000; stroke-width: 1.5;" width="92" x="432.5" y="326"/><ellipse cx="447.5" cy="342" fill="#ADD1B2" rx="11" ry="11" style="stroke: #000000; stroke-width: 1.0;"/><path d="M450.4731,347.6431 Q449.8921,347.9419 449.2529,348.0913 Q448.6138,348.2407 447.9082,348.2407 Q445.4014,348.2407 444.0815,346.5889 Q442.7617,344.937 442.7617,341.8159 Q442.7617,338.6865 444.0815,337.0347 Q445.4014,335.3828 447.9082,335.3828 Q448.6138,335.3828 449.2612,335.5322 Q449.9087,335.6816 450.4731,335.9805 L450.4731,338.7031 Q449.8423,338.1221 449.2488,337.8523 Q448.6553,337.5825 448.0244,337.5825 Q446.6797,337.5825 445.9949,338.6492 Q445.3101,339.7158 445.3101,341.8159 Q445.3101,343.9077 445.9949,344.9744 Q446.6797,346.041 448.0244,346.041 Q448.6553,346.041 449.2488,345.7712 Q449.8423,345.5015 450.4731,344.9204 Z "/><text fill="#000000" font-family="sans-serif" font-size="12" lengthAdjust="spacingAndGlyphs" textLength="60" x="461.5" y="346.5352">LiteralReal</text><line style="stroke: #000000; stroke-width: 1.5;" x1="433.5" x2="523.5" y1="358" y2="358"/><text fill="#000000" font-family="sans-serif" font-size="11" lengthAdjust="spacingAndGlyphs" textLength="75" x="438.5" y="372.6348">value : Double</text></a><!--class LiteralString--><a target="_top" xlink:actuate="onRequest" xlink:href="#oml-LiteralString" xlink:show="new" xlink:title="#oml-LiteralString" xlink:type="simple"><rect fill="#FFFFFF" filter="url(#f1md6ivpj69ezg)" height="52.9551" id="LiteralString" style="stroke: #000000; stroke-width: 1.5;" width="99" x="668" y="213"/><rect fill="#FFFFFF" height="32" style="stroke: #000000; stroke-width: 1.5;" width="99" x="668" y="213"/><ellipse cx="683" cy="229" fill="#ADD1B2" rx="11" ry="11" style="stroke: #000000; stroke-width: 1.0;"/><path d="M685.9731,234.6431 Q685.3921,234.9419 684.7529,235.0913 Q684.1138,235.2407 683.4082,235.2407 Q680.9014,235.2407 679.5815,233.5889 Q678.2617,231.937 678.2617,228.8159 Q678.2617,225.6865 679.5815,224.0347 Q680.9014,222.3828 683.4082,222.3828 Q684.1138,222.3828 684.7612,222.5322 Q685.4087,222.6816 685.9731,222.9805 L685.9731,225.7031 Q685.3423,225.1221 684.7488,224.8523 Q684.1553,224.5825 683.5244,224.5825 Q682.1797,224.5825 681.4949,225.6492 Q680.8101,226.7158 680.8101,228.8159 Q680.8101,230.9077 681.4949,231.9744 Q682.1797,233.041 683.5244,233.041 Q684.1553,233.041 684.7488,232.7712 Q685.3423,232.5015 685.9731,231.9204 Z "/><text fill="#000000" font-family="sans-serif" font-size="12" lengthAdjust="spacingAndGlyphs" textLength="67" x="697" y="233.5352">LiteralString</text><line style="stroke: #000000; stroke-width: 1.5;" x1="669" x2="766" y1="245" y2="245"/><text fill="#000000" font-family="sans-serif" font-size="11" lengthAdjust="spacingAndGlyphs" textLength="69" x="674" y="259.6348">value : String</text></a><!--class LiteralURI--><a target="_top" xlink:actuate="onRequest" xlink:href="#oml-LiteralURI" xlink:show="new" xlink:title="#oml-LiteralURI" xlink:type="simple"><rect fill="#FFFFFF" filter="url(#f1md6ivpj69ezg)" height="52.9551" id="LiteralURI" style="stroke: #000000; stroke-width: 1.5;" width="86" x="802.5" y="213"/><rect fill="#FFFFFF" height="32" style="stroke: #000000; stroke-width: 1.5;" width="86" x="802.5" y="213"/><ellipse cx="817.5" cy="229" fill="#ADD1B2" rx="11" ry="11" style="stroke: #000000; stroke-width: 1.0;"/><path d="M820.4731,234.6431 Q819.8921,234.9419 819.2529,235.0913 Q818.6138,235.2407 817.9082,235.2407 Q815.4014,235.2407 814.0815,233.5889 Q812.7617,231.937 812.7617,228.8159 Q812.7617,225.6865 814.0815,224.0347 Q815.4014,222.3828 817.9082,222.3828 Q818.6138,222.3828 819.2612,222.5322 Q819.9087,222.6816 820.4731,222.9805 L820.4731,225.7031 Q819.8423,225.1221 819.2488,224.8523 Q818.6553,224.5825 818.0244,224.5825 Q816.6797,224.5825 815.9949,225.6492 Q815.3101,226.7158 815.3101,228.8159 Q815.3101,230.9077 815.9949,231.9744 Q816.6797,233.041 818.0244,233.041 Q818.6553,233.041 819.2488,232.7712 Q819.8423,232.5015 820.4731,231.9204 Z "/><text fill="#000000" font-family="sans-serif" font-size="12" lengthAdjust="spacingAndGlyphs" textLength="54" x="831.5" y="233.5352">LiteralURI</text><line style="stroke: #000000; stroke-width: 1.5;" x1="803.5" x2="887.5" y1="245" y2="245"/><text fill="#000000" font-family="sans-serif" font-size="11" lengthAdjust="spacingAndGlyphs" textLength="69" x="808.5" y="259.6348">value : String</text></a><!--class LiteralUUID--><a target="_top" xlink:actuate="onRequest" xlink:href="#oml-LiteralUUID" xlink:show="new" xlink:title="#oml-LiteralUUID" xlink:type="simple"><rect fill="#FFFFFF" filter="url(#f1md6ivpj69ezg)" height="52.9551" id="LiteralUUID" style="stroke: #000000; stroke-width: 1.5;" width="95" x="924" y="213"/><rect fill="#FFFFFF" height="32" style="stroke: #000000; stroke-width: 1.5;" width="95" x="924" y="213"/><ellipse cx="939" cy="229" fill="#ADD1B2" rx="11" ry="11" style="stroke: #000000; stroke-width: 1.0;"/><path d="M941.9731,234.6431 Q941.3921,234.9419 940.7529,235.0913 Q940.1138,235.2407 939.4082,235.2407 Q936.9014,235.2407 935.5815,233.5889 Q934.2617,231.937 934.2617,228.8159 Q934.2617,225.6865 935.5815,224.0347 Q936.9014,222.3828 939.4082,222.3828 Q940.1138,222.3828 940.7612,222.5322 Q941.4087,222.6816 941.9731,222.9805 L941.9731,225.7031 Q941.3423,225.1221 940.7488,224.8523 Q940.1553,224.5825 939.5244,224.5825 Q938.1797,224.5825 937.4949,225.6492 Q936.8101,226.7158 936.8101,228.8159 Q936.8101,230.9077 937.4949,231.9744 Q938.1797,233.041 939.5244,233.041 Q940.1553,233.041 940.7488,232.7712 Q941.3423,232.5015 941.9731,231.9204 Z "/><text fill="#000000" font-family="sans-serif" font-size="12" lengthAdjust="spacingAndGlyphs" textLength="63" x="953" y="233.5352">LiteralUUID</text><line style="stroke: #000000; stroke-width: 1.5;" x1="925" x2="1018" y1="245" y2="245"/><text fill="#000000" font-family="sans-serif" font-size="11" lengthAdjust="spacingAndGlyphs" textLength="69" x="930" y="259.6348">value : String</text></a><!--class Element--><a target="_top" xlink:actuate="onRequest" xlink:href="#oml-Element" xlink:show="new" xlink:title="#oml-Element" xlink:type="simple"><rect fill="#D3D3D3" filter="url(#f1md6ivpj69ezg)" height="32" id="Element" style="stroke: #000000; stroke-width: 1.5;" width="78" x="605.5" y="8"/><ellipse cx="620.5" cy="24" fill="#A9DCDF" rx="11" ry="11" style="stroke: #000000; stroke-width: 1.0;"/><path d="M620.6133,19.3481 L619.4595,24.4199 L621.7754,24.4199 Z M619.1191,17.1069 L622.1157,17.1069 L625.4609,29.5 L623.0122,29.5 L622.2485,26.437 L618.9697,26.437 L618.2227,29.5 L615.7739,29.5 Z "/><text fill="#000000" font-family="sans-serif" font-size="12" font-style="italic" lengthAdjust="spacingAndGlyphs" textLength="46" x="634.5" y="28.5352">Element</text></a><!--link LiteralValue to LiteralBoolean--><a target="_top" xlink:actuate="onRequest" xlink:href="#oml-LiteralValue" xlink:show="new" xlink:title="#oml-LiteralValue" xlink:type="simple"><path d="M573.141,162.1795 C540.3249,178.5876 502.0614,197.7193 471.8062,212.8469 " fill="none" id="LiteralValue-LiteralBoolean" style="stroke: #000000; stroke-width: 1.0;"/><polygon fill="none" points="570.2083,155.8197,591.2273,153.1363,576.4693,168.3417,570.2083,155.8197" style="stroke: #000000; stroke-width: 1.0;"/></a><!--link LiteralValue to LiteralDateTime--><a target="_top" xlink:actuate="onRequest" xlink:href="#oml-LiteralValue" xlink:show="new" xlink:title="#oml-LiteralValue" xlink:type="simple"><path d="M616.0648,170.5162 C606.8158,184.8331 596.8396,200.2756 588.6758,212.9128 " fill="none" id="LiteralValue-LiteralDateTime" style="stroke: #000000; stroke-width: 1.0;"/><polygon fill="none" points="610.4675,166.2804,627.2,153.2794,622.2271,173.8773,610.4675,166.2804" style="stroke: #000000; stroke-width: 1.0;"/></a><!--link LiteralNumber to LiteralDecimal--><a target="_top" xlink:actuate="onRequest" xlink:href="#oml-LiteralNumber" xlink:show="new" xlink:title="#oml-LiteralNumber" xlink:type="simple"><path d="M215.3745,269.448 C183.0864,286.9891 142.6633,308.9498 111.4948,325.8827 " fill="none" id="LiteralNumber-LiteralDecimal" style="stroke: #000000; stroke-width: 1.0;"/><polygon fill="none" points="212.3981,263.0987,233.3138,259.7021,219.0813,275.4005,212.3981,263.0987" style="stroke: #000000; stroke-width: 1.0;"/></a><!--link LiteralNumber to LiteralFloat--><a target="_top" xlink:actuate="onRequest" xlink:href="#oml-LiteralNumber" xlink:show="new" xlink:title="#oml-LiteralNumber" xlink:type="simple"><path d="M247.6047,276.9952 C237.8795,292.9219 226.7618,311.1292 217.8807,325.6736 " fill="none" id="LiteralNumber-LiteralFloat" style="stroke: #000000; stroke-width: 1.0;"/><polygon fill="none" points="241.767,273.1235,258.1642,259.7021,253.7155,280.4195,241.767,273.1235" style="stroke: #000000; stroke-width: 1.0;"/></a><!--link LiteralValue to LiteralNumber--><a target="_top" xlink:actuate="onRequest" xlink:href="#oml-LiteralValue" xlink:show="new" xlink:title="#oml-LiteralValue" xlink:type="simple"><path d="M539.42,155.2897 C481.8963,171.4535 409.4999,192.4549 345.5,213 C339.1886,215.0261 332.6072,217.224 326.079,219.4581 " fill="none" id="LiteralValue-LiteralNumber" style="stroke: #000000; stroke-width: 1.0;"/><polygon fill="none" points="537.5695,148.5387,558.7159,149.8921,541.3409,162.0211,537.5695,148.5387" style="stroke: #000000; stroke-width: 1.0;"/></a><!--link LiteralNumber to LiteralRational--><a target="_top" xlink:actuate="onRequest" xlink:href="#oml-LiteralNumber" xlink:show="new" xlink:title="#oml-LiteralNumber" xlink:type="simple"><path d="M293.5663,276.7357 C303.4706,292.7239 314.8231,311.0502 323.8819,325.6736 " fill="none" id="LiteralNumber-LiteralRational" style="stroke: #000000; stroke-width: 1.0;"/><polygon fill="none" points="287.5962,280.3906,283.0146,259.7021,299.4977,273.0179,287.5962,280.3906" style="stroke: #000000; stroke-width: 1.0;"/></a><!--link LiteralNumber to LiteralReal--><a target="_top" xlink:actuate="onRequest" xlink:href="#oml-LiteralNumber" xlink:show="new" xlink:title="#oml-LiteralNumber" xlink:type="simple"><path d="M325.6193,269.4446 C358.8375,287.4911 400.6679,310.2162 432.1726,327.3317 " fill="none" id="LiteralNumber-LiteralReal" style="stroke: #000000; stroke-width: 1.0;"/><polygon fill="none" points="321.9187,275.4005,307.6862,259.7021,328.6019,263.0987,321.9187,275.4005" style="stroke: #000000; stroke-width: 1.0;"/></a><!--link LiteralValue to LiteralString--><a target="_top" xlink:actuate="onRequest" xlink:href="#oml-LiteralValue" xlink:show="new" xlink:title="#oml-LiteralValue" xlink:type="simple"><path d="M672.9352,170.5162 C682.1842,184.8331 692.1604,200.2756 700.3242,212.9128 " fill="none" id="LiteralValue-LiteralString" style="stroke: #000000; stroke-width: 1.0;"/><polygon fill="none" points="666.7729,173.8773,661.8,153.2794,678.5325,166.2804,666.7729,173.8773" style="stroke: #000000; stroke-width: 1.0;"/></a><!--link LiteralValue to LiteralURI--><a target="_top" xlink:actuate="onRequest" xlink:href="#oml-LiteralValue" xlink:show="new" xlink:title="#oml-LiteralValue" xlink:type="simple"><path d="M709.5458,163.068 C739.8938,180.1293 775.1891,199.972 802.2107,215.1632 " fill="none" id="LiteralValue-LiteralURI" style="stroke: #000000; stroke-width: 1.0;"/><polygon fill="none" points="705.8831,169.0393,691.8797,153.1363,712.7439,156.8356,705.8831,169.0393" style="stroke: #000000; stroke-width: 1.0;"/></a><!--link LiteralValue to LiteralUUID--><a target="_top" xlink:actuate="onRequest" xlink:href="#oml-LiteralValue" xlink:show="new" xlink:title="#oml-LiteralValue" xlink:type="simple"><path d="M749.284,159.2866 C797.4398,174.8164 855.1441,194.0787 906.5,213 C912.1032,215.0644 917.9428,217.3094 923.723,219.5902 " fill="none" id="LiteralValue-LiteralUUID" style="stroke: #000000; stroke-width: 1.0;"/><polygon fill="none" points="746.8719,165.8643,729.965,153.0909,751.1473,152.5331,746.8719,165.8643" style="stroke: #000000; stroke-width: 1.0;"/></a><!--link Element to LiteralValue--><a target="_top" xlink:actuate="onRequest" xlink:href="#oml-Element" xlink:show="new" xlink:title="#oml-Element" xlink:type="simple"><path d="M644.5,60.4872 C644.5,73.4689 644.5,87.8323 644.5,99.8369 " fill="none" id="Element-LiteralValue" style="stroke: #000000; stroke-width: 1.0;"/><polygon fill="none" points="637.5001,60.0157,644.5,40.0156,651.5001,60.0156,637.5001,60.0157" style="stroke: #000000; stroke-width: 1.0;"/></a><!--
@startuml
skinparam classBackgroundColor LightGray
skinparam classBorderColor Black
skinparam enumBorderColor Black
skinparam ArrowColor Black
hide methods
class LiteralBoolean [[#oml-LiteralBoolean]] #white {
	value : Boolean
}
LiteralBoolean -up-|> LiteralValue [[#oml-LiteralValue]]
class LiteralDateTime [[#oml-LiteralDateTime]] #white {
	value : String
}
LiteralDateTime -up-|> LiteralValue [[#oml-LiteralValue]]
class LiteralDecimal [[#oml-LiteralDecimal]] #white {
	value : BigDecimal
}
LiteralDecimal -up-|> LiteralNumber [[#oml-LiteralNumber]]
class LiteralFloat [[#oml-LiteralFloat]] #white {
	value : Float
}
LiteralFloat -up-|> LiteralNumber [[#oml-LiteralNumber]]
abstract class LiteralNumber [[#oml-LiteralNumber]] #white {
}
LiteralNumber -up-|> LiteralValue [[#oml-LiteralValue]]
class LiteralRational [[#oml-LiteralRational]] #white {
	value : Double
}
LiteralRational -up-|> LiteralNumber [[#oml-LiteralNumber]]
class LiteralReal [[#oml-LiteralReal]] #white {
	value : Double
}
LiteralReal -up-|> LiteralNumber [[#oml-LiteralNumber]]
class LiteralString [[#oml-LiteralString]] #white {
	value : String
}
LiteralString -up-|> LiteralValue [[#oml-LiteralValue]]
class LiteralURI [[#oml-LiteralURI]] #white {
	value : String
}
LiteralURI -up-|> LiteralValue [[#oml-LiteralValue]]
class LiteralUUID [[#oml-LiteralUUID]] #white {
	value : String
}
LiteralUUID -up-|> LiteralValue [[#oml-LiteralValue]]
abstract class LiteralValue [[#oml-LiteralValue]] #white {
	valueType : ScalarRange [0..1]
}
abstract class Element [[#oml-Element]]
hide Element members
LiteralValue -up-|> Element [[#oml-Element]]
@enduml

PlantUML version 1.2019.00(Sun Jan 13 07:46:42 PST 2019)
(GPL source distribution)
Java Runtime: Java(TM) SE Runtime Environment
JVM: Java HotSpot(TM) 64-Bit Server VM
Java Version: 1.8.0_181-b13
Operating System: Mac OS X
OS Version: 10.13.6
Default Encoding: UTF-8
Language: en
Country: US
--></g></svg>