<?xml version="1.0" encoding="UTF-8" standalone="no"?><svg xmlns="http://www.w3.org/2000/svg" xmlns:xlink="http://www.w3.org/1999/xlink" contentScriptType="application/ecmascript" contentStyleType="text/css" height="489px" preserveAspectRatio="none" style="width:896px;height:489px;" version="1.1" viewBox="0 0 896 489" width="896px" zoomAndPan="magnify"><defs><filter height="300%" id="f1r00b03es4pm4" width="300%" x="-1" y="-1"><feGaussianBlur result="blurOut" stdDeviation="2.0"/><feColorMatrix in="blurOut" result="blurOut2" type="matrix" values="0 0 0 0 0 0 0 0 0 0 0 0 0 0 0 0 0 0 .4 0"/><feOffset dx="4.0" dy="4.0" in="blurOut2" result="blurOut3"/><feBlend in="SourceGraphic" in2="blurOut3" mode="normal"/></filter></defs><g><!--class Assertion--><a target="_top" xlink:actuate="onRequest" xlink:href="#oml-Assertion" xlink:show="new" xlink:title="#oml-Assertion" xlink:type="simple"><rect fill="#FFFFFF" filter="url(#f1r00b03es4pm4)" height="40" id="Assertion" style="stroke: #000000; stroke-width: 1.5;" width="85" x="432.5" y="101"/><rect fill="#FFFFFF" height="32" style="stroke: #000000; stroke-width: 1.5;" width="85" x="432.5" y="101"/><ellipse cx="447.5" cy="117" fill="#A9DCDF" rx="11" ry="11" style="stroke: #000000; stroke-width: 1.0;"/><path d="M447.6133,112.3481 L446.4595,117.4199 L448.7754,117.4199 Z M446.1191,110.1069 L449.1157,110.1069 L452.4609,122.5 L450.0122,122.5 L449.2485,119.437 L445.9697,119.437 L445.2227,122.5 L442.7739,122.5 Z "/><text fill="#000000" font-family="sans-serif" font-size="12" font-style="italic" lengthAdjust="spacingAndGlyphs" textLength="53" x="461.5" y="121.5352">Assertion</text><line style="stroke: #000000; stroke-width: 1.5;" x1="433.5" x2="516.5" y1="133" y2="133"/></a><!--class AnnotatedElement--><a target="_top" xlink:actuate="onRequest" xlink:href="#oml-AnnotatedElement" xlink:show="new" xlink:title="#oml-AnnotatedElement" xlink:type="simple"><rect fill="#D3D3D3" filter="url(#f1r00b03es4pm4)" height="32" id="AnnotatedElement" style="stroke: #000000; stroke-width: 1.5;" width="137" x="406.5" y="8"/><ellipse cx="421.5" cy="24" fill="#A9DCDF" rx="11" ry="11" style="stroke: #000000; stroke-width: 1.0;"/><path d="M421.6133,19.3481 L420.4595,24.4199 L422.7754,24.4199 Z M420.1191,17.1069 L423.1157,17.1069 L426.4609,29.5 L424.0122,29.5 L423.2485,26.437 L419.9697,26.437 L419.2227,29.5 L416.7739,29.5 Z "/><text fill="#000000" font-family="sans-serif" font-size="12" font-style="italic" lengthAdjust="spacingAndGlyphs" textLength="105" x="435.5" y="28.5352">AnnotatedElement</text></a><!--class ConceptInstanceTypeAssertion--><a target="_top" xlink:actuate="onRequest" xlink:href="#oml-ConceptInstanceTypeAssertion" xlink:show="new" xlink:title="#oml-ConceptInstanceTypeAssertion" xlink:type="simple"><rect fill="#FFFFFF" filter="url(#f1r00b03es4pm4)" height="52.9551" id="ConceptInstanceTypeAssertion" style="stroke: #000000; stroke-width: 1.5;" width="208" x="371" y="202"/><rect fill="#FFFFFF" height="32" style="stroke: #000000; stroke-width: 1.5;" width="208" x="371" y="202"/><ellipse cx="386" cy="218" fill="#ADD1B2" rx="11" ry="11" style="stroke: #000000; stroke-width: 1.0;"/><path d="M388.9731,223.6431 Q388.3921,223.9419 387.7529,224.0913 Q387.1138,224.2407 386.4082,224.2407 Q383.9014,224.2407 382.5815,222.5889 Q381.2617,220.937 381.2617,217.8159 Q381.2617,214.6865 382.5815,213.0347 Q383.9014,211.3828 386.4082,211.3828 Q387.1138,211.3828 387.7612,211.5322 Q388.4087,211.6816 388.9731,211.9805 L388.9731,214.7031 Q388.3423,214.1221 387.7488,213.8523 Q387.1553,213.5825 386.5244,213.5825 Q385.1797,213.5825 384.4949,214.6492 Q383.8101,215.7158 383.8101,217.8159 Q383.8101,219.9077 384.4949,220.9744 Q385.1797,222.041 386.5244,222.041 Q387.1553,222.041 387.7488,221.7712 Q388.3423,221.5015 388.9731,220.9204 Z "/><text fill="#000000" font-family="sans-serif" font-size="12" lengthAdjust="spacingAndGlyphs" textLength="176" x="400" y="222.5352">ConceptInstanceTypeAssertion</text><line style="stroke: #000000; stroke-width: 1.5;" x1="372" x2="578" y1="234" y2="234"/><text fill="#000000" font-family="sans-serif" font-size="11" lengthAdjust="spacingAndGlyphs" textLength="115" x="377" y="248.6348">concept : Concept [1]</text></a><!--class InstancePropertyValueAssertion--><a target="_top" xlink:actuate="onRequest" xlink:href="#oml-InstancePropertyValueAssertion" xlink:show="new" xlink:title="#oml-InstancePropertyValueAssertion" xlink:type="simple"><rect fill="#FFFFFF" filter="url(#f1r00b03es4pm4)" height="40" id="InstancePropertyValueAssertion" style="stroke: #000000; stroke-width: 1.5;" width="213" x="122.5" y="208.5"/><rect fill="#FFFFFF" height="32" style="stroke: #000000; stroke-width: 1.5;" width="213" x="122.5" y="208.5"/><ellipse cx="137.5" cy="224.5" fill="#A9DCDF" rx="11" ry="11" style="stroke: #000000; stroke-width: 1.0;"/><path d="M137.6133,219.8481 L136.4595,224.9199 L138.7754,224.9199 Z M136.1191,217.6069 L139.1157,217.6069 L142.4609,230 L140.0122,230 L139.2485,226.937 L135.9697,226.937 L135.2227,230 L132.7739,230 Z "/><text fill="#000000" font-family="sans-serif" font-size="12" font-style="italic" lengthAdjust="spacingAndGlyphs" textLength="181" x="151.5" y="229.0352">InstancePropertyValueAssertion</text><line style="stroke: #000000; stroke-width: 1.5;" x1="123.5" x2="334.5" y1="240.5" y2="240.5"/></a><!--class ReifiedRelationshipInstanceTypeAssertion--><a target="_top" xlink:actuate="onRequest" xlink:href="#oml-ReifiedRelationshipInstanceTypeAssertion" xlink:show="new" xlink:title="#oml-ReifiedRelationshipInstanceTypeAssertion" xlink:type="simple"><rect fill="#FFFFFF" filter="url(#f1r00b03es4pm4)" height="52.9551" id="ReifiedRelationshipInstanceTypeAssertion" style="stroke: #000000; stroke-width: 1.5;" width="271" x="614.5" y="202"/><rect fill="#FFFFFF" height="32" style="stroke: #000000; stroke-width: 1.5;" width="271" x="614.5" y="202"/><ellipse cx="629.5" cy="218" fill="#ADD1B2" rx="11" ry="11" style="stroke: #000000; stroke-width: 1.0;"/><path d="M632.4731,223.6431 Q631.8921,223.9419 631.2529,224.0913 Q630.6138,224.2407 629.9082,224.2407 Q627.4014,224.2407 626.0815,222.5889 Q624.7617,220.937 624.7617,217.8159 Q624.7617,214.6865 626.0815,213.0347 Q627.4014,211.3828 629.9082,211.3828 Q630.6138,211.3828 631.2612,211.5322 Q631.9087,211.6816 632.4731,211.9805 L632.4731,214.7031 Q631.8423,214.1221 631.2488,213.8523 Q630.6553,213.5825 630.0244,213.5825 Q628.6797,213.5825 627.9949,214.6492 Q627.3101,215.7158 627.3101,217.8159 Q627.3101,219.9077 627.9949,220.9744 Q628.6797,222.041 630.0244,222.041 Q630.6553,222.041 631.2488,221.7712 Q631.8423,221.5015 632.4731,220.9204 Z "/><text fill="#000000" font-family="sans-serif" font-size="12" lengthAdjust="spacingAndGlyphs" textLength="239" x="643.5" y="222.5352">ReifiedRelationshipInstanceTypeAssertion</text><line style="stroke: #000000; stroke-width: 1.5;" x1="615.5" x2="884.5" y1="234" y2="234"/><text fill="#000000" font-family="sans-serif" font-size="11" lengthAdjust="spacingAndGlyphs" textLength="193" x="620.5" y="248.6348">relationship : ReifiedRelationship [1]</text></a><!--class ScalarPropertyValueAssertion--><a target="_top" xlink:actuate="onRequest" xlink:href="#oml-ScalarPropertyValueAssertion" xlink:show="new" xlink:title="#oml-ScalarPropertyValueAssertion" xlink:type="simple"><rect fill="#FFFFFF" filter="url(#f1r00b03es4pm4)" height="52.9551" id="ScalarPropertyValueAssertion" style="stroke: #000000; stroke-width: 1.5;" width="200" x="6" y="316"/><rect fill="#FFFFFF" height="32" style="stroke: #000000; stroke-width: 1.5;" width="200" x="6" y="316"/><ellipse cx="21" cy="332" fill="#ADD1B2" rx="11" ry="11" style="stroke: #000000; stroke-width: 1.0;"/><path d="M23.9731,337.6431 Q23.3921,337.9419 22.7529,338.0913 Q22.1138,338.2407 21.4082,338.2407 Q18.9014,338.2407 17.5815,336.5889 Q16.2617,334.937 16.2617,331.8159 Q16.2617,328.6865 17.5815,327.0347 Q18.9014,325.3828 21.4082,325.3828 Q22.1138,325.3828 22.7612,325.5322 Q23.4087,325.6816 23.9731,325.9805 L23.9731,328.7031 Q23.3423,328.1221 22.7488,327.8523 Q22.1553,327.5825 21.5244,327.5825 Q20.1797,327.5825 19.4949,328.6492 Q18.8101,329.7158 18.8101,331.8159 Q18.8101,333.9077 19.4949,334.9744 Q20.1797,336.041 21.5244,336.041 Q22.1553,336.041 22.7488,335.7712 Q23.3423,335.5015 23.9731,334.9204 Z "/><text fill="#000000" font-family="sans-serif" font-size="12" lengthAdjust="spacingAndGlyphs" textLength="168" x="35" y="336.5352">ScalarPropertyValueAssertion</text><line style="stroke: #000000; stroke-width: 1.5;" x1="7" x2="205" y1="348" y2="348"/><text fill="#000000" font-family="sans-serif" font-size="11" lengthAdjust="spacingAndGlyphs" textLength="152" x="12" y="362.6348">property : ScalarProperty [1]</text></a><!--class LiteralValue--><a target="_top" xlink:actuate="onRequest" xlink:href="#oml-LiteralValue" xlink:show="new" xlink:title="#oml-LiteralValue" xlink:type="simple"><rect fill="#D3D3D3" filter="url(#f1r00b03es4pm4)" height="32" id="LiteralValue" style="stroke: #000000; stroke-width: 1.5;" width="99" x="56.5" y="446"/><ellipse cx="71.5" cy="462" fill="#A9DCDF" rx="11" ry="11" style="stroke: #000000; stroke-width: 1.0;"/><path d="M71.6133,457.3481 L70.4595,462.4199 L72.7754,462.4199 Z M70.1191,455.1069 L73.1157,455.1069 L76.4609,467.5 L74.0122,467.5 L73.2485,464.437 L69.9697,464.437 L69.2227,467.5 L66.7739,467.5 Z "/><text fill="#000000" font-family="sans-serif" font-size="12" font-style="italic" lengthAdjust="spacingAndGlyphs" textLength="67" x="85.5" y="466.5352">LiteralValue</text></a><!--class StructuredPropertyValueAssertion--><a target="_top" xlink:actuate="onRequest" xlink:href="#oml-StructuredPropertyValueAssertion" xlink:show="new" xlink:title="#oml-StructuredPropertyValueAssertion" xlink:type="simple"><rect fill="#FFFFFF" filter="url(#f1r00b03es4pm4)" height="52.9551" id="StructuredPropertyValueAssertion" style="stroke: #000000; stroke-width: 1.5;" width="225" x="241.5" y="316"/><rect fill="#FFFFFF" height="32" style="stroke: #000000; stroke-width: 1.5;" width="225" x="241.5" y="316"/><ellipse cx="256.5" cy="332" fill="#ADD1B2" rx="11" ry="11" style="stroke: #000000; stroke-width: 1.0;"/><path d="M259.4731,337.6431 Q258.8921,337.9419 258.2529,338.0913 Q257.6138,338.2407 256.9082,338.2407 Q254.4014,338.2407 253.0815,336.5889 Q251.7617,334.937 251.7617,331.8159 Q251.7617,328.6865 253.0815,327.0347 Q254.4014,325.3828 256.9082,325.3828 Q257.6138,325.3828 258.2612,325.5322 Q258.9087,325.6816 259.4731,325.9805 L259.4731,328.7031 Q258.8423,328.1221 258.2488,327.8523 Q257.6553,327.5825 257.0244,327.5825 Q255.6797,327.5825 254.9949,328.6492 Q254.3101,329.7158 254.3101,331.8159 Q254.3101,333.9077 254.9949,334.9744 Q255.6797,336.041 257.0244,336.041 Q257.6553,336.041 258.2488,335.7712 Q258.8423,335.5015 259.4731,334.9204 Z "/><text fill="#000000" font-family="sans-serif" font-size="12" lengthAdjust="spacingAndGlyphs" textLength="193" x="270.5" y="336.5352">StructuredPropertyValueAssertion</text><line style="stroke: #000000; stroke-width: 1.5;" x1="242.5" x2="465.5" y1="348" y2="348"/><text fill="#000000" font-family="sans-serif" font-size="11" lengthAdjust="spacingAndGlyphs" textLength="177" x="247.5" y="362.6348">property : StructuredProperty [1]</text></a><!--class StructureInstance--><a target="_top" xlink:actuate="onRequest" xlink:href="#oml-StructureInstance" xlink:show="new" xlink:title="#oml-StructureInstance" xlink:type="simple"><rect fill="#D3D3D3" filter="url(#f1r00b03es4pm4)" height="32" id="StructureInstance" style="stroke: #000000; stroke-width: 1.5;" width="130" x="289" y="446"/><ellipse cx="304" cy="462" fill="#ADD1B2" rx="11" ry="11" style="stroke: #000000; stroke-width: 1.0;"/><path d="M306.9731,467.6431 Q306.3921,467.9419 305.7529,468.0913 Q305.1138,468.2407 304.4082,468.2407 Q301.9014,468.2407 300.5815,466.5889 Q299.2617,464.937 299.2617,461.8159 Q299.2617,458.6865 300.5815,457.0347 Q301.9014,455.3828 304.4082,455.3828 Q305.1138,455.3828 305.7612,455.5322 Q306.4087,455.6816 306.9731,455.9805 L306.9731,458.7031 Q306.3423,458.1221 305.7488,457.8523 Q305.1553,457.5825 304.5244,457.5825 Q303.1797,457.5825 302.4949,458.6492 Q301.8101,459.7158 301.8101,461.8159 Q301.8101,463.9077 302.4949,464.9744 Q303.1797,466.041 304.5244,466.041 Q305.1553,466.041 305.7488,465.7712 Q306.3423,465.5015 306.9731,464.9204 Z "/><text fill="#000000" font-family="sans-serif" font-size="12" lengthAdjust="spacingAndGlyphs" textLength="98" x="318" y="466.5352">StructureInstance</text></a><!--link AnnotatedElement to Assertion--><a target="_top" xlink:actuate="onRequest" xlink:href="#oml-AnnotatedElement" xlink:show="new" xlink:title="#oml-AnnotatedElement" xlink:type="simple"><path d="M475,60.3639 C475,74.0955 475,89.2141 475,100.9199 " fill="none" id="AnnotatedElement-Assertion" style="stroke: #000000; stroke-width: 1.0;"/><polygon fill="none" points="468.0001,60.0176,475,40.0176,482.0001,60.0175,468.0001,60.0176" style="stroke: #000000; stroke-width: 1.0;"/></a><!--link Assertion to ConceptInstanceTypeAssertion--><a target="_top" xlink:actuate="onRequest" xlink:href="#oml-Assertion" xlink:show="new" xlink:title="#oml-Assertion" xlink:type="simple"><path d="M475,161.5322 C475,175.0251 475,189.7027 475,201.8687 " fill="none" id="Assertion-ConceptInstanceTypeAssertion" style="stroke: #000000; stroke-width: 1.0;"/><polygon fill="none" points="468.0001,161.22,475,141.2199,482.0001,161.2199,468.0001,161.22" style="stroke: #000000; stroke-width: 1.0;"/></a><!--link Assertion to InstancePropertyValueAssertion--><a target="_top" xlink:actuate="onRequest" xlink:href="#oml-Assertion" xlink:show="new" xlink:title="#oml-Assertion" xlink:type="simple"><path d="M414.0059,147.6539 C370.9064,166.488 314.0522,191.3329 274.8021,208.4849 " fill="none" id="Assertion-InstancePropertyValueAssertion" style="stroke: #000000; stroke-width: 1.0;"/><polygon fill="none" points="411.3013,141.1967,432.4309,139.6023,416.9074,154.0253,411.3013,141.1967" style="stroke: #000000; stroke-width: 1.0;"/></a><!--link Assertion to ReifiedRelationshipInstanceTypeAssertion--><a target="_top" xlink:actuate="onRequest" xlink:href="#oml-Assertion" xlink:show="new" xlink:title="#oml-Assertion" xlink:type="simple"><path d="M536.3895,144.9977 C579.5988,161.8886 637.4478,184.5023 682.0466,201.9364 " fill="none" id="Assertion-ReifiedRelationshipInstanceTypeAssertion" style="stroke: #000000; stroke-width: 1.0;"/><polygon fill="none" points="533.7458,151.4802,517.667,137.6789,538.843,138.441,533.7458,151.4802" style="stroke: #000000; stroke-width: 1.0;"/></a><!--link InstancePropertyValueAssertion to ScalarPropertyValueAssertion--><a target="_top" xlink:actuate="onRequest" xlink:href="#oml-InstancePropertyValueAssertion" xlink:show="new" xlink:title="#oml-InstancePropertyValueAssertion" xlink:type="simple"><path d="M192.5557,262.2777 C174.139,279.3468 152.1063,299.7673 134.8793,315.7338 " fill="none" id="InstancePropertyValueAssertion-ScalarPropertyValueAssertion" style="stroke: #000000; stroke-width: 1.0;"/><polygon fill="none" points="187.8662,257.0798,207.2932,248.6185,197.3829,267.3478,187.8662,257.0798" style="stroke: #000000; stroke-width: 1.0;"/></a><!--link ScalarPropertyValueAssertion to LiteralValue--><path d="M106,382.2254 C106,398.6628 106,417.3864 106,432.5615 " fill="none" id="ScalarPropertyValueAssertion-LiteralValue" style="stroke: #000000; stroke-width: 1.0;"/><polygon fill="#000000" points="106,445.8332,110,436.8332,106,440.8332,102,436.8332,106,445.8332" style="stroke: #000000; stroke-width: 1.0;"/><line style="stroke: #000000; stroke-width: 1.0;" x1="106" x2="106.0001" y1="440.8332" y2="432.8333"/><polygon fill="#000000" points="106,369.0209,102,375.0209,106,381.0209,110,375.0209,106,369.0209" style="stroke: #000000; stroke-width: 1.0;"/><text fill="#000000" font-family="sans-serif" font-size="13" lengthAdjust="spacingAndGlyphs" textLength="33" x="107" y="412.5684">value</text><text fill="#000000" font-family="sans-serif" font-size="13" lengthAdjust="spacingAndGlyphs" textLength="8" x="96.625" y="435.3195">1</text><!--link InstancePropertyValueAssertion to StructuredPropertyValueAssertion--><a target="_top" xlink:actuate="onRequest" xlink:href="#oml-InstancePropertyValueAssertion" xlink:show="new" xlink:title="#oml-InstancePropertyValueAssertion" xlink:type="simple"><path d="M266.0369,262.2777 C284.7531,279.3468 307.144,299.7673 324.6511,315.7338 " fill="none" id="InstancePropertyValueAssertion-StructuredPropertyValueAssertion" style="stroke: #000000; stroke-width: 1.0;"/><polygon fill="none" points="261.1202,267.2676,251.0598,248.6185,270.5541,256.9234,261.1202,267.2676" style="stroke: #000000; stroke-width: 1.0;"/></a><!--link StructuredPropertyValueAssertion to StructureInstance--><path d="M354,382.2254 C354,398.6628 354,417.3864 354,432.5615 " fill="none" id="StructuredPropertyValueAssertion-StructureInstance" style="stroke: #000000; stroke-width: 1.0;"/><polygon fill="#000000" points="354,445.8332,358,436.8332,354,440.8332,350,436.8332,354,445.8332" style="stroke: #000000; stroke-width: 1.0;"/><line style="stroke: #000000; stroke-width: 1.0;" x1="354" x2="354.0001" y1="440.8332" y2="432.8333"/><polygon fill="#000000" points="354,369.0209,350,375.0209,354,381.0209,358,375.0209,354,369.0209" style="stroke: #000000; stroke-width: 1.0;"/><text fill="#000000" font-family="sans-serif" font-size="13" lengthAdjust="spacingAndGlyphs" textLength="33" x="355" y="412.5684">value</text><text fill="#000000" font-family="sans-serif" font-size="13" lengthAdjust="spacingAndGlyphs" textLength="8" x="344.625" y="435.3195">1</text><!--
@startuml
skinparam classBackgroundColor LightGray
skinparam classBorderColor Black
skinparam enumBorderColor Black
skinparam ArrowColor Black
hide methods
abstract class Assertion [[#oml-Assertion]] #white {
}
abstract class AnnotatedElement [[#oml-AnnotatedElement]]
hide AnnotatedElement members
Assertion -up-|> AnnotatedElement [[#oml-AnnotatedElement]]
class ConceptInstanceTypeAssertion [[#oml-ConceptInstanceTypeAssertion]] #white {
	concept : Concept [1]
}
ConceptInstanceTypeAssertion -up-|> Assertion [[#oml-Assertion]]
abstract class InstancePropertyValueAssertion [[#oml-InstancePropertyValueAssertion]] #white {
}
InstancePropertyValueAssertion -up-|> Assertion [[#oml-Assertion]]
class ReifiedRelationshipInstanceTypeAssertion [[#oml-ReifiedRelationshipInstanceTypeAssertion]] #white {
	relationship : ReifiedRelationship [1]
}
ReifiedRelationshipInstanceTypeAssertion -up-|> Assertion [[#oml-Assertion]]
class ScalarPropertyValueAssertion [[#oml-ScalarPropertyValueAssertion]] #white {
	property : ScalarProperty [1]
}
abstract class LiteralValue [[#oml-LiteralValue]]
hide LiteralValue members
ScalarPropertyValueAssertion -up-|> InstancePropertyValueAssertion [[#oml-InstancePropertyValueAssertion]]
ScalarPropertyValueAssertion *- -> "1" LiteralValue : value
class StructuredPropertyValueAssertion [[#oml-StructuredPropertyValueAssertion]] #white {
	property : StructuredProperty [1]
}
class StructureInstance [[#oml-StructureInstance]]
hide StructureInstance members
StructuredPropertyValueAssertion -up-|> InstancePropertyValueAssertion [[#oml-InstancePropertyValueAssertion]]
StructuredPropertyValueAssertion *- -> "1" StructureInstance : value
@enduml

PlantUML version 1.2019.00(Sun Jan 13 07:46:42 PST 2019)
(GPL source distribution)
Java Runtime: Java(TM) SE Runtime Environment
JVM: Java HotSpot(TM) 64-Bit Server VM
Java Version: 1.8.0_181-b13
Operating System: Mac OS X
OS Version: 10.13.6
Default Encoding: UTF-8
Language: en
Country: US
--></g></svg>