<?xml version="1.0" encoding="UTF-8" standalone="no"?><svg xmlns="http://www.w3.org/2000/svg" xmlns:xlink="http://www.w3.org/1999/xlink" contentScriptType="application/ecmascript" contentStyleType="text/css" height="535px" preserveAspectRatio="none" style="width:1452px;height:535px;" version="1.1" viewBox="0 0 1452 535" width="1452px" zoomAndPan="magnify"><defs><filter height="300%" id="fzwnaofbk58fr" width="300%" x="-1" y="-1"><feGaussianBlur result="blurOut" stdDeviation="2.0"/><feColorMatrix in="blurOut" result="blurOut2" type="matrix" values="0 0 0 0 0 0 0 0 0 0 0 0 0 0 0 0 0 0 .4 0"/><feOffset dx="4.0" dy="4.0" in="blurOut2" result="blurOut3"/><feBlend in="SourceGraphic" in2="blurOut3" mode="normal"/></filter></defs><g><!--class BinaryScalar--><a target="_top" xlink:actuate="onRequest" xlink:href="#oml-BinaryScalar" xlink:show="new" xlink:title="#oml-BinaryScalar" xlink:type="simple"><rect fill="#FFFFFF" filter="url(#fzwnaofbk58fr)" height="40" id="BinaryScalar" style="stroke: #000000; stroke-width: 1.5;" width="101" x="273.5" y="364.5"/><rect fill="#FFFFFF" height="32" style="stroke: #000000; stroke-width: 1.5;" width="101" x="273.5" y="364.5"/><ellipse cx="288.5" cy="380.5" fill="#ADD1B2" rx="11" ry="11" style="stroke: #000000; stroke-width: 1.0;"/><path d="M291.4731,386.1431 Q290.8921,386.4419 290.2529,386.5913 Q289.6138,386.7407 288.9082,386.7407 Q286.4014,386.7407 285.0815,385.0889 Q283.7617,383.437 283.7617,380.3159 Q283.7617,377.1865 285.0815,375.5347 Q286.4014,373.8828 288.9082,373.8828 Q289.6138,373.8828 290.2612,374.0322 Q290.9087,374.1816 291.4731,374.4805 L291.4731,377.2031 Q290.8423,376.6221 290.2488,376.3523 Q289.6553,376.0825 289.0244,376.0825 Q287.6797,376.0825 286.9949,377.1492 Q286.3101,378.2158 286.3101,380.3159 Q286.3101,382.4077 286.9949,383.4744 Q287.6797,384.541 289.0244,384.541 Q289.6553,384.541 290.2488,384.2712 Q290.8423,384.0015 291.4731,383.4204 Z "/><text fill="#000000" font-family="sans-serif" font-size="12" lengthAdjust="spacingAndGlyphs" textLength="69" x="302.5" y="385.0352">BinaryScalar</text><line style="stroke: #000000; stroke-width: 1.5;" x1="274.5" x2="373.5" y1="396.5" y2="396.5"/></a><!--class CharArrayScalar--><a target="_top" xlink:actuate="onRequest" xlink:href="#oml-CharArrayScalar" xlink:show="new" xlink:title="#oml-CharArrayScalar" xlink:type="simple"><rect fill="#FFFFFF" filter="url(#fzwnaofbk58fr)" height="78.8652" id="CharArrayScalar" style="stroke: #000000; stroke-width: 1.5;" width="124" x="262" y="202"/><rect fill="#FFFFFF" height="32" style="stroke: #000000; stroke-width: 1.5;" width="124" x="262" y="202"/><ellipse cx="277" cy="218" fill="#A9DCDF" rx="11" ry="11" style="stroke: #000000; stroke-width: 1.0;"/><path d="M277.1133,213.3481 L275.9595,218.4199 L278.2754,218.4199 Z M275.6191,211.1069 L278.6157,211.1069 L281.9609,223.5 L279.5122,223.5 L278.7485,220.437 L275.4697,220.437 L274.7227,223.5 L272.2739,223.5 Z "/><text fill="#000000" font-family="sans-serif" font-size="12" font-style="italic" lengthAdjust="spacingAndGlyphs" textLength="92" x="291" y="222.5352">CharArrayScalar</text><line style="stroke: #000000; stroke-width: 1.5;" x1="263" x2="385" y1="234" y2="234"/><text fill="#000000" font-family="sans-serif" font-size="11" lengthAdjust="spacingAndGlyphs" textLength="81" x="268" y="248.6348">length : Integer</text><text fill="#000000" font-family="sans-serif" font-size="11" lengthAdjust="spacingAndGlyphs" textLength="104" x="268" y="261.5898">minLength : Integer</text><text fill="#000000" font-family="sans-serif" font-size="11" lengthAdjust="spacingAndGlyphs" textLength="107" x="268" y="274.5449">maxLength : Integer</text></a><!--class ScalarRange--><a target="_top" xlink:actuate="onRequest" xlink:href="#oml-ScalarRange" xlink:show="new" xlink:title="#oml-ScalarRange" xlink:type="simple"><rect fill="#FFFFFF" filter="url(#fzwnaofbk58fr)" height="40" id="ScalarRange" style="stroke: #000000; stroke-width: 1.5;" width="102" x="615" y="101"/><rect fill="#FFFFFF" height="32" style="stroke: #000000; stroke-width: 1.5;" width="102" x="615" y="101"/><ellipse cx="630" cy="117" fill="#A9DCDF" rx="11" ry="11" style="stroke: #000000; stroke-width: 1.0;"/><path d="M630.1133,112.3481 L628.9595,117.4199 L631.2754,117.4199 Z M628.6191,110.1069 L631.6157,110.1069 L634.9609,122.5 L632.5122,122.5 L631.7485,119.437 L628.4697,119.437 L627.7227,122.5 L625.2739,122.5 Z "/><text fill="#000000" font-family="sans-serif" font-size="12" font-style="italic" lengthAdjust="spacingAndGlyphs" textLength="70" x="644" y="121.5352">ScalarRange</text><line style="stroke: #000000; stroke-width: 1.5;" x1="616" x2="716" y1="133" y2="133"/></a><!--class EnumerationScalar--><a target="_top" xlink:actuate="onRequest" xlink:href="#oml-EnumerationScalar" xlink:show="new" xlink:title="#oml-EnumerationScalar" xlink:type="simple"><rect fill="#FFFFFF" filter="url(#fzwnaofbk58fr)" height="40" id="EnumerationScalar" style="stroke: #000000; stroke-width: 1.5;" width="138" x="429" y="221.5"/><rect fill="#FFFFFF" height="32" style="stroke: #000000; stroke-width: 1.5;" width="138" x="429" y="221.5"/><ellipse cx="444" cy="237.5" fill="#ADD1B2" rx="11" ry="11" style="stroke: #000000; stroke-width: 1.0;"/><path d="M446.9731,243.1431 Q446.3921,243.4419 445.7529,243.5913 Q445.1138,243.7407 444.4082,243.7407 Q441.9014,243.7407 440.5815,242.0889 Q439.2617,240.437 439.2617,237.3159 Q439.2617,234.1865 440.5815,232.5347 Q441.9014,230.8828 444.4082,230.8828 Q445.1138,230.8828 445.7612,231.0322 Q446.4087,231.1816 446.9731,231.4805 L446.9731,234.2031 Q446.3423,233.6221 445.7488,233.3523 Q445.1553,233.0825 444.5244,233.0825 Q443.1797,233.0825 442.4949,234.1492 Q441.8101,235.2158 441.8101,237.3159 Q441.8101,239.4077 442.4949,240.4744 Q443.1797,241.541 444.5244,241.541 Q445.1553,241.541 445.7488,241.2712 Q446.3423,241.0015 446.9731,240.4204 Z "/><text fill="#000000" font-family="sans-serif" font-size="12" lengthAdjust="spacingAndGlyphs" textLength="106" x="458" y="242.0352">EnumerationScalar</text><line style="stroke: #000000; stroke-width: 1.5;" x1="430" x2="566" y1="253.5" y2="253.5"/></a><!--class LiteralValue--><a target="_top" xlink:actuate="onRequest" xlink:href="#oml-LiteralValue" xlink:show="new" xlink:title="#oml-LiteralValue" xlink:type="simple"><rect fill="#D3D3D3" filter="url(#fzwnaofbk58fr)" height="32" id="LiteralValue" style="stroke: #000000; stroke-width: 1.5;" width="99" x="409.5" y="368.5"/><ellipse cx="424.5" cy="384.5" fill="#A9DCDF" rx="11" ry="11" style="stroke: #000000; stroke-width: 1.0;"/><path d="M424.6133,379.8481 L423.4595,384.9199 L425.7754,384.9199 Z M423.1191,377.6069 L426.1157,377.6069 L429.4609,390 L427.0122,390 L426.2485,386.937 L422.9697,386.937 L422.2227,390 L419.7739,390 Z "/><text fill="#000000" font-family="sans-serif" font-size="12" font-style="italic" lengthAdjust="spacingAndGlyphs" textLength="67" x="438.5" y="389.0352">LiteralValue</text></a><!--class IRIScalar--><a target="_top" xlink:actuate="onRequest" xlink:href="#oml-IRIScalar" xlink:show="new" xlink:title="#oml-IRIScalar" xlink:type="simple"><rect fill="#FFFFFF" filter="url(#fzwnaofbk58fr)" height="40" id="IRIScalar" style="stroke: #000000; stroke-width: 1.5;" width="80" x="6" y="478.5"/><rect fill="#FFFFFF" height="32" style="stroke: #000000; stroke-width: 1.5;" width="80" x="6" y="478.5"/><ellipse cx="21" cy="494.5" fill="#ADD1B2" rx="11" ry="11" style="stroke: #000000; stroke-width: 1.0;"/><path d="M23.9731,500.1431 Q23.3921,500.4419 22.7529,500.5913 Q22.1138,500.7407 21.4082,500.7407 Q18.9014,500.7407 17.5815,499.0889 Q16.2617,497.437 16.2617,494.3159 Q16.2617,491.1865 17.5815,489.5347 Q18.9014,487.8828 21.4082,487.8828 Q22.1138,487.8828 22.7612,488.0322 Q23.4087,488.1816 23.9731,488.4805 L23.9731,491.2031 Q23.3423,490.6221 22.7488,490.3523 Q22.1553,490.0825 21.5244,490.0825 Q20.1797,490.0825 19.4949,491.1492 Q18.8101,492.2158 18.8101,494.3159 Q18.8101,496.4077 19.4949,497.4744 Q20.1797,498.541 21.5244,498.541 Q22.1553,498.541 22.7488,498.2712 Q23.3423,498.0015 23.9731,497.4204 Z "/><text fill="#000000" font-family="sans-serif" font-size="12" lengthAdjust="spacingAndGlyphs" textLength="48" x="35" y="499.0352">IRIScalar</text><line style="stroke: #000000; stroke-width: 1.5;" x1="7" x2="85" y1="510.5" y2="510.5"/></a><!--class PatternScalar--><a target="_top" xlink:actuate="onRequest" xlink:href="#oml-PatternScalar" xlink:show="new" xlink:title="#oml-PatternScalar" xlink:type="simple"><rect fill="#FFFFFF" filter="url(#fzwnaofbk58fr)" height="52.9551" id="PatternScalar" style="stroke: #000000; stroke-width: 1.5;" width="107" x="131.5" y="358"/><rect fill="#FFFFFF" height="32" style="stroke: #000000; stroke-width: 1.5;" width="107" x="131.5" y="358"/><ellipse cx="146.5" cy="374" fill="#A9DCDF" rx="11" ry="11" style="stroke: #000000; stroke-width: 1.0;"/><path d="M146.6133,369.3481 L145.4595,374.4199 L147.7754,374.4199 Z M145.1191,367.1069 L148.1157,367.1069 L151.4609,379.5 L149.0122,379.5 L148.2485,376.437 L144.9697,376.437 L144.2227,379.5 L141.7739,379.5 Z "/><text fill="#000000" font-family="sans-serif" font-size="12" font-style="italic" lengthAdjust="spacingAndGlyphs" textLength="75" x="160.5" y="378.5352">PatternScalar</text><line style="stroke: #000000; stroke-width: 1.5;" x1="132.5" x2="237.5" y1="390" y2="390"/><text fill="#000000" font-family="sans-serif" font-size="11" lengthAdjust="spacingAndGlyphs" textLength="80" x="137.5" y="404.6348">pattern : String</text></a><!--class NumericScalar--><a target="_top" xlink:actuate="onRequest" xlink:href="#oml-NumericScalar" xlink:show="new" xlink:title="#oml-NumericScalar" xlink:type="simple"><rect fill="#FFFFFF" filter="url(#fzwnaofbk58fr)" height="40" id="NumericScalar" style="stroke: #000000; stroke-width: 1.5;" width="114" x="609" y="221.5"/><rect fill="#FFFFFF" height="32" style="stroke: #000000; stroke-width: 1.5;" width="114" x="609" y="221.5"/><ellipse cx="624" cy="237.5" fill="#ADD1B2" rx="11" ry="11" style="stroke: #000000; stroke-width: 1.0;"/><path d="M626.9731,243.1431 Q626.3921,243.4419 625.7529,243.5913 Q625.1138,243.7407 624.4082,243.7407 Q621.9014,243.7407 620.5815,242.0889 Q619.2617,240.437 619.2617,237.3159 Q619.2617,234.1865 620.5815,232.5347 Q621.9014,230.8828 624.4082,230.8828 Q625.1138,230.8828 625.7612,231.0322 Q626.4087,231.1816 626.9731,231.4805 L626.9731,234.2031 Q626.3423,233.6221 625.7488,233.3523 Q625.1553,233.0825 624.5244,233.0825 Q623.1797,233.0825 622.4949,234.1492 Q621.8101,235.2158 621.8101,237.3159 Q621.8101,239.4077 622.4949,240.4744 Q623.1797,241.541 624.5244,241.541 Q625.1553,241.541 625.7488,241.2712 Q626.3423,241.0015 626.9731,240.4204 Z "/><text fill="#000000" font-family="sans-serif" font-size="12" lengthAdjust="spacingAndGlyphs" textLength="82" x="638" y="242.0352">NumericScalar</text><line style="stroke: #000000; stroke-width: 1.5;" x1="610" x2="722" y1="253.5" y2="253.5"/></a><!--class LiteralNumber--><a target="_top" xlink:actuate="onRequest" xlink:href="#oml-LiteralNumber" xlink:show="new" xlink:title="#oml-LiteralNumber" xlink:type="simple"><rect fill="#D3D3D3" filter="url(#fzwnaofbk58fr)" height="32" id="LiteralNumber" style="stroke: #000000; stroke-width: 1.5;" width="114" x="672" y="368.5"/><ellipse cx="687" cy="384.5" fill="#A9DCDF" rx="11" ry="11" style="stroke: #000000; stroke-width: 1.0;"/><path d="M687.1133,379.8481 L685.9595,384.9199 L688.2754,384.9199 Z M685.6191,377.6069 L688.6157,377.6069 L691.9609,390 L689.5122,390 L688.7485,386.937 L685.4697,386.937 L684.7227,390 L682.2739,390 Z "/><text fill="#000000" font-family="sans-serif" font-size="12" font-style="italic" lengthAdjust="spacingAndGlyphs" textLength="82" x="701" y="389.0352">LiteralNumber</text></a><!--class PlainLiteralScalar--><a target="_top" xlink:actuate="onRequest" xlink:href="#oml-PlainLiteralScalar" xlink:show="new" xlink:title="#oml-PlainLiteralScalar" xlink:type="simple"><rect fill="#FFFFFF" filter="url(#fzwnaofbk58fr)" height="52.9551" id="PlainLiteralScalar" style="stroke: #000000; stroke-width: 1.5;" width="128" x="121" y="472"/><rect fill="#FFFFFF" height="32" style="stroke: #000000; stroke-width: 1.5;" width="128" x="121" y="472"/><ellipse cx="136" cy="488" fill="#ADD1B2" rx="11" ry="11" style="stroke: #000000; stroke-width: 1.0;"/><path d="M138.9731,493.6431 Q138.3921,493.9419 137.7529,494.0913 Q137.1138,494.2407 136.4082,494.2407 Q133.9014,494.2407 132.5815,492.5889 Q131.2617,490.937 131.2617,487.8159 Q131.2617,484.6865 132.5815,483.0347 Q133.9014,481.3828 136.4082,481.3828 Q137.1138,481.3828 137.7612,481.5322 Q138.4087,481.6816 138.9731,481.9805 L138.9731,484.7031 Q138.3423,484.1221 137.7488,483.8523 Q137.1553,483.5825 136.5244,483.5825 Q135.1797,483.5825 134.4949,484.6492 Q133.8101,485.7158 133.8101,487.8159 Q133.8101,489.9077 134.4949,490.9744 Q135.1797,492.041 136.5244,492.041 Q137.1553,492.041 137.7488,491.7712 Q138.3423,491.5015 138.9731,490.9204 Z "/><text fill="#000000" font-family="sans-serif" font-size="12" lengthAdjust="spacingAndGlyphs" textLength="96" x="150" y="492.5352">PlainLiteralScalar</text><line style="stroke: #000000; stroke-width: 1.5;" x1="122" x2="248" y1="504" y2="504"/><text fill="#000000" font-family="sans-serif" font-size="11" lengthAdjust="spacingAndGlyphs" textLength="90" x="127" y="518.6348">language : String</text></a><!--class Scalar--><a target="_top" xlink:actuate="onRequest" xlink:href="#oml-Scalar" xlink:show="new" xlink:title="#oml-Scalar" xlink:type="simple"><rect fill="#FFFFFF" filter="url(#fzwnaofbk58fr)" height="40" id="Scalar" style="stroke: #000000; stroke-width: 1.5;" width="66" x="758" y="221.5"/><rect fill="#FFFFFF" height="32" style="stroke: #000000; stroke-width: 1.5;" width="66" x="758" y="221.5"/><ellipse cx="773" cy="237.5" fill="#ADD1B2" rx="11" ry="11" style="stroke: #000000; stroke-width: 1.0;"/><path d="M775.9731,243.1431 Q775.3921,243.4419 774.7529,243.5913 Q774.1138,243.7407 773.4082,243.7407 Q770.9014,243.7407 769.5815,242.0889 Q768.2617,240.437 768.2617,237.3159 Q768.2617,234.1865 769.5815,232.5347 Q770.9014,230.8828 773.4082,230.8828 Q774.1138,230.8828 774.7612,231.0322 Q775.4087,231.1816 775.9731,231.4805 L775.9731,234.2031 Q775.3423,233.6221 774.7488,233.3523 Q774.1553,233.0825 773.5244,233.0825 Q772.1797,233.0825 771.4949,234.1492 Q770.8101,235.2158 770.8101,237.3159 Q770.8101,239.4077 771.4949,240.4744 Q772.1797,241.541 773.5244,241.541 Q774.1553,241.541 774.7488,241.2712 Q775.3423,241.0015 775.9731,240.4204 Z "/><text fill="#000000" font-family="sans-serif" font-size="12" lengthAdjust="spacingAndGlyphs" textLength="34" x="787" y="242.0352">Scalar</text><line style="stroke: #000000; stroke-width: 1.5;" x1="759" x2="823" y1="253.5" y2="253.5"/></a><!--class Term--><a target="_top" xlink:actuate="onRequest" xlink:href="#oml-Term" xlink:show="new" xlink:title="#oml-Term" xlink:type="simple"><rect fill="#D3D3D3" filter="url(#fzwnaofbk58fr)" height="32" id="Term" style="stroke: #000000; stroke-width: 1.5;" width="63" x="634.5" y="8"/><ellipse cx="649.5" cy="24" fill="#A9DCDF" rx="11" ry="11" style="stroke: #000000; stroke-width: 1.0;"/><path d="M649.6133,19.3481 L648.4595,24.4199 L650.7754,24.4199 Z M648.1191,17.1069 L651.1157,17.1069 L654.4609,29.5 L652.0122,29.5 L651.2485,26.437 L647.9697,26.437 L647.2227,29.5 L644.7739,29.5 Z "/><text fill="#000000" font-family="sans-serif" font-size="12" font-style="italic" lengthAdjust="spacingAndGlyphs" textLength="31" x="663.5" y="28.5352">Term</text></a><!--class StringScalar--><a target="_top" xlink:actuate="onRequest" xlink:href="#oml-StringScalar" xlink:show="new" xlink:title="#oml-StringScalar" xlink:type="simple"><rect fill="#FFFFFF" filter="url(#fzwnaofbk58fr)" height="40" id="StringScalar" style="stroke: #000000; stroke-width: 1.5;" width="98" x="284" y="478.5"/><rect fill="#FFFFFF" height="32" style="stroke: #000000; stroke-width: 1.5;" width="98" x="284" y="478.5"/><ellipse cx="299" cy="494.5" fill="#ADD1B2" rx="11" ry="11" style="stroke: #000000; stroke-width: 1.0;"/><path d="M301.9731,500.1431 Q301.3921,500.4419 300.7529,500.5913 Q300.1138,500.7407 299.4082,500.7407 Q296.9014,500.7407 295.5815,499.0889 Q294.2617,497.437 294.2617,494.3159 Q294.2617,491.1865 295.5815,489.5347 Q296.9014,487.8828 299.4082,487.8828 Q300.1138,487.8828 300.7612,488.0322 Q301.4087,488.1816 301.9731,488.4805 L301.9731,491.2031 Q301.3423,490.6221 300.7488,490.3523 Q300.1553,490.0825 299.5244,490.0825 Q298.1797,490.0825 297.4949,491.1492 Q296.8101,492.2158 296.8101,494.3159 Q296.8101,496.4077 297.4949,497.4744 Q298.1797,498.541 299.5244,498.541 Q300.1553,498.541 300.7488,498.2712 Q301.3423,498.0015 301.9731,497.4204 Z "/><text fill="#000000" font-family="sans-serif" font-size="12" lengthAdjust="spacingAndGlyphs" textLength="66" x="313" y="499.0352">StringScalar</text><line style="stroke: #000000; stroke-width: 1.5;" x1="285" x2="381" y1="510.5" y2="510.5"/></a><!--class Structure--><a target="_top" xlink:actuate="onRequest" xlink:href="#oml-Structure" xlink:show="new" xlink:title="#oml-Structure" xlink:type="simple"><rect fill="#FFFFFF" filter="url(#fzwnaofbk58fr)" height="40" id="Structure" style="stroke: #000000; stroke-width: 1.5;" width="83" x="768.5" y="101"/><rect fill="#FFFFFF" height="32" style="stroke: #000000; stroke-width: 1.5;" width="83" x="768.5" y="101"/><ellipse cx="783.5" cy="117" fill="#ADD1B2" rx="11" ry="11" style="stroke: #000000; stroke-width: 1.0;"/><path d="M786.4731,122.6431 Q785.8921,122.9419 785.2529,123.0913 Q784.6138,123.2407 783.9082,123.2407 Q781.4014,123.2407 780.0815,121.5889 Q778.7617,119.937 778.7617,116.8159 Q778.7617,113.6865 780.0815,112.0347 Q781.4014,110.3828 783.9082,110.3828 Q784.6138,110.3828 785.2612,110.5322 Q785.9087,110.6816 786.4731,110.9805 L786.4731,113.7031 Q785.8423,113.1221 785.2488,112.8523 Q784.6553,112.5825 784.0244,112.5825 Q782.6797,112.5825 781.9949,113.6492 Q781.3101,114.7158 781.3101,116.8159 Q781.3101,118.9077 781.9949,119.9744 Q782.6797,121.041 784.0244,121.041 Q784.6553,121.041 785.2488,120.7712 Q785.8423,120.5015 786.4731,119.9204 Z "/><text fill="#000000" font-family="sans-serif" font-size="12" lengthAdjust="spacingAndGlyphs" textLength="51" x="797.5" y="121.5352">Structure</text><line style="stroke: #000000; stroke-width: 1.5;" x1="769.5" x2="850.5" y1="133" y2="133"/></a><!--class CharacterizableTerm--><a target="_top" xlink:actuate="onRequest" xlink:href="#oml-CharacterizableTerm" xlink:show="new" xlink:title="#oml-CharacterizableTerm" xlink:type="simple"><rect fill="#D3D3D3" filter="url(#fzwnaofbk58fr)" height="32" id="CharacterizableTerm" style="stroke: #000000; stroke-width: 1.5;" width="154" x="733" y="8"/><ellipse cx="748" cy="24" fill="#A9DCDF" rx="11" ry="11" style="stroke: #000000; stroke-width: 1.0;"/><path d="M748.1133,19.3481 L746.9595,24.4199 L749.2754,24.4199 Z M746.6191,17.1069 L749.6157,17.1069 L752.9609,29.5 L750.5122,29.5 L749.7485,26.437 L746.4697,26.437 L745.7227,29.5 L743.2739,29.5 Z "/><text fill="#000000" font-family="sans-serif" font-size="12" font-style="italic" lengthAdjust="spacingAndGlyphs" textLength="122" x="762" y="28.5352">CharacterizableTerm</text></a><!--class TimeScalar--><a target="_top" xlink:actuate="onRequest" xlink:href="#oml-TimeScalar" xlink:show="new" xlink:title="#oml-TimeScalar" xlink:type="simple"><rect fill="#FFFFFF" filter="url(#fzwnaofbk58fr)" height="40" id="TimeScalar" style="stroke: #000000; stroke-width: 1.5;" width="95" x="1118.5" y="221.5"/><rect fill="#FFFFFF" height="32" style="stroke: #000000; stroke-width: 1.5;" width="95" x="1118.5" y="221.5"/><ellipse cx="1133.5" cy="237.5" fill="#ADD1B2" rx="11" ry="11" style="stroke: #000000; stroke-width: 1.0;"/><path d="M1136.4731,243.1431 Q1135.8921,243.4419 1135.2529,243.5913 Q1134.6138,243.7407 1133.9082,243.7407 Q1131.4014,243.7407 1130.0815,242.0889 Q1128.7617,240.437 1128.7617,237.3159 Q1128.7617,234.1865 1130.0815,232.5347 Q1131.4014,230.8828 1133.9082,230.8828 Q1134.6138,230.8828 1135.2612,231.0322 Q1135.9087,231.1816 1136.4731,231.4805 L1136.4731,234.2031 Q1135.8423,233.6221 1135.2488,233.3523 Q1134.6553,233.0825 1134.0244,233.0825 Q1132.6797,233.0825 1131.9949,234.1492 Q1131.3101,235.2158 1131.3101,237.3159 Q1131.3101,239.4077 1131.9949,240.4744 Q1132.6797,241.541 1134.0244,241.541 Q1134.6553,241.541 1135.2488,241.2712 Q1135.8423,241.0015 1136.4731,240.4204 Z "/><text fill="#000000" font-family="sans-serif" font-size="12" lengthAdjust="spacingAndGlyphs" textLength="63" x="1147.5" y="242.0352">TimeScalar</text><line style="stroke: #000000; stroke-width: 1.5;" x1="1119.5" x2="1212.5" y1="253.5" y2="253.5"/></a><!--class LiteralDateTime--><a target="_top" xlink:actuate="onRequest" xlink:href="#oml-LiteralDateTime" xlink:show="new" xlink:title="#oml-LiteralDateTime" xlink:type="simple"><rect fill="#D3D3D3" filter="url(#fzwnaofbk58fr)" height="32" id="LiteralDateTime" style="stroke: #000000; stroke-width: 1.5;" width="123" x="1166.5" y="368.5"/><ellipse cx="1181.5" cy="384.5" fill="#ADD1B2" rx="11" ry="11" style="stroke: #000000; stroke-width: 1.0;"/><path d="M1184.4731,390.1431 Q1183.8921,390.4419 1183.2529,390.5913 Q1182.6138,390.7407 1181.9082,390.7407 Q1179.4014,390.7407 1178.0815,389.0889 Q1176.7617,387.437 1176.7617,384.3159 Q1176.7617,381.1865 1178.0815,379.5347 Q1179.4014,377.8828 1181.9082,377.8828 Q1182.6138,377.8828 1183.2612,378.0322 Q1183.9087,378.1816 1184.4731,378.4805 L1184.4731,381.2031 Q1183.8423,380.6221 1183.2488,380.3523 Q1182.6553,380.0825 1182.0244,380.0825 Q1180.6797,380.0825 1179.9949,381.1492 Q1179.3101,382.2158 1179.3101,384.3159 Q1179.3101,386.4077 1179.9949,387.4744 Q1180.6797,388.541 1182.0244,388.541 Q1182.6553,388.541 1183.2488,388.2712 Q1183.8423,388.0015 1184.4731,387.4204 Z "/><text fill="#000000" font-family="sans-serif" font-size="12" lengthAdjust="spacingAndGlyphs" textLength="91" x="1195.5" y="389.0352">LiteralDateTime</text></a><!--link CharArrayScalar to BinaryScalar--><a target="_top" xlink:actuate="onRequest" xlink:href="#oml-CharArrayScalar" xlink:show="new" xlink:title="#oml-CharArrayScalar" xlink:type="simple"><path d="M324,301.5953 C324,323.9592 324,347.8511 324,364.2132 " fill="none" id="CharArrayScalar-BinaryScalar" style="stroke: #000000; stroke-width: 1.0;"/><polygon fill="none" points="317.0001,301.3335,324,281.3335,331.0001,301.3334,317.0001,301.3335" style="stroke: #000000; stroke-width: 1.0;"/></a><!--link ScalarRange to CharArrayScalar--><a target="_top" xlink:actuate="onRequest" xlink:href="#oml-ScalarRange" xlink:show="new" xlink:title="#oml-ScalarRange" xlink:type="simple"><path d="M595.1429,141.0477 C543.5366,156.2417 472.2451,178.4648 411,202 C402.9483,205.0941 394.5779,208.561 386.3507,212.1216 " fill="none" id="ScalarRange-CharArrayScalar" style="stroke: #000000; stroke-width: 1.0;"/><polygon fill="none" points="593.4242,134.2575,614.584,135.382,597.3413,147.6983,593.4242,134.2575" style="stroke: #000000; stroke-width: 1.0;"/></a><!--link ScalarRange to EnumerationScalar--><a target="_top" xlink:actuate="onRequest" xlink:href="#oml-ScalarRange" xlink:show="new" xlink:title="#oml-ScalarRange" xlink:type="simple"><path d="M621.2258,153.1149 C590.9355,174.8409 551.8698,202.8612 525.9311,221.4661 " fill="none" id="ScalarRange-EnumerationScalar" style="stroke: #000000; stroke-width: 1.0;"/><polygon fill="none" points="617.5489,147.1377,637.8806,141.169,625.7087,158.5139,617.5489,147.1377" style="stroke: #000000; stroke-width: 1.0;"/></a><!--link EnumerationScalar to LiteralValue--><path d="M474.1489,272.7874 C466.8354,284.1938 459.736,297.5945 456,311 C452.0304,325.2437 452.2651,341.6377 453.7132,355.3234 " fill="none" id="EnumerationScalar-LiteralValue" style="stroke: #000000; stroke-width: 1.0;"/><polygon fill="#000000" points="455.536,368.4014,458.2552,358.9354,454.8457,363.4493,450.3318,360.0398,455.536,368.4014" style="stroke: #000000; stroke-width: 1.0;"/><line style="stroke: #000000; stroke-width: 1.0;" x1="454.8457" x2="453.7413" y1="363.4493" y2="355.5259"/><polygon fill="#000000" points="481.716,261.706,475.0292,264.4053,474.949,271.616,481.6358,268.9167,481.716,261.706" style="stroke: #000000; stroke-width: 1.0;"/><text fill="#000000" font-family="sans-serif" font-size="13" lengthAdjust="spacingAndGlyphs" textLength="43" x="457" y="324.5684">literals</text><text fill="#000000" font-family="sans-serif" font-size="13" lengthAdjust="spacingAndGlyphs" textLength="6" x="447.2332" y="357.6181">*</text><!--link PatternScalar to IRIScalar--><a target="_top" xlink:actuate="onRequest" xlink:href="#oml-PatternScalar" xlink:show="new" xlink:title="#oml-PatternScalar" xlink:type="simple"><path d="M136.8621,423.98 C114.5087,442.313 88.8896,463.3244 70.5654,478.3529 " fill="none" id="PatternScalar-IRIScalar" style="stroke: #000000; stroke-width: 1.0;"/><polygon fill="none" points="132.5074,418.4984,152.4107,411.2279,141.3854,429.3234,132.5074,418.4984" style="stroke: #000000; stroke-width: 1.0;"/></a><!--link ScalarRange to NumericScalar--><a target="_top" xlink:actuate="onRequest" xlink:href="#oml-ScalarRange" xlink:show="new" xlink:title="#oml-ScalarRange" xlink:type="simple"><path d="M666,161.2184 C666,181.3766 666,204.9108 666,221.2652 " fill="none" id="ScalarRange-NumericScalar" style="stroke: #000000; stroke-width: 1.0;"/><polygon fill="none" points="659.0001,161.169,666,141.169,673.0001,161.169,659.0001,161.169" style="stroke: #000000; stroke-width: 1.0;"/></a><!--link NumericScalar to LiteralNumber--><path d="M613.6104,267.4628 C581.3517,283.9838 545.3445,303.6136 541,311 C537.1695,317.5126 536.4913,321.9371 541,328 C555.4069,347.3732 611.4501,362.6082 658.6307,372.3517 " fill="none" id="NumericScalar-LiteralNumber" style="stroke: #000000; stroke-width: 1.0;"/><polygon fill="#000000" points="671.6611,374.953,663.6185,369.2683,666.7579,373.974,662.0521,377.1135,671.6611,374.953" style="stroke: #000000; stroke-width: 1.0;"/><line style="stroke: #000000; stroke-width: 1.0;" x1="666.7579" x2="658.9127" y1="373.974" y2="372.4079"/><polygon fill="#000000" points="625.26,261.5452,618.099,260.6963,614.5612,266.9799,621.7221,267.8288,625.26,261.5452" style="stroke: #000000; stroke-width: 1.0;"/><text fill="#000000" font-family="sans-serif" font-size="13" lengthAdjust="spacingAndGlyphs" textLength="80" x="542" y="324.5684">minInclusive</text><text fill="#000000" font-family="sans-serif" font-size="13" lengthAdjust="spacingAndGlyphs" textLength="24" x="640.0772" y="370.6738">0..1</text><!--link NumericScalar to LiteralNumber--><path d="M657.994,274.801 C655.6492,291.4859 655.4406,311.5777 663,328 C668.8655,340.7424 679.1796,351.6832 689.936,360.4496 " fill="none" id="NumericScalar-LiteralNumber" style="stroke: #000000; stroke-width: 1.0;"/><polygon fill="#000000" points="700.6915,368.4775,695.8717,359.8886,696.6846,365.4867,691.0864,366.2997,700.6915,368.4775" style="stroke: #000000; stroke-width: 1.0;"/><line style="stroke: #000000; stroke-width: 1.0;" x1="696.6846" x2="690.2735" y1="365.4867" y2="360.7015"/><polygon fill="#000000" points="660.3425,261.7423,655.3437,266.9396,658.2185,273.5528,663.2174,268.3556,660.3425,261.7423" style="stroke: #000000; stroke-width: 1.0;"/><text fill="#000000" font-family="sans-serif" font-size="13" lengthAdjust="spacingAndGlyphs" textLength="83" x="664" y="324.5684">minExclusive</text><text fill="#000000" font-family="sans-serif" font-size="13" lengthAdjust="spacingAndGlyphs" textLength="24" x="662.3316" y="357.7213">0..1</text><!--link NumericScalar to LiteralNumber--><path d="M714.8624,269.0574 C729.5764,280.0434 743.9449,294.1336 752,311 C758.9524,325.5575 754.2422,342.7197 747.3184,356.7976 " fill="none" id="NumericScalar-LiteralNumber" style="stroke: #000000; stroke-width: 1.0;"/><polygon fill="#000000" points="740.9016,368.2322,748.7943,362.3411,743.3485,363.8718,741.8177,358.426,740.9016,368.2322" style="stroke: #000000; stroke-width: 1.0;"/><line style="stroke: #000000; stroke-width: 1.0;" x1="743.3485" x2="747.2637" y1="363.8718" y2="356.8953"/><polygon fill="#000000" points="704.1725,261.6112,706.8096,268.3228,714.0192,268.47,711.3821,261.7584,704.1725,261.6112" style="stroke: #000000; stroke-width: 1.0;"/><text fill="#000000" font-family="sans-serif" font-size="13" lengthAdjust="spacingAndGlyphs" textLength="83" x="757" y="324.5684">maxInclusive</text><text fill="#000000" font-family="sans-serif" font-size="13" lengthAdjust="spacingAndGlyphs" textLength="24" x="716.8678" y="357.6838">0..1</text><!--link NumericScalar to LiteralNumber--><path d="M711.6179,267.8714 C720.8392,272.6222 730.5945,277.2494 740,281 C786.6719,299.6112 818.5476,271.0339 849,311 C868.7547,336.9264 835.3251,355.7924 798.7811,367.9154 " fill="none" id="NumericScalar-LiteralNumber" style="stroke: #000000; stroke-width: 1.0;"/><polygon fill="#000000" points="786.3408,371.7687,796.1213,372.9268,791.1169,370.2894,793.7544,365.285,786.3408,371.7687" style="stroke: #000000; stroke-width: 1.0;"/><line style="stroke: #000000; stroke-width: 1.0;" x1="791.1169" x2="798.7588" y1="370.2894" y2="367.9223"/><polygon fill="#000000" points="699.8776,261.6179,703.2927,267.969,710.4688,267.2593,707.0537,260.9082,699.8776,261.6179" style="stroke: #000000; stroke-width: 1.0;"/><text fill="#000000" font-family="sans-serif" font-size="13" lengthAdjust="spacingAndGlyphs" textLength="86" x="855" y="324.5684">maxExclusive</text><text fill="#000000" font-family="sans-serif" font-size="13" lengthAdjust="spacingAndGlyphs" textLength="24" x="793.925" y="367.1412">0..1</text><!--link CharArrayScalar to PatternScalar--><a target="_top" xlink:actuate="onRequest" xlink:href="#oml-CharArrayScalar" xlink:show="new" xlink:title="#oml-CharArrayScalar" xlink:type="simple"><path d="M271.0697,295.9535 C250.4203,317.1971 227.6988,340.5725 210.7886,357.9693 " fill="none" id="CharArrayScalar-PatternScalar" style="stroke: #000000; stroke-width: 1.0;"/><polygon fill="none" points="266.3211,290.7957,285.2808,281.3335,276.36,300.5538,266.3211,290.7957" style="stroke: #000000; stroke-width: 1.0;"/></a><!--link PatternScalar to PlainLiteralScalar--><a target="_top" xlink:actuate="onRequest" xlink:href="#oml-PatternScalar" xlink:show="new" xlink:title="#oml-PatternScalar" xlink:type="simple"><path d="M185,431.6952 C185,445.4342 185,459.9568 185,471.9395 " fill="none" id="PatternScalar-PlainLiteralScalar" style="stroke: #000000; stroke-width: 1.0;"/><polygon fill="none" points="178.0001,431.228,185,411.2279,192.0001,431.2279,178.0001,431.228" style="stroke: #000000; stroke-width: 1.0;"/></a><!--link ScalarRange to Scalar--><a target="_top" xlink:actuate="onRequest" xlink:href="#oml-ScalarRange" xlink:show="new" xlink:title="#oml-ScalarRange" xlink:type="simple"><path d="M701.4988,155.2209 C723.6207,176.5464 751.3298,203.2579 770.0096,221.2652 " fill="none" id="ScalarRange-Scalar" style="stroke: #000000; stroke-width: 1.0;"/><polygon fill="none" points="696.4629,160.0892,686.9222,141.169,706.1794,150.01,696.4629,160.0892" style="stroke: #000000; stroke-width: 1.0;"/></a><!--link Term to ScalarRange--><a target="_top" xlink:actuate="onRequest" xlink:href="#oml-Term" xlink:show="new" xlink:title="#oml-Term" xlink:type="simple"><path d="M666,60.3639 C666,74.0955 666,89.2141 666,100.9199 " fill="none" id="Term-ScalarRange" style="stroke: #000000; stroke-width: 1.0;"/><polygon fill="none" points="659.0001,60.0176,666,40.0176,673.0001,60.0175,659.0001,60.0176" style="stroke: #000000; stroke-width: 1.0;"/></a><!--link PatternScalar to StringScalar--><a target="_top" xlink:actuate="onRequest" xlink:href="#oml-PatternScalar" xlink:show="new" xlink:title="#oml-PatternScalar" xlink:type="simple"><path d="M235.5625,423.4468 C259.525,441.9044 287.144,463.1785 306.8441,478.3529 " fill="none" id="PatternScalar-StringScalar" style="stroke: #000000; stroke-width: 1.0;"/><polygon fill="none" points="231.2724,428.9781,219.6994,411.2279,239.8156,417.8869,231.2724,428.9781" style="stroke: #000000; stroke-width: 1.0;"/></a><!--link CharacterizableTerm to Structure--><a target="_top" xlink:actuate="onRequest" xlink:href="#oml-CharacterizableTerm" xlink:show="new" xlink:title="#oml-CharacterizableTerm" xlink:type="simple"><path d="M810,60.3639 C810,74.0955 810,89.2141 810,100.9199 " fill="none" id="CharacterizableTerm-Structure" style="stroke: #000000; stroke-width: 1.0;"/><polygon fill="none" points="803.0001,60.0176,810,40.0176,817.0001,60.0175,803.0001,60.0176" style="stroke: #000000; stroke-width: 1.0;"/></a><!--link ScalarRange to TimeScalar--><a target="_top" xlink:actuate="onRequest" xlink:href="#oml-ScalarRange" xlink:show="new" xlink:title="#oml-ScalarRange" xlink:type="simple"><path d="M736.6226,138.0201 C839.9791,162.929 1029.7415,208.6617 1118.226,229.9865 " fill="none" id="ScalarRange-TimeScalar" style="stroke: #000000; stroke-width: 1.0;"/><polygon fill="none" points="734.9623,144.8204,717.159,133.3293,738.2424,131.2101,734.9623,144.8204" style="stroke: #000000; stroke-width: 1.0;"/></a><!--link TimeScalar to LiteralDateTime--><path d="M1105.9028,257.8465 C1063.351,272.5147 1017.6597,296.5656 1041,328 C1054.8604,346.667 1107.5149,361.5456 1153.4327,371.3391 " fill="none" id="TimeScalar-LiteralDateTime" style="stroke: #000000; stroke-width: 1.0;"/><polygon fill="#000000" points="1166.1674,373.9654,1158.1609,368.23,1161.2705,372.9555,1156.545,376.0651,1166.1674,373.9654" style="stroke: #000000; stroke-width: 1.0;"/><line style="stroke: #000000; stroke-width: 1.0;" x1="1161.2705" x2="1153.4354" y1="372.9555" y2="371.3396"/><polygon fill="#000000" points="1118.3428,253.7788,1111.3968,251.8416,1106.9371,257.5083,1113.8831,259.4455,1118.3428,253.7788" style="stroke: #000000; stroke-width: 1.0;"/><text fill="#000000" font-family="sans-serif" font-size="13" lengthAdjust="spacingAndGlyphs" textLength="80" x="1042" y="324.5684">minInclusive</text><text fill="#000000" font-family="sans-serif" font-size="13" lengthAdjust="spacingAndGlyphs" textLength="24" x="1134.5534" y="369.69">0..1</text><!--link TimeScalar to LiteralDateTime--><path d="M1158.0463,274.7771 C1155.715,291.4558 1155.5027,311.5493 1163,328 C1168.7667,340.6532 1178.9217,351.5696 1189.5157,360.3411 " fill="none" id="TimeScalar-LiteralDateTime" style="stroke: #000000; stroke-width: 1.0;"/><polygon fill="#000000" points="1200.1098,368.3826,1195.3595,359.7551,1196.1272,365.3596,1190.5226,366.1273,1200.1098,368.3826" style="stroke: #000000; stroke-width: 1.0;"/><line style="stroke: #000000; stroke-width: 1.0;" x1="1196.1272" x2="1189.755" y1="365.3596" y2="360.5227"/><polygon fill="#000000" points="1160.3803,261.725,1155.3866,266.9272,1158.2679,273.5376,1163.2616,268.3354,1160.3803,261.725" style="stroke: #000000; stroke-width: 1.0;"/><text fill="#000000" font-family="sans-serif" font-size="13" lengthAdjust="spacingAndGlyphs" textLength="83" x="1164" y="324.5684">minExclusive</text><text fill="#000000" font-family="sans-serif" font-size="13" lengthAdjust="spacingAndGlyphs" textLength="24" x="1162.3975" y="357.8859">0..1</text><!--link TimeScalar to LiteralDateTime--><path d="M1214.8624,269.0574 C1229.5764,280.0434 1243.9449,294.1336 1252,311 C1258.9799,325.615 1254.0491,342.7806 1246.8844,356.8459 " fill="none" id="TimeScalar-LiteralDateTime" style="stroke: #000000; stroke-width: 1.0;"/><polygon fill="#000000" points="1240.2564,368.2662,1248.2336,362.4901,1242.7662,363.9418,1241.3145,358.4743,1240.2564,368.2662" style="stroke: #000000; stroke-width: 1.0;"/><line style="stroke: #000000; stroke-width: 1.0;" x1="1242.7662" x2="1246.782" y1="363.9418" y2="357.0227"/><polygon fill="#000000" points="1204.1725,261.6112,1206.8096,268.3228,1214.0192,268.47,1211.3821,261.7584,1204.1725,261.6112" style="stroke: #000000; stroke-width: 1.0;"/><text fill="#000000" font-family="sans-serif" font-size="13" lengthAdjust="spacingAndGlyphs" textLength="83" x="1256" y="324.5684">maxInclusive</text><text fill="#000000" font-family="sans-serif" font-size="13" lengthAdjust="spacingAndGlyphs" textLength="24" x="1216.3445" y="357.7294">0..1</text><!--link TimeScalar to LiteralDateTime--><path d="M1226.1567,256.5732 C1273.4203,269.7757 1333.5921,290.0754 1348,311 C1365.5225,336.4479 1336.4456,354.6903 1302.5348,366.6359 " fill="none" id="TimeScalar-LiteralDateTime" style="stroke: #000000; stroke-width: 1.0;"/><polygon fill="#000000" points="1289.9,370.7536,1299.6965,371.7679,1294.6539,369.2043,1297.2175,364.1617,1289.9,370.7536" style="stroke: #000000; stroke-width: 1.0;"/><line style="stroke: #000000; stroke-width: 1.0;" x1="1294.6539" x2="1302.2601" y1="369.2043" y2="366.7254"/><polygon fill="#000000" points="1213.5274,253.1258,1218.2623,258.5646,1225.1038,256.2859,1220.369,250.847,1213.5274,253.1258" style="stroke: #000000; stroke-width: 1.0;"/><text fill="#000000" font-family="sans-serif" font-size="13" lengthAdjust="spacingAndGlyphs" textLength="86" x="1354" y="324.5684">maxExclusive</text><text fill="#000000" font-family="sans-serif" font-size="13" lengthAdjust="spacingAndGlyphs" textLength="24" x="1297.5209" y="366.1469">0..1</text><!--
@startuml
skinparam classBackgroundColor LightGray
skinparam classBorderColor Black
skinparam enumBorderColor Black
skinparam ArrowColor Black
hide methods
class BinaryScalar [[#oml-BinaryScalar]] #white {
}
BinaryScalar -up-|> CharArrayScalar [[#oml-CharArrayScalar]]
abstract class CharArrayScalar [[#oml-CharArrayScalar]] #white {
	length : Integer
	minLength : Integer
	maxLength : Integer
}
CharArrayScalar -up-|> ScalarRange [[#oml-ScalarRange]]
class EnumerationScalar [[#oml-EnumerationScalar]] #white {
}
abstract class LiteralValue [[#oml-LiteralValue]]
hide LiteralValue members
EnumerationScalar -up-|> ScalarRange [[#oml-ScalarRange]]
EnumerationScalar *- -> "*" LiteralValue : literals
class IRIScalar [[#oml-IRIScalar]] #white {
}
IRIScalar -up-|> PatternScalar [[#oml-PatternScalar]]
class NumericScalar [[#oml-NumericScalar]] #white {
}
abstract class LiteralNumber [[#oml-LiteralNumber]]
hide LiteralNumber members
abstract class LiteralNumber [[#oml-LiteralNumber]]
hide LiteralNumber members
abstract class LiteralNumber [[#oml-LiteralNumber]]
hide LiteralNumber members
abstract class LiteralNumber [[#oml-LiteralNumber]]
hide LiteralNumber members
NumericScalar -up-|> ScalarRange [[#oml-ScalarRange]]
NumericScalar *- -> "0..1" LiteralNumber : minInclusive
NumericScalar *- -> "0..1" LiteralNumber : minExclusive
NumericScalar *- -> "0..1" LiteralNumber : maxInclusive
NumericScalar *- -> "0..1" LiteralNumber : maxExclusive
abstract class PatternScalar [[#oml-PatternScalar]] #white {
	pattern : String
}
PatternScalar -up-|> CharArrayScalar [[#oml-CharArrayScalar]]
class PlainLiteralScalar [[#oml-PlainLiteralScalar]] #white {
	language : String
}
PlainLiteralScalar -up-|> PatternScalar [[#oml-PatternScalar]]
class Scalar [[#oml-Scalar]] #white {
}
Scalar -up-|> ScalarRange [[#oml-ScalarRange]]
abstract class ScalarRange [[#oml-ScalarRange]] #white {
}
abstract class Term [[#oml-Term]]
hide Term members
ScalarRange -up-|> Term [[#oml-Term]]
class StringScalar [[#oml-StringScalar]] #white {
}
StringScalar -up-|> PatternScalar [[#oml-PatternScalar]]
class Structure [[#oml-Structure]] #white {
}
abstract class CharacterizableTerm [[#oml-CharacterizableTerm]]
hide CharacterizableTerm members
Structure -up-|> CharacterizableTerm [[#oml-CharacterizableTerm]]
class TimeScalar [[#oml-TimeScalar]] #white {
}
class LiteralDateTime [[#oml-LiteralDateTime]]
hide LiteralDateTime members
class LiteralDateTime [[#oml-LiteralDateTime]]
hide LiteralDateTime members
class LiteralDateTime [[#oml-LiteralDateTime]]
hide LiteralDateTime members
class LiteralDateTime [[#oml-LiteralDateTime]]
hide LiteralDateTime members
TimeScalar -up-|> ScalarRange [[#oml-ScalarRange]]
TimeScalar *- -> "0..1" LiteralDateTime : minInclusive
TimeScalar *- -> "0..1" LiteralDateTime : minExclusive
TimeScalar *- -> "0..1" LiteralDateTime : maxInclusive
TimeScalar *- -> "0..1" LiteralDateTime : maxExclusive
@enduml

PlantUML version 1.2019.00(Sun Jan 13 07:46:42 PST 2019)
(GPL source distribution)
Java Runtime: Java(TM) SE Runtime Environment
JVM: Java HotSpot(TM) 64-Bit Server VM
Java Version: 1.8.0_181-b13
Operating System: Mac OS X
OS Version: 10.13.6
Default Encoding: UTF-8
Language: en
Country: US
--></g></svg>