<?xml version="1.0" encoding="UTF-8" standalone="no"?><svg xmlns="http://www.w3.org/2000/svg" xmlns:xlink="http://www.w3.org/1999/xlink" contentScriptType="application/ecmascript" contentStyleType="text/css" height="509px" preserveAspectRatio="none" style="width:714px;height:509px;" version="1.1" viewBox="0 0 714 509" width="714px" zoomAndPan="magnify"><defs><filter height="300%" id="fci6qnrm7l498" width="300%" x="-1" y="-1"><feGaussianBlur result="blurOut" stdDeviation="2.0"/><feColorMatrix in="blurOut" result="blurOut2" type="matrix" values="0 0 0 0 0 0 0 0 0 0 0 0 0 0 0 0 0 0 .4 0"/><feOffset dx="4.0" dy="4.0" in="blurOut2" result="blurOut3"/><feBlend in="SourceGraphic" in2="blurOut3" mode="normal"/></filter></defs><g><!--class AnnotationProperty--><a target="_top" xlink:actuate="onRequest" xlink:href="#oml-AnnotationProperty" xlink:show="new" xlink:title="#oml-AnnotationProperty" xlink:type="simple"><rect fill="#FFFFFF" filter="url(#fci6qnrm7l498)" height="40" id="AnnotationProperty" style="stroke: #000000; stroke-width: 1.5;" width="142" x="290.5" y="332"/><rect fill="#FFFFFF" height="32" style="stroke: #000000; stroke-width: 1.5;" width="142" x="290.5" y="332"/><ellipse cx="305.5" cy="348" fill="#ADD1B2" rx="11" ry="11" style="stroke: #000000; stroke-width: 1.0;"/><path d="M308.4731,353.6431 Q307.8921,353.9419 307.2529,354.0913 Q306.6138,354.2407 305.9082,354.2407 Q303.4014,354.2407 302.0815,352.5889 Q300.7617,350.937 300.7617,347.8159 Q300.7617,344.6865 302.0815,343.0347 Q303.4014,341.3828 305.9082,341.3828 Q306.6138,341.3828 307.2612,341.5322 Q307.9087,341.6816 308.4731,341.9805 L308.4731,344.7031 Q307.8423,344.1221 307.2488,343.8523 Q306.6553,343.5825 306.0244,343.5825 Q304.6797,343.5825 303.9949,344.6492 Q303.3101,345.7158 303.3101,347.8159 Q303.3101,349.9077 303.9949,350.9744 Q304.6797,352.041 306.0244,352.041 Q306.6553,352.041 307.2488,351.7712 Q307.8423,351.5015 308.4731,350.9204 Z "/><text fill="#000000" font-family="sans-serif" font-size="12" lengthAdjust="spacingAndGlyphs" textLength="110" x="319.5" y="352.5352">AnnotationProperty</text><line style="stroke: #000000; stroke-width: 1.5;" x1="291.5" x2="431.5" y1="364" y2="364"/></a><!--class Property--><a target="_top" xlink:actuate="onRequest" xlink:href="#oml-Property" xlink:show="new" xlink:title="#oml-Property" xlink:type="simple"><rect fill="#FFFFFF" filter="url(#fci6qnrm7l498)" height="40" id="Property" style="stroke: #000000; stroke-width: 1.5;" width="81" x="220" y="218"/><rect fill="#FFFFFF" height="32" style="stroke: #000000; stroke-width: 1.5;" width="81" x="220" y="218"/><ellipse cx="235" cy="234" fill="#A9DCDF" rx="11" ry="11" style="stroke: #000000; stroke-width: 1.0;"/><path d="M235.1133,229.3481 L233.9595,234.4199 L236.2754,234.4199 Z M233.6191,227.1069 L236.6157,227.1069 L239.9609,239.5 L237.5122,239.5 L236.7485,236.437 L233.4697,236.437 L232.7227,239.5 L230.2739,239.5 Z "/><text fill="#000000" font-family="sans-serif" font-size="12" font-style="italic" lengthAdjust="spacingAndGlyphs" textLength="49" x="249" y="238.5352">Property</text><line style="stroke: #000000; stroke-width: 1.5;" x1="221" x2="300" y1="250" y2="250"/></a><!--class CharacterizableTerm--><a target="_top" xlink:actuate="onRequest" xlink:href="#oml-CharacterizableTerm" xlink:show="new" xlink:title="#oml-CharacterizableTerm" xlink:type="simple"><rect fill="#FFFFFF" filter="url(#fci6qnrm7l498)" height="40" id="CharacterizableTerm" style="stroke: #000000; stroke-width: 1.5;" width="154" x="336.5" y="218"/><rect fill="#FFFFFF" height="32" style="stroke: #000000; stroke-width: 1.5;" width="154" x="336.5" y="218"/><ellipse cx="351.5" cy="234" fill="#A9DCDF" rx="11" ry="11" style="stroke: #000000; stroke-width: 1.0;"/><path d="M351.6133,229.3481 L350.4595,234.4199 L352.7754,234.4199 Z M350.1191,227.1069 L353.1157,227.1069 L356.4609,239.5 L354.0122,239.5 L353.2485,236.437 L349.9697,236.437 L349.2227,239.5 L346.7739,239.5 Z "/><text fill="#000000" font-family="sans-serif" font-size="12" font-style="italic" lengthAdjust="spacingAndGlyphs" textLength="122" x="365.5" y="238.5352">CharacterizableTerm</text><line style="stroke: #000000; stroke-width: 1.5;" x1="337.5" x2="489.5" y1="250" y2="250"/></a><!--class Term--><a target="_top" xlink:actuate="onRequest" xlink:href="#oml-Term" xlink:show="new" xlink:title="#oml-Term" xlink:type="simple"><rect fill="#FFFFFF" filter="url(#fci6qnrm7l498)" height="40" id="Term" style="stroke: #000000; stroke-width: 1.5;" width="63" x="382" y="101"/><rect fill="#FFFFFF" height="32" style="stroke: #000000; stroke-width: 1.5;" width="63" x="382" y="101"/><ellipse cx="397" cy="117" fill="#A9DCDF" rx="11" ry="11" style="stroke: #000000; stroke-width: 1.0;"/><path d="M397.1133,112.3481 L395.9595,117.4199 L398.2754,117.4199 Z M395.6191,110.1069 L398.6157,110.1069 L401.9609,122.5 L399.5122,122.5 L398.7485,119.437 L395.4697,119.437 L394.7227,122.5 L392.2739,122.5 Z "/><text fill="#000000" font-family="sans-serif" font-size="12" font-style="italic" lengthAdjust="spacingAndGlyphs" textLength="31" x="411" y="121.5352">Term</text><line style="stroke: #000000; stroke-width: 1.5;" x1="383" x2="444" y1="133" y2="133"/></a><!--class CharacterizationProperty--><a target="_top" xlink:actuate="onRequest" xlink:href="#oml-CharacterizationProperty" xlink:show="new" xlink:title="#oml-CharacterizationProperty" xlink:type="simple"><rect fill="#FFFFFF" filter="url(#fci6qnrm7l498)" height="65.9102" id="CharacterizationProperty" style="stroke: #000000; stroke-width: 1.5;" width="191" x="64" y="319"/><rect fill="#FFFFFF" height="32" style="stroke: #000000; stroke-width: 1.5;" width="191" x="64" y="319"/><ellipse cx="86.2" cy="335" fill="#A9DCDF" rx="11" ry="11" style="stroke: #000000; stroke-width: 1.0;"/><path d="M86.3133,330.3481 L85.1595,335.4199 L87.4754,335.4199 Z M84.8191,328.1069 L87.8157,328.1069 L91.1609,340.5 L88.7122,340.5 L87.9485,337.437 L84.6697,337.437 L83.9227,340.5 L81.4739,340.5 Z "/><text fill="#000000" font-family="sans-serif" font-size="12" font-style="italic" lengthAdjust="spacingAndGlyphs" textLength="143" x="101.8" y="339.5352">CharacterizationProperty</text><line style="stroke: #000000; stroke-width: 1.5;" x1="65" x2="254" y1="351" y2="351"/><text fill="#000000" font-family="sans-serif" font-size="11" lengthAdjust="spacingAndGlyphs" textLength="105" x="70" y="365.6348">functional : Boolean</text><text fill="#000000" font-family="sans-serif" font-size="11" lengthAdjust="spacingAndGlyphs" textLength="179" x="70" y="378.5898">domain : CharacterizableTerm [1]</text></a><!--class ScalarProperty--><a target="_top" xlink:actuate="onRequest" xlink:href="#oml-ScalarProperty" xlink:show="new" xlink:title="#oml-ScalarProperty" xlink:type="simple"><rect fill="#FFFFFF" filter="url(#fci6qnrm7l498)" height="52.9551" id="ScalarProperty" style="stroke: #000000; stroke-width: 1.5;" width="135" x="6" y="446"/><rect fill="#FFFFFF" height="32" style="stroke: #000000; stroke-width: 1.5;" width="135" x="6" y="446"/><ellipse cx="30" cy="462" fill="#ADD1B2" rx="11" ry="11" style="stroke: #000000; stroke-width: 1.0;"/><path d="M32.9731,467.6431 Q32.3921,467.9419 31.7529,468.0913 Q31.1138,468.2407 30.4082,468.2407 Q27.9014,468.2407 26.5815,466.5889 Q25.2617,464.937 25.2617,461.8159 Q25.2617,458.6865 26.5815,457.0347 Q27.9014,455.3828 30.4082,455.3828 Q31.1138,455.3828 31.7612,455.5322 Q32.4087,455.6816 32.9731,455.9805 L32.9731,458.7031 Q32.3423,458.1221 31.7488,457.8523 Q31.1553,457.5825 30.5244,457.5825 Q29.1797,457.5825 28.4949,458.6492 Q27.8101,459.7158 27.8101,461.8159 Q27.8101,463.9077 28.4949,464.9744 Q29.1797,466.041 30.5244,466.041 Q31.1553,466.041 31.7488,465.7712 Q32.3423,465.5015 32.9731,464.9204 Z "/><text fill="#000000" font-family="sans-serif" font-size="12" lengthAdjust="spacingAndGlyphs" textLength="83" x="46" y="466.5352">ScalarProperty</text><line style="stroke: #000000; stroke-width: 1.5;" x1="7" x2="140" y1="478" y2="478"/><text fill="#000000" font-family="sans-serif" font-size="11" lengthAdjust="spacingAndGlyphs" textLength="123" x="12" y="492.6348">range : ScalarRange [1]</text></a><!--class StructuredProperty--><a target="_top" xlink:actuate="onRequest" xlink:href="#oml-StructuredProperty" xlink:show="new" xlink:title="#oml-StructuredProperty" xlink:type="simple"><rect fill="#FFFFFF" filter="url(#fci6qnrm7l498)" height="52.9551" id="StructuredProperty" style="stroke: #000000; stroke-width: 1.5;" width="140" x="176.5" y="446"/><rect fill="#FFFFFF" height="32" style="stroke: #000000; stroke-width: 1.5;" width="140" x="176.5" y="446"/><ellipse cx="191.5" cy="462" fill="#ADD1B2" rx="11" ry="11" style="stroke: #000000; stroke-width: 1.0;"/><path d="M194.4731,467.6431 Q193.8921,467.9419 193.2529,468.0913 Q192.6138,468.2407 191.9082,468.2407 Q189.4014,468.2407 188.0815,466.5889 Q186.7617,464.937 186.7617,461.8159 Q186.7617,458.6865 188.0815,457.0347 Q189.4014,455.3828 191.9082,455.3828 Q192.6138,455.3828 193.2612,455.5322 Q193.9087,455.6816 194.4731,455.9805 L194.4731,458.7031 Q193.8423,458.1221 193.2488,457.8523 Q192.6553,457.5825 192.0244,457.5825 Q190.6797,457.5825 189.9949,458.6492 Q189.3101,459.7158 189.3101,461.8159 Q189.3101,463.9077 189.9949,464.9744 Q190.6797,466.041 192.0244,466.041 Q192.6553,466.041 193.2488,465.7712 Q193.8423,465.5015 194.4731,464.9204 Z "/><text fill="#000000" font-family="sans-serif" font-size="12" lengthAdjust="spacingAndGlyphs" textLength="108" x="205.5" y="466.5352">StructuredProperty</text><line style="stroke: #000000; stroke-width: 1.5;" x1="177.5" x2="315.5" y1="478" y2="478"/><text fill="#000000" font-family="sans-serif" font-size="11" lengthAdjust="spacingAndGlyphs" textLength="108" x="182.5" y="492.6348">range : Structure [1]</text></a><!--class TerminologyMember--><a target="_top" xlink:actuate="onRequest" xlink:href="#oml-TerminologyMember" xlink:show="new" xlink:title="#oml-TerminologyMember" xlink:type="simple"><rect fill="#D3D3D3" filter="url(#fci6qnrm7l498)" height="32" id="TerminologyMember" style="stroke: #000000; stroke-width: 1.5;" width="151" x="434" y="8"/><ellipse cx="449" cy="24" fill="#A9DCDF" rx="11" ry="11" style="stroke: #000000; stroke-width: 1.0;"/><path d="M449.1133,19.3481 L447.9595,24.4199 L450.2754,24.4199 Z M447.6191,17.1069 L450.6157,17.1069 L453.9609,29.5 L451.5122,29.5 L450.7485,26.437 L447.4697,26.437 L446.7227,29.5 L444.2739,29.5 Z "/><text fill="#000000" font-family="sans-serif" font-size="12" font-style="italic" lengthAdjust="spacingAndGlyphs" textLength="119" x="463" y="28.5352">TerminologyMember</text></a><!--class TerminologyStatement--><a target="_top" xlink:actuate="onRequest" xlink:href="#oml-TerminologyStatement" xlink:show="new" xlink:title="#oml-TerminologyStatement" xlink:type="simple"><rect fill="#D3D3D3" filter="url(#fci6qnrm7l498)" height="32" id="TerminologyStatement" style="stroke: #000000; stroke-width: 1.5;" width="160" x="238.5" y="8"/><ellipse cx="253.5" cy="24" fill="#A9DCDF" rx="11" ry="11" style="stroke: #000000; stroke-width: 1.0;"/><path d="M253.6133,19.3481 L252.4595,24.4199 L254.7754,24.4199 Z M252.1191,17.1069 L255.1157,17.1069 L258.4609,29.5 L256.0122,29.5 L255.2485,26.437 L251.9697,26.437 L251.2227,29.5 L248.7739,29.5 Z "/><text fill="#000000" font-family="sans-serif" font-size="12" font-style="italic" lengthAdjust="spacingAndGlyphs" textLength="128" x="267.5" y="28.5352">TerminologyStatement</text></a><!--class TermSpecializationAxiom--><a target="_top" xlink:actuate="onRequest" xlink:href="#oml-TermSpecializationAxiom" xlink:show="new" xlink:title="#oml-TermSpecializationAxiom" xlink:type="simple"><rect fill="#D3D3D3" filter="url(#fci6qnrm7l498)" height="32" id="TermSpecializationAxiom" style="stroke: #000000; stroke-width: 1.5;" width="177" x="526" y="222"/><ellipse cx="541" cy="238" fill="#ADD1B2" rx="11" ry="11" style="stroke: #000000; stroke-width: 1.0;"/><path d="M543.9731,243.6431 Q543.3921,243.9419 542.7529,244.0913 Q542.1138,244.2407 541.4082,244.2407 Q538.9014,244.2407 537.5815,242.5889 Q536.2617,240.937 536.2617,237.8159 Q536.2617,234.6865 537.5815,233.0347 Q538.9014,231.3828 541.4082,231.3828 Q542.1138,231.3828 542.7612,231.5322 Q543.4087,231.6816 543.9731,231.9805 L543.9731,234.7031 Q543.3423,234.1221 542.7488,233.8523 Q542.1553,233.5825 541.5244,233.5825 Q540.1797,233.5825 539.4949,234.6492 Q538.8101,235.7158 538.8101,237.8159 Q538.8101,239.9077 539.4949,240.9744 Q540.1797,242.041 541.5244,242.041 Q542.1553,242.041 542.7488,241.7712 Q543.3423,241.5015 543.9731,240.9204 Z "/><text fill="#000000" font-family="sans-serif" font-size="12" lengthAdjust="spacingAndGlyphs" textLength="145" x="555" y="242.5352">TermSpecializationAxiom</text></a><!--link Property to AnnotationProperty--><a target="_top" xlink:actuate="onRequest" xlink:href="#oml-Property" xlink:show="new" xlink:title="#oml-Property" xlink:type="simple"><path d="M291.6028,273.1061 C308.6328,292.3282 329.1334,315.4674 343.5142,331.6992 " fill="none" id="Property-AnnotationProperty" style="stroke: #000000; stroke-width: 1.0;"/><polygon fill="none" points="286.3476,277.7304,278.3243,258.1185,296.8266,268.4464,286.3476,277.7304" style="stroke: #000000; stroke-width: 1.0;"/></a><!--link Term to CharacterizableTerm--><a target="_top" xlink:actuate="onRequest" xlink:href="#oml-Term" xlink:show="new" xlink:title="#oml-Term" xlink:type="simple"><path d="M413.5,161.2591 C413.5,180.313 413.5,202.2356 413.5,217.7579 " fill="none" id="Term-CharacterizableTerm" style="stroke: #000000; stroke-width: 1.0;"/><polygon fill="none" points="406.5001,161.1131,413.5,141.113,420.5001,161.113,406.5001,161.1131" style="stroke: #000000; stroke-width: 1.0;"/></a><!--link Property to CharacterizationProperty--><a target="_top" xlink:actuate="onRequest" xlink:href="#oml-Property" xlink:show="new" xlink:title="#oml-Property" xlink:type="simple"><path d="M229.2426,273.2806 C216.4196,287.7541 201.6503,304.4244 189.0136,318.6877 " fill="none" id="Property-CharacterizationProperty" style="stroke: #000000; stroke-width: 1.0;"/><polygon fill="none" points="224.1734,268.4464,242.6757,258.1185,234.6524,277.7304,224.1734,268.4464" style="stroke: #000000; stroke-width: 1.0;"/></a><!--link Term to Property--><a target="_top" xlink:actuate="onRequest" xlink:href="#oml-Term" xlink:show="new" xlink:title="#oml-Term" xlink:type="simple"><path d="M371.0503,153.4615 C344.0162,174.1346 309.8546,200.2582 286.714,217.954 " fill="none" id="Term-Property" style="stroke: #000000; stroke-width: 1.0;"/><polygon fill="none" points="367.059,147.7015,387.1984,141.113,375.5633,158.8226,367.059,147.7015" style="stroke: #000000; stroke-width: 1.0;"/></a><!--link CharacterizationProperty to ScalarProperty--><a target="_top" xlink:actuate="onRequest" xlink:href="#oml-CharacterizationProperty" xlink:show="new" xlink:title="#oml-CharacterizationProperty" xlink:type="simple"><path d="M124.0187,401.715 C113.2293,416.8328 101.788,432.8639 92.527,445.8401 " fill="none" id="CharacterizationProperty-ScalarProperty" style="stroke: #000000; stroke-width: 1.0;"/><polygon fill="none" points="118.4563,397.4589,135.7725,385.2461,129.8518,405.5918,118.4563,397.4589" style="stroke: #000000; stroke-width: 1.0;"/></a><!--link CharacterizationProperty to StructuredProperty--><a target="_top" xlink:actuate="onRequest" xlink:href="#oml-CharacterizationProperty" xlink:show="new" xlink:title="#oml-CharacterizationProperty" xlink:type="simple"><path d="M195.3938,401.715 C206.3088,416.8328 217.8831,432.8639 227.2518,445.8401 " fill="none" id="CharacterizationProperty-StructuredProperty" style="stroke: #000000; stroke-width: 1.0;"/><polygon fill="none" points="189.5354,405.5591,183.5034,385.2461,200.8862,397.3639,189.5354,405.5591" style="stroke: #000000; stroke-width: 1.0;"/></a><!--link TerminologyMember to Term--><a target="_top" xlink:actuate="onRequest" xlink:href="#oml-TerminologyMember" xlink:show="new" xlink:title="#oml-TerminologyMember" xlink:type="simple"><path d="M479.305,54.5096 C464.3181,69.6525 446.6332,87.5217 433.3731,100.9199 " fill="none" id="TerminologyMember-Term" style="stroke: #000000; stroke-width: 1.0;"/><polygon fill="none" points="474.6035,49.3088,493.6476,40.0176,484.5542,59.1569,474.6035,49.3088" style="stroke: #000000; stroke-width: 1.0;"/></a><!--link TerminologyStatement to Term--><a target="_top" xlink:actuate="onRequest" xlink:href="#oml-TerminologyStatement" xlink:show="new" xlink:title="#oml-TerminologyStatement" xlink:type="simple"><path d="M348.3805,54.5096 C363.2112,69.6525 380.712,87.5217 393.834,100.9199 " fill="none" id="TerminologyStatement-Term" style="stroke: #000000; stroke-width: 1.0;"/><polygon fill="none" points="343.1804,59.2042,334.1873,40.0176,353.1825,49.4083,343.1804,59.2042" style="stroke: #000000; stroke-width: 1.0;"/></a><!--link Term to TermSpecializationAxiom--><path d="M456.738,146.1684 C492.0624,166.7303 541.5513,195.5373 575.6342,215.3766 " fill="none" id="Term-TermSpecializationAxiom" style="stroke: #000000; stroke-width: 1.0;"/><polygon fill="#000000" points="586.9987,221.9918,581.2328,214.0072,582.6775,219.4764,577.2082,220.9211,586.9987,221.9918" style="stroke: #000000; stroke-width: 1.0;"/><line style="stroke: #000000; stroke-width: 1.0;" x1="582.6775" x2="575.7635" y1="219.4764" y2="215.4519"/><polygon fill="#000000" points="445.349,139.539,448.5222,146.0144,455.72,145.5758,452.5468,139.1004,445.349,139.539" style="stroke: #000000; stroke-width: 1.0;"/><text fill="#000000" font-family="sans-serif" font-size="13" lengthAdjust="spacingAndGlyphs" textLength="94" x="526.5" y="184.5684">specializations</text><text fill="#000000" font-family="sans-serif" font-size="13" lengthAdjust="spacingAndGlyphs" textLength="6" x="570.1326" y="211.2407">*</text><!--
@startuml
skinparam classBackgroundColor LightGray
skinparam classBorderColor Black
skinparam enumBorderColor Black
skinparam ArrowColor Black
hide methods
class AnnotationProperty [[#oml-AnnotationProperty]] #white {
}
AnnotationProperty -up-|> Property [[#oml-Property]]
abstract class CharacterizableTerm [[#oml-CharacterizableTerm]] #white {
}
CharacterizableTerm -up-|> Term [[#oml-Term]]
abstract class CharacterizationProperty [[#oml-CharacterizationProperty]] #white {
	functional : Boolean
	domain : CharacterizableTerm [1]
}
CharacterizationProperty -up-|> Property [[#oml-Property]]
abstract class Property [[#oml-Property]] #white {
}
Property -up-|> Term [[#oml-Term]]
class ScalarProperty [[#oml-ScalarProperty]] #white {
	range : ScalarRange [1]
}
ScalarProperty -up-|> CharacterizationProperty [[#oml-CharacterizationProperty]]
class StructuredProperty [[#oml-StructuredProperty]] #white {
	range : Structure [1]
}
StructuredProperty -up-|> CharacterizationProperty [[#oml-CharacterizationProperty]]
abstract class Term [[#oml-Term]] #white {
}
abstract class TerminologyMember [[#oml-TerminologyMember]]
hide TerminologyMember members
abstract class TerminologyStatement [[#oml-TerminologyStatement]]
hide TerminologyStatement members
class TermSpecializationAxiom [[#oml-TermSpecializationAxiom]]
hide TermSpecializationAxiom members
Term -up-|> TerminologyMember [[#oml-TerminologyMember]]
Term -up-|> TerminologyStatement [[#oml-TerminologyStatement]]
Term *- -> "*" TermSpecializationAxiom : specializations
@enduml

PlantUML version 1.2019.00(Sun Jan 13 07:46:42 PST 2019)
(GPL source distribution)
Java Runtime: Java(TM) SE Runtime Environment
JVM: Java HotSpot(TM) 64-Bit Server VM
Java Version: 1.8.0_181-b13
Operating System: Mac OS X
OS Version: 10.13.6
Default Encoding: UTF-8
Language: en
Country: US
--></g></svg>